<?xml version="1.0" standalone="no"?>
 <!DOCTYPE svg PUBLIC "-//W3C//DTD SVG 1.1//EN" 
 "http://www.w3.org/Graphics/SVG/1.1/DTD/svg11.dtd"> 
<svg
  xmlns:svg="http://www.w3.org/2000/svg"
  xmlns="http://www.w3.org/2000/svg"
  xmlns:xlink="http://www.w3.org/1999/xlink"
  version="1.1"
  width="95.0214mm" height="52.0446mm" viewBox="0.0000 0.0000 95.0214 52.0446">
<title>SVG Image created as Блок питания усилителя-B_Cu.svg date 2024/07/19 10:00:16 </title>
  <desc>Image generated by PCBNEW </desc>
<g style="fill:#000000; fill-opacity:1.0000;stroke:#000000; stroke-opacity:1.0000;
stroke-linecap:round; stroke-linejoin:round;"
 transform="translate(0 0) scale(1 1)">
<path style="fill:none; 
stroke:#000000; stroke-width:0.0500; stroke-opacity:1; 
stroke-linecap:round; stroke-linejoin:round;fill:none"
d="M 94.5164,0.0250
0.0164,0.0250
0.0164,52.0250
94.5164,52.0250
Z" /> 
</g>
<g style="fill:none; 
stroke:#000000; stroke-width:0.0500; stroke-opacity:1; 
stroke-linecap:round; stroke-linejoin:round;">
<circle cx="3.0164" cy="47.5250" r="1.8028" /> 
<circle cx="3.0164" cy="5.5250" r="2.0000" /> 
<circle cx="88.5164" cy="47.0250" r="2.1213" /> 
<circle cx="88.5164" cy="5.0250" r="2.0616" /> 
</g>
<g style="fill:#000000; fill-opacity:1.0000; stroke:none;">
<circle cx="74.5964" cy="5.0250" r="0.5500" /> 
</g>
<g style="fill:#000000; fill-opacity:1.0000; stroke:none;">
<circle cx="64.4364" cy="5.0250" r="0.5500" /> 
</g>
<g style="fill:#000000; fill-opacity:1.0000; stroke:none;">
<circle cx="31.5164" cy="35.3350" r="0.4000" /> 
</g>
<g style="fill:#000000; fill-opacity:1.0000; stroke:none;">
<circle cx="31.5164" cy="27.7150" r="0.4000" /> 
</g>
<g style="fill:#000000; fill-opacity:1.0000; stroke:none;">
<circle cx="39.5164" cy="15.6050" r="0.5500" /> 
</g>
<g style="fill:#000000; fill-opacity:1.0000; stroke:none;">
<circle cx="39.5164" cy="13.0650" r="0.5500" /> 
</g>
<g style="fill:#000000; fill-opacity:1.0000; stroke:none;">
<circle cx="39.5164" cy="10.5250" r="0.5500" /> 
</g>
<g style="fill:#000000; fill-opacity:1.0000; stroke:none;">
<circle cx="31.5164" cy="40.0250" r="0.4500" /> 
</g>
<g style="fill:#000000; fill-opacity:1.0000; stroke:none;">
<circle cx="31.5164" cy="42.5650" r="0.4500" /> 
</g>
<g style="fill:#000000; fill-opacity:1.0000; stroke:none;">
<circle cx="74.9589" cy="17.4175" r="0.7000" /> 
</g>
<g style="fill:#000000; fill-opacity:1.0000; stroke:none;">
<circle cx="74.9589" cy="22.4975" r="0.7000" /> 
</g>
<g style="fill:#000000; fill-opacity:1.0000; stroke:none;">
<circle cx="74.9589" cy="27.5775" r="0.7000" /> 
</g>
<g style="fill:#000000; fill-opacity:1.0000; stroke:none;">
<circle cx="74.9589" cy="32.6575" r="0.7000" /> 
</g>
<g style="fill:#000000; fill-opacity:1.0000; stroke:none;">
<circle cx="63.0164" cy="46.0250" r="0.6000" /> 
</g>
<g style="fill:#000000; fill-opacity:1.0000; stroke:none;">
<circle cx="63.0164" cy="38.5250" r="0.6000" /> 
</g>
<g style="fill:#000000; fill-opacity:1.0000; stroke:none;">
<circle cx="44.5164" cy="21.5250" r="0.3810" /> 
</g>
<g style="fill:#000000; fill-opacity:1.0000; stroke:none;">
<circle cx="44.5164" cy="3.5250" r="0.3810" /> 
</g>
<g style="fill:#000000; fill-opacity:1.0000; stroke:none;">
<circle cx="31.7914" cy="14.5250" r="0.4500" /> 
</g>
<g style="fill:#000000; fill-opacity:1.0000; stroke:none;">
<circle cx="29.2514" cy="14.5250" r="0.4500" /> 
</g>
<g style="fill:#000000; fill-opacity:1.0000; stroke:none;">
<circle cx="39.0164" cy="41.0250" r="0.5500" /> 
</g>
<g style="fill:#000000; fill-opacity:1.0000; stroke:none;">
<circle cx="39.0164" cy="38.4850" r="0.5500" /> 
</g>
<g style="fill:#000000; fill-opacity:1.0000; stroke:none;">
<circle cx="39.0164" cy="35.9450" r="0.5500" /> 
</g>
<g style="fill:#000000; fill-opacity:1.0000; stroke:none;">
<circle cx="23.0164" cy="35.7750" r="0.6500" /> 
</g>
<g style="fill:#000000; fill-opacity:1.0000; stroke:none;">
<circle cx="23.0164" cy="29.9750" r="0.6500" /> 
</g>
<g style="fill:#000000; fill-opacity:1.0000; stroke:none;">
<circle cx="23.0164" cy="21.0750" r="0.6500" /> 
</g>
<g style="fill:#000000; fill-opacity:1.0000; stroke:none;">
<circle cx="23.0164" cy="15.2750" r="0.6500" /> 
</g>
<g style="fill:#000000; fill-opacity:1.0000; stroke:none;">
<circle cx="21.0164" cy="48.1777" r="0.4000" /> 
</g>
<g style="fill:#000000; fill-opacity:1.0000; stroke:none;">
<circle cx="21.0164" cy="44.6777" r="0.4000" /> 
</g>
<g style="fill:#000000; fill-opacity:1.0000; stroke:none;">
<circle cx="88.5164" cy="30.0250" r="0.6600" /> 
</g>
<g style="fill:#000000; fill-opacity:1.0000; stroke:none;">
<circle cx="88.5164" cy="25.0250" r="0.6600" /> 
</g>
<g style="fill:#000000; fill-opacity:1.0000; stroke:none;">
<circle cx="88.5164" cy="20.0250" r="0.6600" /> 
</g>
<g style="fill:#000000; fill-opacity:1.0000; stroke:none;">
<circle cx="81.0164" cy="11.5250" r="0.5000" /> 
</g>
<g style="fill:#000000; fill-opacity:1.0000; stroke:none;">
<circle cx="91.0164" cy="11.5250" r="0.5000" /> 
</g>
<g style="fill:#000000; fill-opacity:1.0000; stroke:none;">
<circle cx="91.0164" cy="38.0250" r="0.5000" /> 
</g>
<g style="fill:#000000; fill-opacity:1.0000; stroke:none;">
<circle cx="81.0164" cy="38.0250" r="0.5000" /> 
</g>
<g style="fill:#000000; fill-opacity:1.0000; stroke:none;">
<circle cx="61.0164" cy="20.5250" r="0.6000" /> 
</g>
<g style="fill:#000000; fill-opacity:1.0000; stroke:none;">
<circle cx="61.0164" cy="13.0250" r="0.6000" /> 
</g>
<g style="fill:#000000; fill-opacity:1.0000; stroke:none;">
<circle cx="56.9364" cy="30.5250" r="0.5500" /> 
</g>
<g style="fill:#000000; fill-opacity:1.0000; stroke:none;">
<circle cx="67.0964" cy="30.5250" r="0.5500" /> 
</g>
<g style="fill:#000000; fill-opacity:1.0000; stroke:none;">
<circle cx="8.0164" cy="30.5250" r="0.6600" /> 
</g>
<g style="fill:#000000; fill-opacity:1.0000; stroke:none;">
<circle cx="8.0164" cy="35.5250" r="0.6600" /> 
</g>
<g style="fill:#000000; fill-opacity:1.0000; stroke:none;">
<circle cx="8.0164" cy="40.5250" r="0.6600" /> 
</g>
<g style="fill:#000000; fill-opacity:1.0000; stroke:none;">
<circle cx="44.5164" cy="47.5250" r="0.3810" /> 
</g>
<g style="fill:#000000; fill-opacity:1.0000; stroke:none;">
<circle cx="44.5164" cy="29.5250" r="0.3810" /> 
</g>
<g style="fill:#000000; fill-opacity:1.0000; stroke:none;">
<circle cx="9.0164" cy="3.7750" r="0.6500" /> 
</g>
<g style="fill:#000000; fill-opacity:1.0000; stroke:none;">
<circle cx="9.0164" cy="8.9750" r="0.6500" /> 
</g>
<g style="fill:#000000; fill-opacity:1.0000; stroke:none;">
<circle cx="9.0164" cy="19.0750" r="0.6500" /> 
</g>
<g style="fill:#000000; fill-opacity:1.0000; stroke:none;">
<circle cx="9.0164" cy="24.2750" r="0.6500" /> 
</g>
<g style="fill:#000000; fill-opacity:1.0000; stroke:none;">
<circle cx="17.5164" cy="6.8723" r="0.4000" /> 
</g>
<g style="fill:#000000; fill-opacity:1.0000; stroke:none;">
<circle cx="17.5164" cy="10.3723" r="0.4000" /> 
</g>
<g style="fill:#000000; fill-opacity:1.0000; stroke:none;">
<circle cx="33.8264" cy="8.0250" r="0.4000" /> 
</g>
<g style="fill:#000000; fill-opacity:1.0000; stroke:none;">
<circle cx="26.2064" cy="8.0250" r="0.4000" /> 
<path style="fill:#000000; fill-opacity:1.0000; stroke:none;fill-rule:evenodd;"
d="M 75.6964,6.1250
75.6964,3.9250
73.4964,3.9250
73.4964,6.1250
Z" /> 
</g>
<g style="fill:#000000; fill-opacity:1.0000; stroke:none;">
<circle cx="64.4364" cy="5.0250" r="1.1000" /> 
<circle cx="31.5164" cy="35.3350" r="0.8000" /> 
</g>
<g style="fill:#000000; fill-opacity:1.0000; stroke:none;">
<circle cx="31.5164" cy="27.7150" r="0.8000" /> 
<path style="fill:#000000; fill-opacity:1.0000; stroke:none;fill-rule:evenodd;"
d="M 38.5164,16.5575
40.5164,16.5575
40.5164,14.6525
38.5164,14.6525
Z" /> 
</g>
<g style="fill:none; 
stroke:#000000; stroke-width:1.9050; stroke-opacity:1; 
stroke-linecap:round; stroke-linejoin:round;">
<path d="M39.5639 13.0650
L39.4689 13.0650
" />
<path d="M39.5639 10.5250
L39.4689 10.5250
" />
<path style="fill:#000000; fill-opacity:1.0000; stroke:none;fill-rule:evenodd;"
d="M 32.4164,39.1250
30.6164,39.1250
30.6164,40.9250
32.4164,40.9250
Z" /> 
</g>
<g style="fill:#000000; fill-opacity:1.0000; stroke:none;">
<circle cx="31.5164" cy="42.5650" r="0.9000" /> 
<path style="fill:#000000; fill-opacity:1.0000; stroke:none;fill-rule:evenodd;"
d="M 76.3589,16.0175
73.5589,16.0175
73.5589,18.8175
76.3589,18.8175
Z" /> 
</g>
<g style="fill:#000000; fill-opacity:1.0000; stroke:none;">
<circle cx="74.9589" cy="22.4975" r="1.4000" /> 
</g>
<g style="fill:#000000; fill-opacity:1.0000; stroke:none;">
<circle cx="74.9589" cy="27.5775" r="1.4000" /> 
</g>
<g style="fill:#000000; fill-opacity:1.0000; stroke:none;">
<circle cx="74.9589" cy="32.6575" r="1.4000" /> 
<path style="fill:#000000; fill-opacity:1.0000; stroke:none;fill-rule:evenodd;"
d="M 61.8164,47.2250
64.2164,47.2250
64.2164,44.8250
61.8164,44.8250
Z" /> 
</g>
<g style="fill:#000000; fill-opacity:1.0000; stroke:none;">
<circle cx="63.0164" cy="38.5250" r="1.2000" /> 
</g>
<g style="fill:#000000; fill-opacity:1.0000; stroke:none;">
<circle cx="44.5164" cy="21.5250" r="0.7620" /> 
</g>
<g style="fill:#000000; fill-opacity:1.0000; stroke:none;">
<circle cx="44.5164" cy="3.5250" r="0.7620" /> 
<path style="fill:#000000; fill-opacity:1.0000; stroke:none;fill-rule:evenodd;"
d="M 32.6914,15.4250
32.6914,13.6250
30.8914,13.6250
30.8914,15.4250
Z" /> 
</g>
<g style="fill:#000000; fill-opacity:1.0000; stroke:none;">
<circle cx="29.2514" cy="14.5250" r="0.9000" /> 
<path style="fill:#000000; fill-opacity:1.0000; stroke:none;fill-rule:evenodd;"
d="M 38.0164,41.9775
40.0164,41.9775
40.0164,40.0725
38.0164,40.0725
Z" /> 
</g>
<g style="fill:none; 
stroke:#000000; stroke-width:1.9050; stroke-opacity:1; 
stroke-linecap:round; stroke-linejoin:round;">
<path d="M39.0639 38.4850
L38.9689 38.4850
" />
<path d="M39.0639 35.9450
L38.9689 35.9450
" />
<path style="fill:#000000; fill-opacity:1.0000; stroke:none;fill-rule:evenodd;"
d="M 23.5914,36.9250
23.7402,36.9054
23.8789,36.8480
23.9980,36.7566
24.0894,36.6375
24.1468,36.4988
24.1664,36.3500
24.1664,35.2000
24.1468,35.0512
24.0894,34.9125
23.9980,34.7934
23.8789,34.7020
23.7402,34.6446
23.5914,34.6250
22.4414,34.6250
22.2926,34.6446
22.1539,34.7020
22.0348,34.7934
21.9434,34.9125
21.8860,35.0512
21.8664,35.2000
21.8664,36.3500
21.8860,36.4988
21.9434,36.6375
22.0348,36.7566
22.1539,36.8480
22.2926,36.9054
22.4414,36.9250
Z" /> 
<path style="fill:#000000; fill-opacity:1.0000; stroke:none;fill-rule:evenodd;"
d="M 23.5914,31.1250
23.7402,31.1054
23.8789,31.0480
23.9980,30.9566
24.0894,30.8375
24.1468,30.6988
24.1664,30.5500
24.1664,29.4000
24.1468,29.2512
24.0894,29.1125
23.9980,28.9934
23.8789,28.9020
23.7402,28.8446
23.5914,28.8250
22.4414,28.8250
22.2926,28.8446
22.1539,28.9020
22.0348,28.9934
21.9434,29.1125
21.8860,29.2512
21.8664,29.4000
21.8664,30.5500
21.8860,30.6988
21.9434,30.8375
22.0348,30.9566
22.1539,31.0480
22.2926,31.1054
22.4414,31.1250
Z" /> 
</g>
<g style="fill:#000000; fill-opacity:1.0000; stroke:none;">
<circle cx="23.0164" cy="21.0750" r="1.1500" /> 
</g>
<g style="fill:#000000; fill-opacity:1.0000; stroke:none;">
<circle cx="23.0164" cy="15.2750" r="1.1500" /> 
<path style="fill:#000000; fill-opacity:1.0000; stroke:none;fill-rule:evenodd;"
d="M 20.2164,48.9777
21.8164,48.9777
21.8164,47.3777
20.2164,47.3777
Z" /> 
</g>
<g style="fill:#000000; fill-opacity:1.0000; stroke:none;">
<circle cx="21.0164" cy="44.6777" r="0.8000" /> 
<path style="fill:#000000; fill-opacity:1.0000; stroke:none;fill-rule:evenodd;"
d="M 86.5364,31.0150
90.4964,31.0150
90.4964,29.0350
86.5364,29.0350
Z" /> 
</g>
<g style="fill:none; 
stroke:#000000; stroke-width:1.9800; stroke-opacity:1; 
stroke-linecap:round; stroke-linejoin:round;">
<path d="M89.5064 25.0250
L87.5264 25.0250
" />
<path d="M89.5064 20.0250
L87.5264 20.0250
" />
</g>
<g style="fill:#000000; fill-opacity:1.0000; stroke:none;">
<circle cx="81.0164" cy="11.5250" r="1.0000" /> 
</g>
<g style="fill:#000000; fill-opacity:1.0000; stroke:none;">
<circle cx="91.0164" cy="11.5250" r="1.0000" /> 
</g>
<g style="fill:#000000; fill-opacity:1.0000; stroke:none;">
<circle cx="91.0164" cy="38.0250" r="1.0000" /> 
</g>
<g style="fill:#000000; fill-opacity:1.0000; stroke:none;">
<circle cx="81.0164" cy="38.0250" r="1.0000" /> 
<path style="fill:#000000; fill-opacity:1.0000; stroke:none;fill-rule:evenodd;"
d="M 59.8164,21.7250
62.2164,21.7250
62.2164,19.3250
59.8164,19.3250
Z" /> 
</g>
<g style="fill:#000000; fill-opacity:1.0000; stroke:none;">
<circle cx="61.0164" cy="13.0250" r="1.2000" /> 
<path style="fill:#000000; fill-opacity:1.0000; stroke:none;fill-rule:evenodd;"
d="M 55.8364,29.4250
55.8364,31.6250
58.0364,31.6250
58.0364,29.4250
Z" /> 
</g>
<g style="fill:#000000; fill-opacity:1.0000; stroke:none;">
<circle cx="67.0964" cy="30.5250" r="1.1000" /> 
<path style="fill:#000000; fill-opacity:1.0000; stroke:none;fill-rule:evenodd;"
d="M 9.9964,29.5350
6.0364,29.5350
6.0364,31.5150
9.9964,31.5150
Z" /> 
</g>
<g style="fill:none; 
stroke:#000000; stroke-width:1.9800; stroke-opacity:1; 
stroke-linecap:round; stroke-linejoin:round;">
<path d="M7.0264 35.5250
L9.0064 35.5250
" />
<path d="M7.0264 40.5250
L9.0064 40.5250
" />
</g>
<g style="fill:#000000; fill-opacity:1.0000; stroke:none;">
<circle cx="44.5164" cy="47.5250" r="0.7620" /> 
</g>
<g style="fill:#000000; fill-opacity:1.0000; stroke:none;">
<circle cx="44.5164" cy="29.5250" r="0.7620" /> 
<path style="fill:#000000; fill-opacity:1.0000; stroke:none;fill-rule:evenodd;"
d="M 8.4414,2.6250
8.2926,2.6446
8.1539,2.7020
8.0348,2.7934
7.9434,2.9125
7.8860,3.0512
7.8664,3.2000
7.8664,4.3500
7.8860,4.4988
7.9434,4.6375
8.0348,4.7566
8.1539,4.8480
8.2926,4.9054
8.4414,4.9250
9.5914,4.9250
9.7402,4.9054
9.8789,4.8480
9.9980,4.7566
10.0894,4.6375
10.1468,4.4988
10.1664,4.3500
10.1664,3.2000
10.1468,3.0512
10.0894,2.9125
9.9980,2.7934
9.8789,2.7020
9.7402,2.6446
9.5914,2.6250
Z" /> 
<path style="fill:#000000; fill-opacity:1.0000; stroke:none;fill-rule:evenodd;"
d="M 8.4414,7.8250
8.2926,7.8446
8.1539,7.9020
8.0348,7.9934
7.9434,8.1125
7.8860,8.2512
7.8664,8.4000
7.8664,9.5500
7.8860,9.6988
7.9434,9.8375
8.0348,9.9566
8.1539,10.0480
8.2926,10.1054
8.4414,10.1250
9.5914,10.1250
9.7402,10.1054
9.8789,10.0480
9.9980,9.9566
10.0894,9.8375
10.1468,9.6988
10.1664,9.5500
10.1664,8.4000
10.1468,8.2512
10.0894,8.1125
9.9980,7.9934
9.8789,7.9020
9.7402,7.8446
9.5914,7.8250
Z" /> 
</g>
<g style="fill:#000000; fill-opacity:1.0000; stroke:none;">
<circle cx="9.0164" cy="19.0750" r="1.1500" /> 
</g>
<g style="fill:#000000; fill-opacity:1.0000; stroke:none;">
<circle cx="9.0164" cy="24.2750" r="1.1500" /> 
<path style="fill:#000000; fill-opacity:1.0000; stroke:none;fill-rule:evenodd;"
d="M 18.3164,6.0723
16.7164,6.0723
16.7164,7.6723
18.3164,7.6723
Z" /> 
</g>
<g style="fill:#000000; fill-opacity:1.0000; stroke:none;">
<circle cx="17.5164" cy="10.3723" r="0.8000" /> 
</g>
<g style="fill:#000000; fill-opacity:1.0000; stroke:none;">
<circle cx="33.8264" cy="8.0250" r="0.8000" /> 
</g>
<g style="fill:#000000; fill-opacity:1.0000; stroke:none;">
<circle cx="26.2064" cy="8.0250" r="0.8000" /> 
</g>
<g style="fill:none; 
stroke:#000000; stroke-width:1.0000; stroke-opacity:1; 
stroke-linecap:round; stroke-linejoin:round;">
<path d="M31.5164 27.7150
L31.5164 31.2150
" />
<path d="M23.0164 21.0750
L23.0164 25.5250
" />
<path d="M23.0164 25.5250
L8.0164 40.5250
" />
<path d="M23.0164 15.2750
L23.0164 21.0750
" />
<path d="M9.0164 3.7750
L9.0164 8.9750
" />
<path d="M17.5164 6.8723
L12.1137 6.8723
" />
<path d="M12.1137 6.8723
L9.0164 3.7750
" />
<path d="M18.1637 6.2250
L17.5164 6.8723
" />
<path d="M32.0264 6.2250
L18.1637 6.2250
" />
<path d="M33.8264 8.0250
L32.0264 6.2250
" />
<path d="M37.0164 8.0250
L39.5164 10.5250
" />
<path d="M33.8264 8.0250
L37.0164 8.0250
" />
<path d="M29.2514 14.5250
L29.2514 11.0700
" />
<path d="M29.2514 11.0700
L26.2064 8.0250
" />
<path d="M21.1543 10.3723
L17.5164 10.3723
" />
<path d="M27.2070 16.4250
L21.1543 10.3723
" />
<path d="M30.0384 16.4250
L27.2070 16.4250
" />
<path d="M31.7914 14.6720
L30.0384 16.4250
" />
<path d="M31.7914 14.5250
L31.7914 14.6720
" />
<path d="M33.2514 13.0650
L31.7914 14.5250
" />
<path d="M39.5164 13.0650
L33.2514 13.0650
" />
<path d="M80.0164 46.0250
L63.0164 46.0250
" />
<path d="M88.0164 38.0250
L80.0164 46.0250
" />
<path d="M91.0164 38.0250
L88.0164 38.0250
" />
<path d="M31.0164 47.0250
L31.5164 47.0250
" />
<path d="M32.2664 47.7750
L31.8637 48.1777
" />
<path d="M31.5164 47.0250
L32.2664 47.7750
" />
<path d="M32.5164 47.5250
L32.2664 47.7750
" />
<path d="M31.0164 47.0250
L31.0164 48.1777
" />
<path d="M31.5164 46.5250
L31.0164 47.0250
" />
<path d="M31.0164 48.1777
L21.0164 48.1777
" />
<path d="M31.8637 48.1777
L31.0164 48.1777
" />
<path d="M31.5164 46.5250
L32.5164 47.5250
" />
<path d="M31.5164 42.5650
L31.5164 46.5250
" />
<path d="M89.5975 1.7630
L72.2784 1.7630
" />
<path d="M92.0164 10.5250
L92.0164 4.1819
" />
<path d="M92.0164 4.1819
L89.5975 1.7630
" />
<path d="M72.2784 1.7630
L61.0164 13.0250
" />
<path d="M91.0164 11.5250
L92.0164 10.5250
" />
<path d="M39.0164 41.0250
L32.5164 47.5250
" />
<path d="M31.5164 40.0250
L31.5164 35.3350
" />
<path d="M30.2764 29.9750
L31.5164 31.2150
" />
<path d="M23.0164 29.9750
L30.2764 29.9750
" />
<path d="M23.0164 29.9750
L23.0164 35.7750
" />
<path d="M21.0164 37.7750
L23.0164 35.7750
" />
<path d="M21.0164 44.6777
L21.0164 37.7750
" />
<path d="M9.1691 48.1777
L21.0164 48.1777
" />
<path d="M4.0661 43.0747
L9.1691 48.1777
" />
<path d="M4.0661 39.4753
L4.0661 43.0747
" />
<path d="M8.0164 35.5250
L4.0661 39.4753
" />
<path d="M9.0164 19.0750
L9.0164 24.2750
" />
<path d="M8.0164 25.2750
L9.0164 24.2750
" />
<path d="M8.0164 30.5250
L8.0164 25.2750
" />
<path d="M34.2864 31.2150
L39.0164 35.9450
" />
<path d="M31.5164 31.2150
L34.2864 31.2150
" />
<path d="M39.0564 38.5250
L39.0164 38.4850
" />
<path d="M62.5036 38.5250
L39.0564 38.5250
" />
<path d="M63.0164 39.0378
L62.5036 38.5250
" />
<path d="M61.0164 5.0250
L64.4364 5.0250
" />
<path d="M42.0164 8.5250
L57.5164 8.5250
" />
<path d="M40.0164 10.5250
L42.0164 8.5250
" />
<path d="M39.5164 10.5250
L40.0164 10.5250
" />
<path d="M57.5164 8.5250
L61.0164 5.0250
" />
<path d="M39.5564 13.0250
L39.5164 13.0650
" />
<path d="M61.0164 13.0250
L39.5564 13.0250
" />
<path d="M56.0964 15.6050
L39.5164 15.6050
" />
<path d="M61.0164 20.5250
L56.0964 15.6050
" />
<path d="M74.8514 17.5250
L74.9589 17.4175
" />
<path d="M64.0164 17.5250
L74.8514 17.5250
" />
<path d="M61.0164 20.5250
L64.0164 17.5250
" />
<path d="M74.5964 5.1050
L81.0164 11.5250
" />
<path d="M74.5964 5.0250
L74.5964 5.1050
" />
<path d="M57.5036 41.0250
L39.0164 41.0250
" />
<path d="M63.0164 46.5378
L57.5036 41.0250
" />
<path d="M51.5164 35.9450
L39.0164 35.9450
" />
<path d="M56.9364 30.5250
L51.5164 35.9450
" />
<path d="M77.4064 30.0250
L74.9589 27.5775
" />
<path d="M88.5164 30.0250
L77.4064 30.0250
" />
<path d="M86.0439 22.4975
L88.5164 20.0250
" />
<path d="M74.9589 22.4975
L86.0439 22.4975
" />
<path d="M80.8514 11.5250
L74.9589 17.4175
" />
<path d="M81.0164 11.5250
L80.8514 11.5250
" />
<path d="M63.0164 34.6050
L67.0964 30.5250
" />
<path d="M63.0164 39.0378
L63.0164 34.6050
" />
<path d="M69.2289 32.6575
L67.0964 30.5250
" />
<path d="M74.9589 32.6575
L69.2289 32.6575
" />
<path d="M80.3264 38.0250
L74.9589 32.6575
" />
<path d="M81.0164 38.0250
L80.3264 38.0250
" />
<path d="M92.0164 37.0250
L91.0164 38.0250
" />
<path d="M92.0164 28.5250
L92.0164 37.0250
" />
<path d="M88.5164 25.0250
L92.0164 28.5250
" />
<path d="M92.0164 21.5250
L88.5164 25.0250
" />
<path d="M92.0164 12.5250
L92.0164 21.5250
" />
<path d="M91.0164 11.5250
L92.0164 12.5250
" />
<path style="fill:#000000; fill-opacity:1.0000; stroke:none;fill-rule:evenodd;"
d="M 0.5739,0.5452
0.5281,0.5980
0.5169,0.6495
0.5169,4.4092
0.5366,4.4762
0.5894,4.5220
0.6585,4.5319
0.7221,4.5029
0.7531,4.4620
0.8209,4.3180
0.8209,4.3180
0.9895,4.0523
0.9895,4.0523
1.1900,3.8099
1.1900,3.8099
1.4194,3.5945
1.4194,3.5945
1.6739,3.4096
1.6739,3.4096
1.6739,3.4096
1.9496,3.2580
1.9496,3.2580
1.9496,3.2580
1.9496,3.2580
2.2422,3.1422
2.2422,3.1422
2.5469,3.0639
2.5469,3.0639
2.8591,3.0245
2.8591,3.0245
3.1737,3.0245
3.1737,3.0245
3.4859,3.0639
3.4859,3.0639
3.7906,3.1422
3.7906,3.1422
4.0832,3.2580
4.0832,3.2580
4.3589,3.4096
4.3589,3.4096
4.6134,3.5945
4.6134,3.5945
4.8428,3.8099
4.8428,3.8099
5.0433,4.0523
5.0433,4.0523
5.2119,4.3180
5.2119,4.3180
5.3459,4.6027
5.3459,4.6027
5.4431,4.9019
5.5021,5.2110
5.5021,5.2110
5.5218,5.5250
5.5218,5.5250
5.5021,5.8390
5.5021,5.8390
5.4431,6.1481
5.3459,6.4473
5.3459,6.4473
5.2119,6.7320
5.2119,6.7320
5.0433,6.9977
5.0433,6.9977
4.8428,7.2401
4.8428,7.2401
4.8428,7.2401
4.6726,7.4000
4.6134,7.4555
4.6134,7.4555
4.3589,7.6404
4.3589,7.6404
4.3589,7.6404
4.0832,7.7920
4.0832,7.7920
4.0832,7.7920
4.0832,7.7920
3.7906,7.9078
3.7906,7.9078
3.4859,7.9861
3.4859,7.9861
3.4204,7.9943
3.1737,8.0255
3.1737,8.0255
3.1737,8.0255
3.1737,8.0255
2.8591,8.0255
2.8591,8.0255
2.8591,8.0255
2.8591,8.0255
2.6728,8.0020
2.5469,7.9861
2.2422,7.9078
2.2422,7.9078
1.9496,7.7920
1.9496,7.7920
1.9496,7.7920
1.9496,7.7920
1.6739,7.6404
1.4194,7.4555
1.1900,7.2401
0.9895,6.9977
0.8209,6.7320
0.7638,6.6107
0.7531,6.5880
0.7067,6.5357
0.6395,6.5168
0.5727,6.5373
0.5275,6.5906
0.5169,6.6408
0.5169,47.0256
0.5366,47.0927
0.5894,47.1384
0.6585,47.1484
0.7221,47.1194
0.7599,47.0606
0.7625,47.0498
0.7868,46.9276
0.7868,46.9276
0.7868,46.9276
0.8839,46.6417
0.8839,46.6417
1.0174,46.3709
1.0802,46.2769
1.1852,46.1198
1.2288,46.0701
1.3842,45.8928
1.6112,45.6938
1.6353,45.6777
1.8520,45.5329
1.8623,45.5260
2.1331,45.3925
2.1331,45.3925
2.4190,45.2954
2.4190,45.2954
2.7151,45.2365
2.7151,45.2365
2.7151,45.2365
3.0164,45.2168
3.3177,45.2365
3.3177,45.2365
3.3177,45.2365
3.6138,45.2954
3.6138,45.2954
3.8997,45.3925
3.8997,45.3925
4.1705,45.5260
4.4216,45.6938
4.6486,45.8928
4.8476,46.1198
5.0154,46.3709
5.1489,46.6417
5.1489,46.6417
5.2460,46.9276
5.2460,46.9276
5.3049,47.2237
5.3049,47.2237
5.3049,47.2237
5.3246,47.5250
5.3092,47.7608
5.3049,47.8263
5.3049,47.8263
5.2460,48.1224
5.2460,48.1224
5.1489,48.4083
5.1489,48.4083
5.0154,48.6791
4.8476,48.9302
4.6486,49.1572
4.5772,49.2197
4.4216,49.3562
4.2349,49.4809
4.1705,49.5240
3.8997,49.6575
3.8997,49.6575
3.6138,49.7546
3.6138,49.7546
3.6138,49.7546
3.4136,49.7944
3.3177,49.8135
3.3177,49.8135
3.3177,49.8135
3.0164,49.8332
2.7151,49.8135
2.4190,49.7546
2.4190,49.7546
2.1331,49.6575
2.1331,49.6575
1.8623,49.5240
1.8623,49.5240
1.8623,49.5240
1.6112,49.3562
1.3842,49.1572
1.1852,48.9302
1.0174,48.6791
0.8839,48.4083
0.8606,48.3396
0.7868,48.1224
0.7868,48.1224
0.7868,48.1224
0.7625,48.0002
0.7301,47.9383
0.6694,47.9037
0.5996,47.9074
0.5430,47.9483
0.5174,48.0133
0.5169,48.0244
0.5169,51.4005
0.5366,51.4675
0.5894,51.5133
0.6409,51.5245
93.8919,51.5245
93.9589,51.5048
94.0047,51.4520
94.0159,51.4005
94.0159,47.0250
91.1430,47.0250
91.1239,47.3416
91.0667,47.6536
91.0464,47.7186
90.9723,47.9564
90.8421,48.2456
90.6909,48.4958
90.6781,48.5171
90.6781,48.5171
90.4824,48.7668
90.2582,48.9910
90.0085,49.1867
90.0085,49.1867
90.0085,49.1867
89.7370,49.3507
89.4478,49.4809
89.1450,49.5753
88.8330,49.6325
88.5164,49.6516
88.1998,49.6325
87.8878,49.5753
87.5850,49.4809
87.2958,49.3507
87.0243,49.1867
86.7746,48.9910
86.5504,48.7668
86.3547,48.5171
86.1907,48.2456
86.0605,47.9564
85.9661,47.6536
85.9089,47.3416
85.8898,47.0250
85.9089,46.7084
85.9661,46.3964
86.0605,46.0936
86.1907,45.8044
86.3547,45.5329
86.3601,45.5260
86.5504,45.2832
86.7746,45.0590
87.0243,44.8633
87.0243,44.8633
87.1669,44.7772
64.7164,44.7772
64.7164,45.7750
63.5649,45.7750
63.5755,45.7934
63.6164,45.9460
63.6164,46.1040
63.5755,46.2566
63.5649,46.2750
64.7164,46.2750
64.7164,47.2728
64.7100,47.3324
64.7100,47.3324
64.6598,47.4671
64.6598,47.4671
64.5736,47.5822
64.5736,47.5822
64.4585,47.6683
64.4585,47.6684
64.3238,47.7186
64.3238,47.7186
64.2642,47.7250
64.2642,47.7250
63.2664,47.7250
63.2664,46.5735
63.2480,46.5841
63.0954,46.6250
62.9374,46.6250
62.7848,46.5841
62.7664,46.5735
62.7664,47.7250
61.7686,47.7250
61.7686,47.7250
61.7090,47.7186
61.7090,47.7186
61.5743,47.6684
61.5743,47.6683
61.4592,47.5822
61.4592,47.5822
61.4164,47.5250
45.7837,47.5250
45.7837,47.5250
45.7645,47.7451
45.7645,47.7451
45.7073,47.9584
45.7073,47.9584
45.7073,47.9584
45.6308,48.1224
45.6139,48.1587
45.6139,48.1587
45.4872,48.3396
45.4872,48.3396
45.3310,48.4958
45.3310,48.4958
45.1501,48.6225
45.1501,48.6225
45.1501,48.6225
44.9498,48.7159
44.7365,48.7731
44.5793,48.7868
44.5164,48.7923
44.5164,48.7923
44.5164,48.7923
44.4614,48.7875
44.2963,48.7731
44.0829,48.7159
43.8827,48.6225
43.7018,48.4958
43.5456,48.3396
43.4189,48.1587
43.3255,47.9584
43.2683,47.7451
43.2491,47.5250
43.2662,47.3298
22.3164,47.3298
22.3164,47.9277
21.3321,47.9277
21.3365,47.9320
21.3891,48.0233
21.4164,48.1250
21.4164,48.2303
21.3891,48.3320
21.3365,48.4233
21.3321,48.4277
22.3164,48.4277
22.3164,49.0255
22.3100,49.0850
22.3100,49.0850
22.2598,49.2197
22.2598,49.2197
22.1736,49.3348
22.1736,49.3348
22.0585,49.4210
22.0585,49.4210
21.9238,49.4712
21.9238,49.4712
21.8642,49.4776
21.8642,49.4777
21.2664,49.4777
21.2664,48.4933
21.2620,48.4977
21.1708,48.5504
21.0691,48.5777
20.9637,48.5777
20.8620,48.5504
20.7708,48.4977
20.7664,48.4933
20.7664,49.4777
20.1686,49.4777
20.1686,49.4776
20.1090,49.4712
20.1090,49.4712
19.9743,49.4210
19.9743,49.4210
19.8592,49.3348
19.8592,49.3348
19.7730,49.2197
19.7730,49.2197
19.7228,49.0850
19.7228,49.0850
19.7164,49.0255
19.7164,49.0255
19.7164,48.4277
20.7007,48.4277
20.6963,48.4233
20.6437,48.3320
20.6164,48.2303
20.6164,48.1250
20.6437,48.0233
20.6963,47.9320
20.7007,47.9277
19.7164,47.9277
19.7164,47.3298
19.7164,47.3298
19.7228,47.2703
19.7228,47.2703
19.7730,47.1356
19.7730,47.1356
19.8592,47.0205
19.8592,47.0205
19.9743,46.9343
19.9743,46.9343
20.1090,46.8841
20.1090,46.8841
20.1686,46.8777
20.7664,46.8777
20.7664,47.8620
20.7708,47.8576
20.8620,47.8049
20.9637,47.7777
21.0691,47.7777
21.1708,47.8049
21.2620,47.8576
21.2664,47.8620
21.2664,46.8777
21.8642,46.8777
21.9238,46.8841
21.9238,46.8841
22.0585,46.9343
22.0585,46.9343
22.1736,47.0205
22.1736,47.0205
22.2598,47.1356
22.2598,47.1356
22.3100,47.2703
22.3100,47.2703
22.3164,47.3298
43.2662,47.3298
43.2683,47.3049
43.3255,47.0915
43.4189,46.8913
43.5456,46.7104
43.7018,46.5542
43.7018,46.5542
43.7018,46.5542
43.8827,46.4275
43.8827,46.4275
43.8827,46.4275
44.0829,46.3341
44.0830,46.3341
44.0830,46.3341
44.2963,46.2769
44.2963,46.2769
44.5164,46.2577
44.5164,46.2577
44.7365,46.2769
44.7365,46.2769
44.9498,46.3341
44.9499,46.3341
45.1501,46.4275
45.1501,46.4275
45.3310,46.5542
45.4872,46.7104
45.6139,46.8913
45.6139,46.8913
45.7073,47.0915
45.7073,47.0916
45.7645,47.3049
45.7645,47.3049
45.7837,47.5250
61.4164,47.5250
61.3730,47.4671
61.3730,47.4671
61.3228,47.3324
61.3228,47.3324
61.3164,47.2728
61.3164,47.2728
61.3164,46.2750
62.4679,46.2750
62.4573,46.2566
62.4164,46.1040
62.4164,45.9460
62.4573,45.7934
62.4679,45.7750
61.3164,45.7750
61.3164,44.7772
61.3164,44.7772
61.3228,44.7176
61.3228,44.7176
61.3730,44.5829
61.3730,44.5829
61.4592,44.4678
61.4592,44.4678
61.5743,44.3816
61.5743,44.3816
61.7090,44.3314
61.7090,44.3314
61.7686,44.3250
62.7664,44.3250
62.7664,45.4765
62.7848,45.4659
62.9374,45.4250
63.0954,45.4250
63.2480,45.4659
63.2664,45.4765
63.2664,44.3250
64.2642,44.3250
64.3238,44.3314
64.3238,44.3314
64.4585,44.3816
64.4585,44.3816
64.5736,44.4678
64.5736,44.4678
64.6598,44.5829
64.6598,44.5829
64.7100,44.7176
64.7100,44.7176
64.7164,44.7772
87.1669,44.7772
87.2958,44.6993
87.5850,44.5691
87.8878,44.4747
88.1998,44.4175
88.1998,44.4175
88.1998,44.4175
88.5164,44.3984
88.8330,44.4175
89.1450,44.4747
89.4478,44.5691
89.4478,44.5691
89.4478,44.5691
89.7370,44.6993
89.8309,44.7560
90.0085,44.8633
90.0085,44.8633
90.2582,45.0590
90.4824,45.2832
90.6781,45.5329
90.6781,45.5329
90.7656,45.6777
90.8244,45.7750
90.8421,45.8044
90.8422,45.8044
90.9723,46.0936
91.0667,46.3964
91.1239,46.7084
91.1430,47.0250
94.0159,47.0250
94.0159,42.5650
32.9212,42.5650
32.9212,42.5650
32.9020,42.7962
32.8451,43.0211
32.7519,43.2336
32.6676,43.3626
31.9585,42.6536
31.9357,42.7387
31.8765,42.8413
31.7927,42.9251
31.6901,42.9843
31.6050,43.0071
32.3152,43.7174
32.2848,43.7411
32.0807,43.8515
32.0807,43.8515
31.8613,43.9268
31.6324,43.9650
31.4004,43.9650
31.1715,43.9268
30.9521,43.8515
30.9521,43.8515
30.7480,43.7410
30.7176,43.7174
30.7176,43.7173
31.4278,43.0071
31.3427,42.9843
31.2401,42.9251
31.1563,42.8413
31.0971,42.7387
31.0743,42.6536
30.3652,43.3626
30.2809,43.2336
30.1877,43.0211
30.1308,42.7962
30.1116,42.5650
30.1116,42.5650
30.1308,42.3338
30.1877,42.1089
30.2809,41.8964
30.3652,41.7674
31.0743,42.4764
31.0971,42.3913
31.1563,42.2887
31.2401,42.2049
31.3427,42.1457
31.4278,42.1229
30.7668,41.4618
30.7054,41.4283
30.6791,41.4255
30.5685,41.4255
30.5089,41.4191
30.3741,41.3688
30.2589,41.2825
30.1726,41.1673
30.1223,41.0325
30.1159,40.9729
30.1159,39.0771
30.1223,39.0175
30.1233,39.0148
30.1726,38.8827
30.1726,38.8827
30.2589,38.7675
30.2589,38.7675
30.3741,38.6812
30.3741,38.6812
30.4352,38.6584
30.4912,38.6165
30.5156,38.5511
30.5159,38.5422
30.5159,36.2126
30.4962,36.1455
30.4935,36.1415
30.4714,36.1099
30.3858,35.9877
30.2897,35.7815
30.2308,35.5617
30.2109,35.3350
30.2308,35.1083
30.2844,34.9082
30.2897,34.8885
30.2897,34.8885
30.3858,34.6823
30.3858,34.6823
30.5164,34.4959
30.6773,34.3350
30.8637,34.2044
30.8637,34.2044
31.0699,34.1083
31.0699,34.1083
31.2897,34.0494
31.2897,34.0494
31.2897,34.0494
31.2897,34.0494
31.2897,34.0494
31.5164,34.0295
31.5164,34.0295
31.7431,34.0494
31.7431,34.0494
31.9629,34.1083
31.9629,34.1083
32.1691,34.2044
32.1691,34.2044
32.3555,34.3350
32.5164,34.4959
32.6470,34.6823
32.6470,34.6823
32.7431,34.8885
32.7431,34.8885
32.8020,35.1083
32.8020,35.1083
32.8219,35.3350
32.8219,35.3350
32.8020,35.5617
32.8020,35.5617
32.7431,35.7815
32.7431,35.7815
32.6829,35.9108
32.6470,35.9877
32.5705,36.0970
32.5393,36.1415
32.5170,36.2077
32.5169,36.2126
32.5169,38.5422
32.5366,38.6092
32.5894,38.6550
32.5976,38.6584
32.6587,38.6812
32.6587,38.6812
32.7739,38.7675
32.7739,38.7675
32.8602,38.8827
32.8602,38.8827
32.9105,39.0175
32.9132,39.0428
32.9169,39.0771
32.9169,39.0771
32.9169,40.9729
32.9169,40.9729
32.9105,41.0325
32.8602,41.1673
32.8602,41.1673
32.7739,41.2825
32.7739,41.2825
32.6587,41.3688
32.6587,41.3688
32.6138,41.3856
32.5239,41.4191
32.4643,41.4255
32.3537,41.4255
32.2867,41.4452
32.2660,41.4618
31.6050,42.1229
31.6901,42.1457
31.7927,42.2049
31.8765,42.2887
31.9357,42.3913
31.9585,42.4764
32.6676,41.7674
32.7519,41.8964
32.8451,42.1089
32.9020,42.3338
32.9212,42.5650
94.0159,42.5650
94.0159,38.0250
92.5215,38.0250
92.5215,38.0250
92.5010,38.2727
92.5010,38.2727
92.4400,38.5137
92.3401,38.7414
92.2398,38.8949
91.4994,38.1544
91.4823,38.2180
91.4165,38.3320
91.3234,38.4251
91.2094,38.4909
91.1458,38.5080
91.8865,39.2486
91.8396,39.2851
91.8396,39.2851
91.6210,39.4034
91.6210,39.4034
91.3859,39.4841
91.1407,39.5250
90.8921,39.5250
90.6469,39.4841
90.4118,39.4034
90.4118,39.4034
90.1932,39.2851
90.1932,39.2851
90.1463,39.2486
90.8870,38.5080
90.8234,38.4909
90.7094,38.4251
90.6163,38.3320
90.5505,38.2180
90.5334,38.1544
89.7930,38.8949
89.6927,38.7414
89.5928,38.5137
89.5318,38.2727
89.5318,38.2727
89.5113,38.0250
89.5113,38.0250
82.5220,38.0250
82.5220,38.0250
82.5015,38.2728
82.5015,38.2728
82.4405,38.5139
82.3406,38.7416
82.2046,38.9498
82.2046,38.9498
82.0361,39.1327
81.8399,39.2855
81.8399,39.2855
81.6221,39.4034
81.6212,39.4038
81.5068,39.4431
81.3874,39.4841
81.3860,39.4846
81.1407,39.5255
80.8921,39.5255
80.6468,39.4846
80.4116,39.4038
80.1929,39.2855
79.9967,39.1327
79.8282,38.9498
79.7791,38.8745
79.7441,38.8392
79.6886,38.8021
79.5493,38.6628
79.5493,38.6628
79.5391,38.6526
79.5391,38.6526
75.4421,34.5556
75.3808,34.5221
75.3281,34.5221
75.2301,34.5435
74.9798,34.5614
74.9589,34.5629
74.9589,34.5629
74.9589,34.5629
74.9408,34.5616
74.6877,34.5435
74.4221,34.4857
74.1674,34.3907
74.1674,34.3907
74.1674,34.3907
74.0254,34.3132
73.9288,34.2604
73.7112,34.0975
73.5189,33.9052
73.3710,33.7077
73.3151,33.6658
73.2718,33.6580
69.1304,33.6580
69.1110,33.6542
69.0337,33.6388
68.9371,33.6196
68.8837,33.5975
68.7550,33.5441
68.5911,33.4346
68.4518,33.2953
68.4518,33.2953
68.4416,33.2851
68.4416,33.2851
67.3134,32.1570
67.2521,32.1235
67.2160,32.1210
67.0964,32.1304
66.9768,32.1210
66.9084,32.1354
66.8794,32.1570
64.0532,34.9831
64.0197,35.0444
64.0169,35.0708
64.0169,37.0835
64.0366,37.1505
64.0710,37.1859
64.0796,37.1918
64.2664,37.3651
64.2664,37.3651
64.4254,37.5644
64.5528,37.7851
64.6459,38.0224
64.6459,38.0224
64.7026,38.2708
64.7217,38.5250
64.7217,38.5250
64.7026,38.7792
64.6526,38.9982
64.6459,39.0276
64.5528,39.2649
64.4254,39.4856
64.2664,39.6849
64.0796,39.8582
63.8690,40.0018
63.8690,40.0018
63.8690,40.0018
63.8690,40.0018
63.7471,40.0605
63.6394,40.1124
63.6394,40.1124
63.6394,40.1124
63.3959,40.1875
63.1438,40.2255
62.8890,40.2255
62.6369,40.1875
62.3934,40.1124
62.1638,40.0018
61.9532,39.8582
61.7663,39.6849
61.6765,39.5722
61.6193,39.5320
61.5795,39.5255
40.4792,39.5255
40.4122,39.5452
40.3664,39.5980
40.3565,39.6671
40.3800,39.7238
40.4598,39.8304
40.4598,39.8304
40.5100,39.9651
40.5100,39.9651
40.5164,40.0247
40.5164,40.7750
39.5071,40.7750
39.5289,40.8127
39.5664,40.9526
39.5664,41.0974
39.5289,41.2373
39.5071,41.2750
40.5164,41.2750
40.5164,42.0253
40.5100,42.0849
40.5100,42.0849
40.4598,42.2196
40.4598,42.2196
40.3736,42.3347
40.3736,42.3347
40.2585,42.4209
40.2585,42.4209
40.1238,42.4711
40.1238,42.4711
40.0642,42.4775
40.0642,42.4775
39.2664,42.4775
39.2664,41.5157
39.2287,41.5375
39.0888,41.5750
38.9440,41.5750
38.8041,41.5375
38.7664,41.5157
38.7664,42.4775
37.9686,42.4775
37.9686,42.4775
37.9090,42.4711
37.9090,42.4711
37.7743,42.4209
37.7743,42.4209
37.6592,42.3347
37.6592,42.3347
37.5730,42.2196
37.5730,42.2196
37.5228,42.0849
37.5228,42.0849
37.5164,42.0253
37.5164,42.0253
37.5164,41.2750
38.5257,41.2750
38.5039,41.2373
38.4664,41.0974
38.4664,40.9526
38.5039,40.8127
38.5257,40.7750
37.5164,40.7750
37.5164,40.0247
37.5164,40.0247
37.5228,39.9651
37.5228,39.9651
37.5730,39.8304
37.5730,39.8304
37.6592,39.7153
37.6592,39.7153
37.7743,39.6291
37.7743,39.6291
37.8022,39.6187
37.8582,39.5769
37.8826,39.5114
37.8677,39.4431
37.8592,39.4297
37.7262,39.2465
37.6224,39.0428
37.5703,38.8827
37.5517,38.8252
37.5517,38.8252
37.5517,38.8252
37.5159,38.5994
37.5159,38.3706
37.5517,38.1448
37.5517,38.1448
37.5517,38.1447
37.6224,37.9272
37.6948,37.7851
37.7262,37.7235
37.8606,37.5384
38.0223,37.3767
38.1068,37.3153
38.1495,37.2600
38.1555,37.1904
38.1229,37.1286
38.1068,37.1147
38.0223,37.0533
37.8606,36.8916
37.7262,36.7065
37.6224,36.5028
37.5517,36.2852
37.5159,36.0594
37.5159,35.9108
37.4962,35.8437
37.4796,35.8231
33.9083,32.2518
33.8470,32.2183
33.8206,32.2155
31.4179,32.2155
31.3109,32.1942
31.2574,32.1836
31.2246,32.1771
31.1712,32.1550
31.0425,32.1016
30.8786,31.9921
30.7393,31.8528
30.7393,31.8528
30.7322,31.8457
30.7322,31.8457
29.8983,31.0118
29.8370,30.9783
29.8106,30.9755
24.6609,30.9755
24.5939,30.9952
24.5481,31.0480
24.5470,31.0506
24.5396,31.0678
24.4245,31.2379
24.2793,31.3831
24.1092,31.4982
24.0921,31.5056
24.0382,31.5500
24.0169,31.6166
24.0169,31.6195
24.0169,34.1305
24.0366,34.1975
24.0894,34.2432
24.0921,34.2444
24.1092,34.2518
24.2793,34.3669
24.2793,34.3669
24.4245,34.5121
24.4245,34.5121
24.5396,34.6822
24.5396,34.6822
24.6205,34.8710
24.6205,34.8710
24.6641,35.0717
24.6642,35.0717
24.6669,35.1179
24.6669,36.4321
24.6642,36.4783
24.6642,36.4783
24.6641,36.4783
24.6205,36.6790
24.6205,36.6790
24.5551,36.8316
24.5396,36.8678
24.5235,36.8916
24.4245,37.0379
24.4245,37.0379
24.2793,37.1831
24.2793,37.1831
24.1766,37.2526
24.1092,37.2982
24.0855,37.3084
23.9204,37.3791
23.9204,37.3791
23.8535,37.3936
23.7197,37.4228
23.6735,37.4255
22.8322,37.4255
22.7651,37.4452
22.7445,37.4618
22.0532,38.1531
22.0197,38.2144
22.0169,38.2408
22.0169,43.8001
22.0366,43.8671
22.0393,43.8712
22.1470,44.0249
22.2431,44.2312
22.2431,44.2312
22.3020,44.4510
22.3020,44.4510
22.3219,44.6776
22.3219,44.6777
22.3020,44.9043
22.3020,44.9043
22.2431,45.1241
22.2431,45.1241
22.1470,45.3304
22.1470,45.3304
22.0164,45.5168
21.8555,45.6777
21.8326,45.6938
21.6691,45.8082
21.4629,45.9044
21.2431,45.9633
21.0812,45.9775
21.0164,45.9831
21.0164,45.9831
21.0164,45.9831
20.9597,45.9782
20.7897,45.9633
20.5699,45.9044
20.3637,45.8082
20.1773,45.6777
20.0164,45.5168
19.8858,45.3304
19.7897,45.1241
19.7308,44.9043
19.7109,44.6777
19.7308,44.4510
19.7897,44.2312
19.8858,44.0249
19.9935,43.8712
20.0158,43.8050
20.0159,43.8001
20.0159,37.6765
20.0342,37.5847
20.0402,37.5541
20.0543,37.4832
20.0941,37.3872
20.0975,37.3791
20.1298,37.3011
20.1298,37.3011
20.1298,37.3011
20.1708,37.2396
20.2393,37.1372
20.3817,36.9948
20.3817,36.9947
21.3296,36.0469
21.3631,35.9856
21.3659,35.9592
21.3659,35.1179
21.3659,35.1179
21.3686,35.0717
21.4123,34.8710
21.4123,34.8710
21.4932,34.6822
21.4932,34.6822
21.5388,34.6148
21.6083,34.5121
21.6083,34.5121
21.7535,34.3669
21.7535,34.3669
21.9236,34.2518
21.9407,34.2444
21.9946,34.2000
22.0159,34.1334
22.0159,34.1305
22.0159,31.6195
21.9962,31.5525
21.9434,31.5067
21.9408,31.5056
21.9236,31.4982
21.7535,31.3831
21.6083,31.2379
21.5945,31.2175
21.5302,31.1225
21.4932,31.0678
21.4317,30.9243
21.4123,30.8790
21.4123,30.8790
21.4069,30.8540
21.3686,30.6783
21.3659,30.6321
21.3659,29.3179
21.3686,29.2717
21.4078,29.0915
21.4123,29.0710
21.4123,29.0710
21.4932,28.8822
21.4932,28.8822
21.5538,28.7927
21.6083,28.7121
21.6083,28.7121
21.7535,28.5669
21.7535,28.5669
21.9236,28.4518
21.9236,28.4518
21.9236,28.4518
21.9236,28.4518
22.1124,28.3709
22.1124,28.3709
22.3131,28.3272
22.3131,28.3272
22.3131,28.3272
22.3593,28.3245
23.6735,28.3245
23.7197,28.3272
23.7197,28.3272
23.7197,28.3272
23.9204,28.3709
23.9204,28.3709
24.1092,28.4518
24.1092,28.4518
24.2793,28.5669
24.2793,28.5669
24.4245,28.7121
24.4245,28.7121
24.5396,28.8822
24.5396,28.8822
24.5396,28.8822
24.5470,28.8993
24.5914,28.9532
24.6580,28.9745
24.6609,28.9745
30.3749,28.9745
30.4579,28.9910
30.4579,28.9910
30.5682,29.0129
30.5682,29.0130
30.5864,29.0205
30.7503,29.0884
30.7503,29.0884
30.9142,29.1979
30.9839,29.2675
31.0535,29.3372
31.0535,29.3372
31.8945,30.1782
31.9558,30.2117
31.9822,30.2145
34.3849,30.2145
34.4055,30.2186
34.4055,30.2186
34.5782,30.2529
34.5782,30.2529
34.6287,30.2739
34.6287,30.2739
34.7603,30.3284
34.7603,30.3284
34.9242,30.4379
34.9821,30.4958
35.0635,30.5772
35.0635,30.5772
38.9420,34.4557
39.0033,34.4892
39.0297,34.4920
39.1783,34.4920
39.2536,34.5039
39.4041,34.5278
39.4042,34.5278
39.6217,34.5984
39.8254,34.7023
39.9310,34.7790
40.0105,34.8367
40.0105,34.8367
40.0105,34.8367
40.0819,34.9082
40.1433,34.9417
40.1696,34.9445
51.0506,34.9445
51.1177,34.9248
51.1383,34.9082
55.2996,30.7469
55.3331,30.6856
55.3359,30.6592
55.3359,29.5250
45.7837,29.5250
45.7837,29.5250
45.7645,29.7451
45.7645,29.7451
45.7073,29.9584
45.7073,29.9584
45.7073,29.9584
45.6744,30.0289
45.6139,30.1587
45.6139,30.1587
45.4872,30.3396
45.4872,30.3396
45.3310,30.4958
45.3310,30.4958
45.1501,30.6225
45.1501,30.6225
45.1501,30.6225
44.9498,30.7159
44.7365,30.7731
44.5793,30.7868
44.5164,30.7923
44.5164,30.7923
44.5164,30.7923
44.4614,30.7875
44.2963,30.7731
44.0829,30.7159
43.8827,30.6225
43.7018,30.4958
43.5456,30.3396
43.4189,30.1587
43.3255,29.9584
43.2683,29.7451
43.2491,29.5250
43.2683,29.3049
43.3255,29.0915
43.4189,28.8913
43.4880,28.7927
43.5456,28.7104
43.5785,28.6775
43.7018,28.5542
43.7018,28.5542
43.7018,28.5542
43.8827,28.4275
43.8827,28.4275
43.8827,28.4275
44.0829,28.3341
44.0830,28.3341
44.0830,28.3341
44.2963,28.2769
44.2963,28.2769
44.5164,28.2577
44.5164,28.2577
44.7365,28.2769
44.7365,28.2769
44.9498,28.3341
44.9499,28.3341
45.1501,28.4275
45.1501,28.4275
45.3310,28.5542
45.4872,28.7104
45.6139,28.8913
45.6139,28.8913
45.7073,29.0915
45.7073,29.0916
45.7645,29.3049
45.7645,29.3049
45.7837,29.5250
55.3359,29.5250
55.3359,29.3771
55.3359,29.3771
55.3359,29.3771
55.3411,29.3288
55.3423,29.3175
55.3926,29.1827
55.3926,29.1827
55.4789,29.0675
55.4789,29.0675
55.5941,28.9812
55.5941,28.9812
55.7289,28.9309
55.7289,28.9309
55.7885,28.9245
55.7885,28.9245
55.7885,28.9245
55.7885,28.9245
58.0843,28.9245
58.0843,28.9245
58.1439,28.9309
58.2787,28.9812
58.2787,28.9812
58.3939,29.0675
58.3939,29.0675
58.4802,29.1827
58.4802,29.1827
58.5305,29.3175
58.5369,29.3771
58.5369,29.3771
58.5369,29.3771
58.5369,31.6729
58.5369,31.6729
58.5305,31.7325
58.4802,31.8673
58.4802,31.8673
58.3939,31.9825
58.3939,31.9825
58.2787,32.0688
58.2787,32.0688
58.1439,32.1191
58.1439,32.1191
58.1370,32.1198
58.0843,32.1255
56.8022,32.1255
56.7351,32.1452
56.7145,32.1618
52.1542,36.7221
52.1542,36.7221
51.9903,36.8316
51.9903,36.8316
51.9903,36.8316
51.8082,36.9071
51.6149,36.9455
51.6149,36.9455
51.6149,36.9455
51.4117,36.9455
51.4117,36.9455
40.1696,36.9455
40.1026,36.9652
40.0819,36.9818
40.0105,37.0533
39.9459,37.1002
39.9260,37.1147
39.8833,37.1700
39.8773,37.2396
39.9099,37.3014
39.9260,37.3153
40.0105,37.3767
40.0105,37.3767
40.1219,37.4882
40.1833,37.5217
40.2096,37.5245
61.5795,37.5245
61.6466,37.5048
61.6765,37.4778
61.7663,37.3651
61.9532,37.1918
61.9532,37.1918
61.9618,37.1859
62.0061,37.1319
62.0159,37.0835
62.0159,34.5065
62.0543,34.3132
62.0543,34.3132
62.0543,34.3132
62.0828,34.2444
62.1298,34.1311
62.1298,34.1311
62.2393,33.9672
62.3012,33.9052
62.3786,33.8279
62.3786,33.8279
65.4644,30.7420
65.4979,30.6807
65.5004,30.6446
65.4910,30.5250
65.5107,30.2739
65.5695,30.0289
65.6659,29.7961
65.6659,29.7961
65.7976,29.5813
65.7976,29.5813
65.8780,29.4871
65.9612,29.3898
66.0994,29.2717
66.1527,29.2262
66.1527,29.2262
66.3675,29.0945
66.6003,28.9981
66.8452,28.9393
67.0964,28.9196
67.3476,28.9393
67.5925,28.9981
67.8253,29.0945
68.0401,29.2262
68.0401,29.2262
68.2316,29.3898
68.3952,29.5813
68.3952,29.5813
68.5269,29.7961
68.6233,30.0289
68.6821,30.2738
68.7018,30.5250
68.6924,30.6446
68.7068,30.7130
68.7284,30.7420
69.6070,31.6207
69.6683,31.6542
69.6947,31.6570
73.2718,31.6570
73.3388,31.6373
73.3710,31.6073
73.5189,31.4098
73.5189,31.4098
73.5189,31.4097
73.7111,31.2175
73.7112,31.2175
73.7112,31.2175
73.9288,31.0546
73.9288,31.0546
73.9288,31.0546
74.1674,30.9243
74.1674,30.9243
74.2170,30.9058
74.4221,30.8293
74.4221,30.8293
74.4221,30.8293
74.6877,30.7715
74.6877,30.7715
74.9589,30.7521
74.9589,30.7521
75.2301,30.7715
75.2301,30.7715
75.4957,30.8293
75.4957,30.8293
75.4957,30.8293
75.6231,30.8768
75.7504,30.9243
75.9890,31.0546
75.9890,31.0546
76.2066,31.2175
76.2067,31.2175
76.3989,31.4097
76.3989,31.4098
76.5618,31.6274
76.5618,31.6274
76.6921,31.8660
76.7355,31.9825
76.7871,32.1207
76.7871,32.1207
76.7871,32.1207
76.8449,32.3863
76.8449,32.3863
76.8643,32.6575
76.8643,32.6575
76.8449,32.9287
76.8449,32.9287
76.8235,33.0267
76.8285,33.0964
76.8570,33.1407
80.3203,36.6040
80.3816,36.6375
80.4483,36.6336
80.6468,36.5654
80.8921,36.5245
81.1407,36.5245
81.3860,36.5654
81.6212,36.6462
81.6212,36.6462
81.8399,36.7645
82.0361,36.9173
82.2046,37.1002
82.3406,37.3084
82.4405,37.5361
82.5015,37.7772
82.5015,37.7772
82.5220,38.0250
89.5113,38.0250
89.5318,37.7773
89.5318,37.7773
89.5928,37.5363
89.6927,37.3086
89.7930,37.1551
90.5334,37.8956
90.5505,37.8320
90.6163,37.7180
90.7094,37.6249
90.8234,37.5591
90.8870,37.5420
90.1463,36.8014
90.1463,36.8014
90.1932,36.7649
90.4118,36.6466
90.4118,36.6466
90.6469,36.5659
90.8921,36.5250
91.1407,36.5250
91.3859,36.5659
91.6210,36.6466
91.6210,36.6466
91.8396,36.7649
91.8865,36.8014
91.8865,36.8014
91.1458,37.5420
91.2094,37.5591
91.3234,37.6249
91.4165,37.7180
91.4823,37.8320
91.4994,37.8956
92.2398,37.1551
92.3401,37.3086
92.4400,37.5363
92.5010,37.7773
92.5010,37.7773
92.5215,38.0250
94.0159,38.0250
94.0159,28.9871
90.9969,28.9871
90.9969,31.0629
90.9969,31.0629
90.9905,31.1225
90.9402,31.2573
90.9402,31.2573
90.8539,31.3725
90.8539,31.3725
90.7387,31.4588
90.7387,31.4588
90.6039,31.5091
90.6039,31.5091
90.5970,31.5098
90.5443,31.5155
86.4885,31.5155
86.4289,31.5091
86.2941,31.4588
86.1789,31.3725
86.0926,31.2573
86.0423,31.1225
86.0423,31.1225
86.0420,31.1210
86.0414,31.1199
86.0396,31.1152
86.0388,31.1155
86.0074,31.0603
85.9455,31.0279
85.9213,31.0255
77.3079,31.0255
77.2885,31.0217
77.2112,31.0063
77.1146,30.9871
77.0468,30.9590
76.9325,30.9116
76.7686,30.8021
76.6293,30.6628
76.6293,30.6628
76.6191,30.6526
76.6191,30.6526
75.4421,29.4756
75.3808,29.4421
75.3281,29.4421
75.2301,29.4635
74.9798,29.4814
74.9589,29.4829
74.9589,29.4829
74.9589,29.4829
74.9408,29.4816
74.6877,29.4635
74.4221,29.4057
74.1674,29.3107
74.1674,29.3107
74.1674,29.3107
74.0126,29.2262
73.9288,29.1804
73.7112,29.0175
73.5189,28.8252
73.3560,28.6076
73.2576,28.4275
73.2257,28.3690
73.2257,28.3690
73.2257,28.3690
73.1307,28.1143
73.0729,27.8487
73.0634,27.7150
32.8219,27.7150
32.8219,27.7150
32.8020,27.9417
32.8020,27.9417
32.7431,28.1615
32.7431,28.1615
32.6470,28.3677
32.6470,28.3677
32.5164,28.5541
32.3555,28.7150
32.3555,28.7150
32.1691,28.8456
31.9629,28.9417
31.7431,29.0006
31.5812,29.0148
31.5164,29.0205
31.5164,29.0205
31.5164,29.0205
31.4518,29.0148
31.2897,29.0006
31.0699,28.9417
30.8637,28.8456
30.6773,28.7150
30.5164,28.5541
30.3858,28.3677
30.2897,28.1615
30.2308,27.9417
30.2109,27.7150
30.2308,27.4883
30.2897,27.2685
30.3858,27.0623
30.5164,26.8759
30.5164,26.8759
30.6773,26.7150
30.8637,26.5844
30.8637,26.5844
31.0699,26.4883
31.0699,26.4883
31.2897,26.4294
31.2897,26.4294
31.2897,26.4294
31.2897,26.4294
31.2897,26.4294
31.5164,26.4095
31.5164,26.4095
31.7431,26.4294
31.7431,26.4294
31.9629,26.4883
31.9629,26.4883
32.1691,26.5844
32.1691,26.5844
32.3555,26.7150
32.5164,26.8759
32.6470,27.0623
32.6470,27.0623
32.7431,27.2685
32.7431,27.2685
32.8020,27.4883
32.8020,27.4883
32.8219,27.7150
73.0634,27.7150
73.0535,27.5775
73.0729,27.3063
73.1307,27.0407
73.2257,26.7860
73.2257,26.7860
73.2257,26.7860
73.3560,26.5474
73.3560,26.5474
73.3560,26.5474
73.5189,26.3298
73.5189,26.3298
73.5189,26.3297
73.7111,26.1375
73.7112,26.1375
73.7112,26.1375
73.9288,25.9746
73.9288,25.9746
73.9288,25.9746
74.1674,25.8443
74.1674,25.8443
74.2411,25.8168
74.4221,25.7493
74.4221,25.7493
74.4221,25.7493
74.6877,25.6915
74.6877,25.6915
74.9589,25.6721
74.9589,25.6721
75.2301,25.6915
75.2301,25.6915
75.4957,25.7493
75.4957,25.7493
75.4957,25.7493
75.6231,25.7968
75.7504,25.8443
75.9890,25.9746
75.9890,25.9746
76.2066,26.1375
76.2067,26.1375
76.3989,26.3297
76.3989,26.3298
76.5618,26.5474
76.5618,26.5474
76.6921,26.7860
76.7396,26.9133
76.7871,27.0407
76.7871,27.0407
76.7871,27.0407
76.8449,27.3063
76.8449,27.3063
76.8643,27.5775
76.8643,27.5775
76.8449,27.8487
76.8449,27.8487
76.8235,27.9467
76.8285,28.0164
76.8570,28.0607
77.7845,28.9882
77.8458,29.0217
77.8722,29.0245
85.9213,29.0245
85.9883,29.0048
86.0341,28.9520
86.0420,28.9290
86.0423,28.9275
86.0423,28.9275
86.0926,28.7927
86.0926,28.7927
86.0926,28.7927
86.1789,28.6775
86.1789,28.6775
86.2941,28.5912
86.2941,28.5912
86.4289,28.5409
86.4289,28.5409
86.4885,28.5345
86.4885,28.5345
86.4885,28.5345
86.4885,28.5345
90.5443,28.5345
90.5443,28.5345
90.6039,28.5409
90.7387,28.5912
90.7387,28.5912
90.8539,28.6775
90.8539,28.6775
90.9402,28.7927
90.9402,28.7927
90.9905,28.9275
90.9969,28.9871
90.9969,28.9871
94.0159,28.9871
94.0159,24.7750
90.9754,24.7750
89.1272,24.7750
89.1510,24.8325
89.1764,24.9600
89.1764,25.0900
89.1510,25.2175
89.1272,25.2750
90.9754,25.2750
90.9597,25.3739
90.9597,25.3739
90.8872,25.5970
90.7808,25.8059
90.6429,25.9957
90.4771,26.1615
90.2873,26.2994
90.0784,26.4058
89.8553,26.4783
89.6237,26.5150
88.7664,26.5150
88.7664,25.6358
88.7089,25.6596
88.5814,25.6850
88.4514,25.6850
88.3239,25.6596
88.2664,25.6358
88.2664,26.5150
87.4091,26.5150
87.1775,26.4783
86.9544,26.4058
86.7455,26.2994
86.5557,26.1615
86.3899,25.9957
86.2520,25.8059
86.1456,25.5970
86.0731,25.3739
86.0731,25.3739
86.0574,25.2750
87.9056,25.2750
87.8818,25.2175
87.8564,25.0900
87.8564,24.9600
87.8818,24.8325
87.9056,24.7750
86.0574,24.7750
86.0731,24.6761
86.0731,24.6761
86.1456,24.4530
86.2520,24.2441
86.3899,24.0543
86.5557,23.8885
86.7455,23.7506
86.9544,23.6442
87.1775,23.5717
87.4091,23.5350
88.2664,23.5350
88.2664,24.4142
88.3239,24.3904
88.4514,24.3650
88.5814,24.3650
88.7089,24.3904
88.7664,24.4142
88.7664,23.5350
89.6237,23.5350
89.8553,23.5717
90.0784,23.6442
90.2873,23.7506
90.4771,23.8885
90.6429,24.0543
90.7808,24.2441
90.8872,24.4530
90.9597,24.6761
90.9597,24.6761
90.9754,24.7750
94.0159,24.7750
94.0159,19.9077
90.9969,19.9077
90.9969,20.1423
90.9602,20.3740
90.8877,20.5971
90.7812,20.8062
90.6433,20.9960
90.6433,20.9960
90.4774,21.1619
90.4774,21.1619
90.3565,21.2498
90.2876,21.2998
90.0786,21.4063
90.0786,21.4063
89.9670,21.4426
89.8554,21.4788
89.6237,21.5155
88.4922,21.5155
88.4251,21.5352
88.4045,21.5518
86.8242,23.1322
86.8241,23.1322
86.6817,23.2746
86.6817,23.2746
86.5178,23.3841
86.5178,23.3841
86.3891,23.4375
86.3462,23.4552
86.3357,23.4596
86.2391,23.4788
86.1908,23.4884
86.1424,23.4980
86.1424,23.4980
86.1424,23.4980
85.9454,23.4980
76.6460,23.4980
76.5790,23.5177
76.5468,23.5477
76.3989,23.7452
76.3989,23.7452
76.3989,23.7453
76.2067,23.9375
76.2066,23.9375
76.2066,23.9375
75.9890,24.1004
75.9890,24.1004
75.9890,24.1004
75.7504,24.2307
75.7504,24.2307
75.7504,24.2307
75.7504,24.2307
75.4957,24.3257
75.2301,24.3835
74.9783,24.4015
74.9589,24.4029
74.9589,24.4029
74.9589,24.4029
74.9408,24.4016
74.6877,24.3835
74.4221,24.3257
74.1674,24.2307
74.1674,24.2307
74.1674,24.2307
74.0481,24.1655
73.9288,24.1004
73.7112,23.9375
73.5189,23.7452
73.3560,23.5276
73.2777,23.3841
73.2257,23.2890
73.2257,23.2890
73.2257,23.2890
73.1307,23.0343
73.0729,22.7687
73.0535,22.4975
73.0537,22.4958
73.0561,22.4613
73.0729,22.2263
73.1307,21.9607
73.2257,21.7060
73.2257,21.7060
73.2257,21.7060
73.3560,21.4674
73.3560,21.4674
73.3560,21.4674
73.5189,21.2498
73.5189,21.2498
73.5189,21.2497
73.7111,21.0575
73.7112,21.0575
73.7112,21.0575
73.9288,20.8946
73.9288,20.8946
73.9288,20.8946
74.1674,20.7643
74.1674,20.7643
74.2170,20.7458
74.4221,20.6693
74.4221,20.6693
74.4221,20.6693
74.6877,20.6115
74.6877,20.6115
74.9589,20.5921
74.9589,20.5921
75.2301,20.6115
75.2301,20.6115
75.4957,20.6693
75.4957,20.6693
75.4957,20.6693
75.6058,20.7104
75.7504,20.7643
75.9890,20.8946
75.9890,20.8946
76.2066,21.0575
76.2067,21.0575
76.3989,21.2497
76.3989,21.2498
76.5468,21.4473
76.6027,21.4892
76.6460,21.4970
85.5781,21.4970
85.6452,21.4773
85.6658,21.4607
86.2111,20.9154
86.2446,20.8541
86.2396,20.7844
86.2339,20.7714
86.1451,20.5972
86.0726,20.3740
86.0359,20.1423
86.0359,19.9077
86.0726,19.6760
86.1451,19.4528
86.2516,19.2438
86.2692,19.2196
86.3895,19.0540
86.3895,19.0540
86.5554,18.8881
86.5554,18.8881
86.7452,18.7502
86.7452,18.7502
86.7452,18.7502
86.8497,18.6970
86.9543,18.6437
87.1774,18.5712
87.3416,18.5452
87.4091,18.5345
89.6237,18.5345
89.6912,18.5452
89.8554,18.5712
90.0786,18.6437
90.2876,18.7502
90.4774,18.8881
90.4774,18.8881
90.6433,19.0540
90.6433,19.0540
90.7812,19.2438
90.8877,19.4528
90.9602,19.6760
90.9969,19.9077
94.0159,19.9077
94.0159,11.5250
92.5215,11.5250
92.5215,11.5250
92.5010,11.7727
92.5010,11.7727
92.4400,12.0137
92.3401,12.2414
92.2398,12.3949
91.4994,11.6544
91.4823,11.7180
91.4165,11.8320
91.3234,11.9251
91.2094,11.9909
91.1458,12.0080
91.8865,12.7486
91.8396,12.7851
91.8396,12.7851
91.6210,12.9034
91.6210,12.9034
91.3859,12.9841
91.1407,13.0250
90.8921,13.0250
90.6469,12.9841
90.4118,12.9034
90.4118,12.9034
90.1932,12.7851
90.1932,12.7851
90.1463,12.7486
90.8870,12.0080
90.8234,11.9909
90.7094,11.9251
90.6163,11.8320
90.5505,11.7180
90.5334,11.6544
89.7930,12.3949
89.6927,12.2414
89.5928,12.0137
89.5318,11.7727
89.5318,11.7727
89.5113,11.5250
89.5113,11.5250
82.5220,11.5250
82.5220,11.5250
82.5015,11.7728
82.5015,11.7728
82.4405,12.0139
82.3406,12.2416
82.2046,12.4498
82.2046,12.4498
82.0361,12.6327
81.8399,12.7855
81.8399,12.7855
81.6221,12.9034
81.6212,12.9038
81.4983,12.9460
81.3874,12.9841
81.3860,12.9846
81.1407,13.0255
80.8921,13.0255
80.8921,13.0255
80.8468,13.0180
80.7775,13.0263
80.7387,13.0526
76.8957,16.8956
76.8622,16.9569
76.8594,16.9833
76.8594,18.8654
76.8594,18.8654
76.8530,18.9250
76.8027,19.0598
76.8027,19.0598
76.7164,19.1750
76.7164,19.1750
76.6012,19.2613
76.6012,19.2613
76.4664,19.3116
76.4664,19.3116
76.4595,19.3123
76.4068,19.3180
73.5110,19.3180
73.4514,19.3116
73.3166,19.2613
73.2014,19.1750
73.1151,19.0598
73.0648,18.9250
73.0584,18.8654
73.0584,18.6495
73.0387,18.5825
72.9859,18.5367
72.9344,18.5255
64.4822,18.5255
64.4151,18.5452
64.3945,18.5618
62.7532,20.2031
62.7197,20.2644
62.7169,20.2908
62.7169,21.7729
62.7169,21.7729
62.7105,21.8325
62.6602,21.9673
62.6602,21.9673
62.5739,22.0825
62.5739,22.0825
62.4587,22.1688
62.4587,22.1688
62.3239,22.2191
62.3239,22.2191
62.3170,22.2198
62.2643,22.2255
59.7685,22.2255
59.7089,22.2191
59.5741,22.1688
59.4589,22.0825
59.3726,21.9673
59.3223,21.8325
59.3159,21.7729
59.3159,21.5250
45.7837,21.5250
45.7837,21.5250
45.7645,21.7451
45.7645,21.7451
45.7073,21.9584
45.7073,21.9584
45.7073,21.9584
45.6655,22.0481
45.6139,22.1587
45.6139,22.1587
45.4872,22.3396
45.4872,22.3396
45.3310,22.4958
45.3310,22.4958
45.1501,22.6225
45.1501,22.6225
45.1501,22.6225
44.9498,22.7159
44.7365,22.7731
44.5793,22.7868
44.5164,22.7923
44.5164,22.7923
44.5164,22.7923
44.4614,22.7875
44.2963,22.7731
44.0829,22.7159
43.8827,22.6225
43.7018,22.4958
43.5456,22.3396
43.4189,22.1587
43.3255,21.9584
43.2683,21.7451
43.2491,21.5250
43.2515,21.4970
43.2563,21.4425
43.2683,21.3049
43.3255,21.0915
43.4189,20.8913
43.5456,20.7104
43.7018,20.5542
43.7018,20.5542
43.7018,20.5542
43.8827,20.4275
43.8827,20.4275
43.9973,20.3740
44.0829,20.3341
44.0830,20.3341
44.0830,20.3341
44.2963,20.2769
44.2963,20.2769
44.5164,20.2577
44.5164,20.2577
44.7365,20.2769
44.7365,20.2769
44.9498,20.3341
44.9499,20.3341
45.1501,20.4275
45.1501,20.4275
45.3310,20.5542
45.4872,20.7104
45.6139,20.8913
45.6139,20.8913
45.7073,21.0915
45.7073,21.0916
45.7645,21.3049
45.7645,21.3049
45.7837,21.5250
59.3159,21.5250
59.3159,20.2908
59.2962,20.2237
59.2796,20.2031
55.7183,16.6418
55.6570,16.6083
55.6306,16.6055
41.1188,16.6055
41.0517,16.6252
41.0060,16.6780
41.0026,16.6862
40.9602,16.7998
40.9602,16.7998
40.8739,16.9150
40.8739,16.9150
40.7587,17.0013
40.7587,17.0013
40.6239,17.0516
40.6239,17.0516
40.6170,17.0523
40.5643,17.0580
38.4685,17.0580
38.4089,17.0516
38.2741,17.0013
38.1589,16.9150
38.0726,16.7998
38.0223,16.6650
38.0159,16.6054
38.0159,14.6046
38.0223,14.5450
38.0298,14.5250
38.0726,14.4102
38.0726,14.4102
38.1589,14.2950
38.1589,14.2950
38.2741,14.2087
38.2741,14.2087
38.3024,14.1981
38.3584,14.1563
38.3828,14.0908
38.3679,14.0225
38.3594,14.0091
38.2266,13.8263
38.1228,13.6226
38.0522,13.4051
38.0379,13.3150
39.0257,13.3150
39.0039,13.2773
38.9664,13.1374
38.9664,12.9926
39.0039,12.8527
39.0257,12.8150
38.0379,12.8150
38.0522,12.7249
38.1228,12.5074
38.2266,12.3037
38.3610,12.1188
38.5227,11.9571
38.6073,11.8956
38.6499,11.8403
38.6559,11.7707
38.6233,11.7089
38.6073,11.6950
38.5223,11.6333
38.3606,11.4716
38.2262,11.2865
38.1224,11.0828
38.1035,11.0248
38.0517,10.8652
38.0517,10.8652
38.0517,10.8652
38.0159,10.6394
38.0159,10.4908
37.9962,10.4237
37.9796,10.4031
36.6383,9.0618
36.5770,9.0283
36.5506,9.0255
34.7040,9.0255
34.6369,9.0452
34.6329,9.0479
34.4791,9.1556
34.2729,9.2517
34.0531,9.3106
33.8912,9.3248
33.8264,9.3305
33.8264,9.3305
33.8264,9.3305
33.7697,9.3255
33.5997,9.3106
33.3799,9.2517
33.1737,9.1556
32.9873,9.0250
32.8264,8.8641
32.6958,8.6777
32.5997,8.4715
32.5408,8.2517
32.5354,8.1899
32.5099,8.1248
32.4995,8.1130
31.6483,7.2618
31.5870,7.2283
31.5606,7.2255
27.4632,7.2255
27.3961,7.2452
27.3504,7.2980
27.3404,7.3671
27.3508,7.4019
27.4277,7.5669
27.4331,7.5785
27.4331,7.5785
27.4920,7.7983
27.4974,7.8601
27.5229,7.9252
27.5333,7.9370
29.3162,9.7199
29.8892,10.2929
29.8892,10.2929
29.9589,10.3625
30.0285,10.4322
30.1380,10.5961
30.1380,10.5961
30.1914,10.7248
30.2135,10.7782
30.2135,10.7782
30.2327,10.8748
30.2519,10.9715
30.2519,13.2724
30.2716,13.3394
30.3244,13.3852
30.3935,13.3951
30.4571,13.3661
30.4752,13.3467
30.5342,13.2678
30.6493,13.1816
30.6493,13.1816
30.7840,13.1314
30.7840,13.1314
30.8436,13.1250
31.5414,13.1250
31.5414,14.1497
31.6177,14.1057
31.7322,14.0750
31.8506,14.0750
31.9651,14.1057
32.0414,14.1497
32.0414,13.1250
32.7392,13.1250
32.7988,13.1314
32.7988,13.1314
32.9335,13.1816
32.9335,13.1816
33.0486,13.2678
33.0486,13.2678
33.1348,13.3829
33.1348,13.3829
33.1850,13.5176
33.1850,13.5176
33.1914,13.5772
33.1914,14.2750
32.1667,14.2750
32.2107,14.3513
32.2414,14.4658
32.2414,14.5842
32.2107,14.6987
32.1667,14.7750
33.1914,14.7750
33.1914,15.4728
33.1850,15.5324
33.1850,15.5324
33.1348,15.6671
33.1348,15.6671
33.0486,15.7822
33.0486,15.7822
32.9335,15.8683
32.9335,15.8684
32.7988,15.9186
32.7988,15.9186
32.7392,15.9250
32.7392,15.9250
32.0414,15.9250
32.0414,14.9003
31.9651,14.9443
31.8506,14.9750
31.7322,14.9750
31.6177,14.9443
31.5414,14.9003
31.5414,15.9250
30.8436,15.9250
30.8436,15.9250
30.7840,15.9186
30.7840,15.9186
30.6493,15.8684
30.6493,15.8683
30.5342,15.7822
30.5342,15.7822
30.4480,15.6671
30.4480,15.6671
30.4193,15.5901
30.3775,15.5341
30.3120,15.5097
30.2437,15.5246
30.2119,15.5494
30.2032,15.5589
30.2032,15.5589
30.2032,15.5589
30.0200,15.7015
30.0200,15.7015
30.0200,15.7015
29.8159,15.8119
29.7019,15.8511
29.5964,15.8873
29.5964,15.8873
29.5964,15.8873
29.3674,15.9255
29.3674,15.9255
29.1354,15.9255
29.1354,15.9255
28.9064,15.8873
28.6869,15.8119
28.4828,15.7015
28.2996,15.5589
28.1424,15.3882
28.0685,15.2750
24.6720,15.2750
24.6516,15.5340
24.5910,15.7866
24.4916,16.0266
24.4916,16.0266
24.4916,16.0266
24.3558,16.2481
24.1871,16.4457
24.0604,16.5539
24.0222,16.6124
24.0169,16.6482
24.0169,19.7018
24.0366,19.7688
24.0604,19.7961
24.1871,19.9043
24.3558,20.1019
24.4916,20.3234
24.5910,20.5634
24.6516,20.8160
24.6720,21.0750
24.6516,21.3340
24.5910,21.5866
24.4916,21.8266
24.3558,22.0481
24.2036,22.2263
24.1871,22.2457
24.0604,22.3539
24.0222,22.4124
24.0169,22.4482
24.0169,25.6235
24.0169,25.6235
24.0169,25.6235
23.9785,25.8168
23.9784,25.8168
23.9030,25.9989
23.9030,25.9989
23.7935,26.1628
23.7935,26.1628
23.7935,26.1628
23.6542,26.3021
23.6542,26.3021
23.6471,26.3092
23.6471,26.3092
23.6471,26.3092
10.3217,39.6346
10.2882,39.6959
10.2932,39.7656
10.2989,39.7786
10.3877,39.9528
10.4602,40.1760
10.4969,40.4077
10.4969,40.6423
10.4602,40.8740
10.3877,41.0971
10.3344,41.2017
10.2932,41.2825
10.2812,41.3062
10.1433,41.4960
10.1433,41.4960
9.9774,41.6619
9.9774,41.6619
9.8118,41.7822
9.7876,41.7998
9.5980,41.8964
9.5786,41.9063
9.4670,41.9425
9.3554,41.9788
9.1237,42.0155
9.1237,42.0155
6.9091,42.0155
6.9091,42.0155
6.6774,41.9788
6.4542,41.9063
6.2452,41.7998
6.0554,41.6619
5.8895,41.4960
5.7516,41.3062
5.6451,41.0972
5.5726,40.8740
5.5359,40.6423
5.5359,40.4077
5.5726,40.1760
5.6292,40.0018
5.6451,39.9528
5.6933,39.8582
5.7516,39.7438
5.7805,39.7040
5.8895,39.5540
5.8895,39.5540
6.0554,39.3881
6.0554,39.3881
6.2452,39.2502
6.2452,39.2502
6.2452,39.2502
6.3497,39.1970
6.4543,39.1437
6.6774,39.0712
6.7932,39.0528
6.9091,39.0345
6.9091,39.0345
8.0406,39.0345
8.1077,39.0148
8.1283,38.9982
11.8515,35.2750
10.4754,35.2750
8.6272,35.2750
8.6510,35.3325
8.6764,35.4600
8.6764,35.5900
8.6510,35.7175
8.6272,35.7750
10.4754,35.7750
10.4597,35.8739
10.4597,35.8739
10.3872,36.0970
10.2808,36.3059
10.1429,36.4957
9.9771,36.6615
9.7873,36.7994
9.5784,36.9058
9.3553,36.9783
9.1237,37.0150
8.2664,37.0150
8.2664,36.1358
8.2089,36.1596
8.0814,36.1850
7.9514,36.1850
7.8239,36.1596
7.7664,36.1358
7.7664,37.0150
6.9091,37.0150
6.6775,36.9783
6.4544,36.9058
6.2455,36.7994
6.0557,36.6615
5.8899,36.4957
5.7520,36.3059
5.6456,36.0970
5.5731,35.8739
5.5731,35.8739
5.5574,35.7750
7.4056,35.7750
7.3818,35.7175
7.3564,35.5900
7.3564,35.4600
7.3818,35.3325
7.4056,35.2750
5.5574,35.2750
5.5731,35.1761
5.5731,35.1761
5.6456,34.9530
5.7520,34.7441
5.8899,34.5543
6.0557,34.3885
6.2455,34.2506
6.4544,34.1442
6.6775,34.0717
6.9091,34.0350
7.7664,34.0350
7.7664,34.9142
7.8239,34.8904
7.9514,34.8650
8.0814,34.8650
8.2089,34.8904
8.2664,34.9142
8.2664,34.0350
9.1237,34.0350
9.3553,34.0717
9.5784,34.1442
9.7873,34.2506
9.9771,34.3885
10.1429,34.5543
10.2808,34.7441
10.3872,34.9530
10.4597,35.1761
10.4597,35.1761
10.4754,35.2750
11.8515,35.2750
21.9796,25.1469
22.0131,25.0856
22.0159,25.0592
22.0159,22.4482
21.9962,22.3812
21.9724,22.3539
21.8457,22.2457
21.6770,22.0481
21.5412,21.8266
21.4418,21.5866
21.3812,21.3340
21.3608,21.0750
21.3812,20.8160
21.4418,20.5634
21.5368,20.3341
21.5412,20.3234
21.5612,20.2908
21.6770,20.1019
21.8457,19.9043
21.9724,19.7961
22.0106,19.7376
22.0159,19.7018
22.0159,19.0750
10.6720,19.0750
10.6516,19.3340
10.5910,19.5866
10.4916,19.8266
10.3558,20.0481
10.1924,20.2394
10.1871,20.2457
10.0604,20.3539
10.0222,20.4124
10.0169,20.4482
10.0169,22.9018
10.0366,22.9688
10.0604,22.9961
10.1871,23.1043
10.3558,23.3019
10.4916,23.5234
10.5910,23.7634
10.6516,24.0160
10.6720,24.2750
10.6516,24.5340
10.5910,24.7866
10.4916,25.0266
10.4916,25.0266
10.4916,25.0266
10.3558,25.2481
10.1871,25.4457
9.9895,25.6144
9.7680,25.7502
9.7680,25.7502
9.7680,25.7502
9.7067,25.7756
9.5280,25.8496
9.2754,25.9102
9.1312,25.9216
9.0659,25.9465
9.0244,26.0027
9.0169,26.0452
9.0169,28.9105
9.0366,28.9775
9.0894,29.0233
9.1409,29.0345
10.0443,29.0345
10.0443,29.0345
10.1039,29.0409
10.2387,29.0912
10.2387,29.0912
10.3539,29.1775
10.3539,29.1775
10.4402,29.2927
10.4402,29.2927
10.4905,29.4275
10.4964,29.4829
10.4969,29.4871
10.4969,29.4871
10.4969,31.5629
10.4969,31.5629
10.4905,31.6225
10.4402,31.7573
10.4402,31.7573
10.3539,31.8725
10.3539,31.8725
10.2387,31.9588
10.2387,31.9588
10.1039,32.0091
10.1039,32.0091
10.0970,32.0098
10.0443,32.0155
5.9885,32.0155
5.9289,32.0091
5.7941,31.9588
5.6789,31.8725
5.5926,31.7573
5.5423,31.6225
5.5359,31.5629
5.5359,29.4871
5.5423,29.4275
5.5505,29.4057
5.5926,29.2927
5.5926,29.2927
5.6789,29.1775
5.6789,29.1775
5.7941,29.0912
5.7941,29.0912
5.9289,29.0409
5.9289,29.0409
5.9885,29.0345
5.9885,29.0345
5.9885,29.0345
5.9885,29.0345
6.8919,29.0345
6.9589,29.0148
7.0047,28.9620
7.0159,28.9105
7.0159,25.3797
7.0159,25.3797
7.0159,25.1765
7.0159,25.1765
7.0543,24.9832
7.0543,24.9832
7.1298,24.8011
7.1298,24.8011
7.1298,24.8011
7.2393,24.6372
7.2722,24.6043
7.3379,24.5385
7.3714,24.4772
7.3739,24.4411
7.3608,24.2750
7.3812,24.0160
7.4418,23.7634
7.5212,23.5717
7.5412,23.5234
7.5686,23.4788
7.6770,23.3019
7.8457,23.1043
7.9724,22.9961
8.0106,22.9376
8.0159,22.9018
8.0159,20.4482
7.9962,20.3812
7.9724,20.3539
7.8457,20.2457
7.6770,20.0481
7.5412,19.8266
7.4418,19.5866
7.3812,19.3340
7.3608,19.0750
7.3812,18.8160
7.4418,18.5634
7.5412,18.3234
7.6770,18.1019
7.8457,17.9043
8.0433,17.7356
8.2648,17.5998
8.2648,17.5998
8.2648,17.5998
8.4308,17.5311
8.5048,17.5004
8.5048,17.5004
8.6425,17.4674
8.7574,17.4398
8.7574,17.4398
8.7574,17.4398
9.0164,17.4194
9.2754,17.4398
9.5280,17.5004
9.7680,17.5998
9.9895,17.7356
10.1871,17.9043
10.3558,18.1019
10.4916,18.3234
10.5910,18.5634
10.6516,18.8160
10.6720,19.0750
22.0159,19.0750
22.0159,16.6482
21.9962,16.5812
21.9724,16.5539
21.8457,16.4457
21.6770,16.2481
21.5412,16.0266
21.4418,15.7866
21.3812,15.5340
21.3608,15.2750
21.3812,15.0160
21.4418,14.7634
21.5323,14.5450
21.5412,14.5234
21.5547,14.5014
21.6770,14.3019
21.8457,14.1043
22.0433,13.9356
22.2648,13.7998
22.2648,13.7998
22.2648,13.7998
22.4308,13.7311
22.5048,13.7004
22.5048,13.7004
22.6655,13.6618
22.7574,13.6398
22.7574,13.6398
22.7574,13.6398
23.0164,13.6194
23.2754,13.6398
23.5280,13.7004
23.7680,13.7998
23.9895,13.9356
24.1871,14.1043
24.3558,14.3019
24.4916,14.5234
24.5910,14.7634
24.6516,15.0160
24.6720,15.2750
28.0685,15.2750
28.0155,15.1938
27.9222,14.9813
27.8653,14.7563
27.8627,14.7250
27.8461,14.5250
27.8461,14.5250
27.8653,14.2937
27.8653,14.2937
27.9222,14.0687
28.0155,13.8562
28.1424,13.6618
28.1424,13.6618
28.2181,13.5796
28.2491,13.5169
28.2509,13.4956
28.2509,11.5358
28.2312,11.4687
28.2146,11.4481
27.1696,10.4031
27.1388,10.3723
18.8214,10.3723
18.8214,10.3724
18.8015,10.5989
18.8015,10.5990
18.7427,10.8187
18.7427,10.8187
18.6465,11.0248
18.5954,11.0978
17.9164,10.4188
17.9164,10.4250
17.8891,10.5267
17.8365,10.6180
17.7620,10.6924
17.6708,10.7451
17.5691,10.7723
17.5628,10.7723
18.2419,11.4514
18.1689,11.5025
18.1689,11.5025
17.9627,11.5986
17.9627,11.5986
17.7430,11.6575
17.7430,11.6575
17.5164,11.6773
17.5164,11.6773
17.2898,11.6575
17.2898,11.6575
17.0701,11.5986
17.0701,11.5986
16.8639,11.5025
16.7909,11.4514
17.4700,10.7723
17.4637,10.7723
17.3620,10.7451
17.2708,10.6924
17.1963,10.6180
17.1437,10.5267
17.1164,10.4250
17.1164,10.4188
16.4374,11.0978
16.3863,11.0248
16.2901,10.8187
16.2901,10.8187
16.2313,10.5990
16.2313,10.5989
16.2114,10.3724
16.2114,10.3723
16.2313,10.1457
16.2313,10.1457
16.2901,9.9260
16.2901,9.9260
16.3863,9.7199
16.3863,9.7199
16.4374,9.6469
17.1164,10.3259
17.1164,10.3197
17.1437,10.2180
17.1963,10.1267
17.2708,10.0523
17.3620,9.9996
17.4637,9.9723
17.4700,9.9723
16.7909,9.2933
16.8639,9.2422
17.0701,9.1461
17.0701,9.1461
17.2898,9.0872
17.2898,9.0872
17.5164,9.0674
17.5164,9.0674
17.7430,9.0872
17.7430,9.0872
17.9627,9.1461
17.9627,9.1461
18.1689,9.2422
18.1689,9.2422
18.2419,9.2933
18.2419,9.2933
17.5628,9.9723
17.5691,9.9723
17.6708,9.9996
17.7620,10.0523
17.8365,10.1267
17.8891,10.2180
17.9164,10.3197
17.9164,10.3259
18.5954,9.6469
18.5954,9.6469
18.6465,9.7199
18.6465,9.7199
18.7427,9.9260
18.7427,9.9260
18.8015,10.1457
18.8015,10.1457
18.8214,10.3723
27.1388,10.3723
26.1184,9.3519
26.0570,9.3184
26.0415,9.3160
25.9797,9.3106
25.7599,9.2517
25.5537,9.1556
25.3673,9.0250
25.2064,8.8641
25.0758,8.6777
24.9797,8.4715
24.9208,8.2517
24.9009,8.0250
24.9208,7.7983
24.9774,7.5871
24.9797,7.5785
24.9797,7.5785
24.9797,7.5785
25.0620,7.4019
25.0725,7.3328
25.0440,7.2690
24.9855,7.2308
24.9496,7.2255
18.9409,7.2255
18.8739,7.2452
18.8281,7.2980
18.8169,7.3495
18.8169,7.7202
18.8105,7.7798
18.7602,7.9147
18.7602,7.9147
18.6739,8.0299
18.6739,8.0299
18.5587,8.1161
18.5587,8.1161
18.4239,8.1664
18.4239,8.1664
18.4170,8.1672
18.3643,8.1728
16.6685,8.1728
16.6089,8.1664
16.4741,8.1161
16.3589,8.0299
16.2785,7.9225
16.2226,7.8807
16.1792,7.8728
12.0152,7.8728
11.9865,7.8671
11.9146,7.8528
11.8219,7.8344
11.7348,7.7983
11.6398,7.7590
11.4760,7.6495
11.3366,7.5101
11.3366,7.5101
11.3295,7.5031
11.3295,7.5031
10.2286,6.4021
10.1673,6.3686
10.0976,6.3736
10.0416,6.4155
10.0172,6.4809
10.0169,6.4898
10.0169,7.3305
10.0366,7.3975
10.0894,7.4432
10.0921,7.4444
10.1092,7.4518
10.2793,7.5669
10.2793,7.5669
10.4245,7.7121
10.4245,7.7121
10.5396,7.8822
10.5396,7.8822
10.6205,8.0710
10.6205,8.0710
10.6598,8.2517
10.6642,8.2717
10.6669,8.3179
10.6669,9.6321
10.6642,9.6783
10.6642,9.6783
10.6641,9.6783
10.6205,9.8790
10.6205,9.8790
10.5404,10.0659
10.5396,10.0678
10.5396,10.0678
10.4245,10.2379
10.4245,10.2379
10.2793,10.3831
10.2793,10.3831
10.2067,10.4322
10.1092,10.4982
10.1092,10.4982
9.9204,10.5791
9.9204,10.5791
9.8535,10.5936
9.7197,10.6228
9.6735,10.6255
9.6735,10.6255
8.3593,10.6255
8.3593,10.6255
8.3131,10.6228
8.1374,10.5845
8.1124,10.5791
8.1124,10.5791
7.9902,10.5267
7.9236,10.4982
7.7535,10.3831
7.6083,10.2379
7.4932,10.0678
7.4123,9.8790
7.3686,9.6783
7.3659,9.6321
7.3659,8.3179
7.3686,8.2717
7.4025,8.1161
7.4123,8.0710
7.4123,8.0710
7.4932,7.8822
7.4932,7.8822
7.5388,7.8148
7.6083,7.7121
7.6083,7.7121
7.7535,7.5669
7.7535,7.5669
7.9236,7.4518
7.9407,7.4444
7.9946,7.4000
8.0159,7.3334
8.0159,7.3305
8.0159,5.4195
7.9962,5.3525
7.9434,5.3067
7.9408,5.3056
7.9236,5.2982
7.7535,5.1831
7.6083,5.0379
7.4932,4.8678
7.4227,4.7033
7.4123,4.6790
7.4123,4.6790
7.3960,4.6040
7.3686,4.4783
7.3659,4.4321
7.3659,3.1179
7.3686,3.0717
7.4123,2.8710
7.4123,2.8710
7.4932,2.6822
7.4932,2.6822
7.5600,2.5835
7.6083,2.5121
7.6083,2.5121
7.7535,2.3669
7.7535,2.3669
7.9236,2.2518
7.9236,2.2518
7.9236,2.2518
7.9236,2.2518
8.1124,2.1709
8.1124,2.1709
8.3131,2.1273
8.3131,2.1272
8.3131,2.1272
8.3593,2.1245
9.6735,2.1245
9.7197,2.1272
9.7197,2.1272
9.7197,2.1273
9.9204,2.1709
9.9204,2.1709
10.1092,2.2518
10.1092,2.2518
10.2793,2.3669
10.2793,2.3669
10.4245,2.5121
10.4245,2.5121
10.5396,2.6822
10.5396,2.6822
10.6205,2.8710
10.6205,2.8710
10.6625,3.0639
10.6642,3.0717
10.6669,3.1179
10.6669,3.1179
10.6669,3.9592
10.6866,4.0263
10.7032,4.0469
12.4918,5.8355
12.5532,5.8690
12.5795,5.8718
16.1792,5.8718
16.2463,5.8522
16.2785,5.8222
16.3589,5.7148
16.4275,5.6634
16.4741,5.6286
16.4741,5.6286
16.6089,5.5783
16.6089,5.5783
16.6685,5.5718
16.6685,5.5718
16.6685,5.5718
16.6685,5.5718
17.3506,5.5718
17.4177,5.5522
17.4383,5.5355
17.5260,5.4479
17.5260,5.4479
17.5260,5.4479
17.6898,5.3384
17.6898,5.3384
17.7624,5.3083
17.8186,5.2850
17.8719,5.2629
17.8719,5.2629
17.8719,5.2629
17.9686,5.2437
18.0652,5.2245
18.0652,5.2245
31.9279,5.2245
32.1249,5.2245
32.1249,5.2245
32.3182,5.2629
32.3182,5.2629
32.3182,5.2629
32.3182,5.2629
32.3849,5.2906
32.3937,5.2942
32.5003,5.3384
32.5003,5.3384
32.6266,5.4228
32.6266,5.4228
32.6642,5.4479
33.9144,6.6981
33.9758,6.7316
33.9913,6.7340
34.0531,6.7394
34.2729,6.7983
34.2729,6.7983
34.4791,6.8944
34.4791,6.8944
34.5818,6.9663
34.6266,6.9977
34.6329,7.0021
34.6991,7.0244
34.7040,7.0245
37.1149,7.0245
37.2116,7.0437
37.3082,7.0629
37.3082,7.0629
37.3616,7.0850
37.3616,7.0850
37.4071,7.1039
37.4903,7.1384
37.4903,7.1384
37.6542,7.2479
37.7043,7.2980
37.7935,7.3872
37.7935,7.3872
39.4420,9.0357
39.5033,9.0692
39.5297,9.0720
39.6783,9.0720
39.7234,9.0792
39.9041,9.1078
39.9183,9.1124
39.9882,9.1144
40.0443,9.0821
41.2349,7.8916
41.2349,7.8915
41.3786,7.7479
41.3786,7.7479
41.5425,7.6384
41.5425,7.6384
41.6151,7.6083
41.6712,7.5850
41.7246,7.5629
41.7246,7.5629
41.7246,7.5629
41.8212,7.5437
41.9179,7.5245
41.9179,7.5245
57.0506,7.5245
57.1177,7.5048
57.1383,7.4882
60.2322,4.3943
60.2322,4.3943
60.2322,4.3943
60.2393,4.3872
60.2393,4.3872
60.3786,4.2479
60.3786,4.2479
60.3786,4.2479
60.5425,4.1384
60.5425,4.1384
60.6834,4.0800
60.7246,4.0629
60.7246,4.0629
60.8212,4.0437
60.9179,4.0245
60.9179,4.0245
63.1289,4.0245
63.1960,4.0048
63.2232,3.9810
63.3012,3.8898
63.3858,3.8175
63.4927,3.7262
63.4927,3.7262
63.7075,3.5945
63.8754,3.5250
45.7837,3.5250
45.7837,3.5250
45.7645,3.7451
45.7645,3.7451
45.7073,3.9584
45.7073,3.9584
45.7073,3.9585
45.6546,4.0714
45.6139,4.1587
45.6139,4.1587
45.4872,4.3396
45.4872,4.3396
45.3310,4.4958
45.3310,4.4958
45.1501,4.6225
45.1501,4.6225
45.1501,4.6225
44.9498,4.7159
44.7365,4.7731
44.5793,4.7868
44.5164,4.7923
44.5164,4.7923
44.5164,4.7923
44.4614,4.7875
44.2963,4.7731
44.0829,4.7159
43.8827,4.6225
43.7018,4.4958
43.5456,4.3396
43.4189,4.1587
43.3255,3.9585
43.2683,3.7451
43.2491,3.5250
43.2499,3.5161
43.2683,3.3049
43.2683,3.3049
43.3255,3.0915
43.4189,2.8913
43.5456,2.7104
43.7018,2.5542
43.7018,2.5542
43.7018,2.5542
43.8827,2.4275
43.8827,2.4275
43.8827,2.4275
44.0829,2.3341
44.0830,2.3341
44.0830,2.3341
44.2963,2.2769
44.2963,2.2769
44.5164,2.2577
44.5164,2.2577
44.7365,2.2769
44.7365,2.2769
44.9498,2.3341
44.9499,2.3341
45.1501,2.4275
45.1501,2.4275
45.3310,2.5542
45.4872,2.7104
45.6139,2.8913
45.6139,2.8913
45.7073,3.0915
45.7073,3.0916
45.7645,3.3049
45.7645,3.3049
45.7837,3.5250
63.8754,3.5250
63.9403,3.4981
64.1852,3.4393
64.4364,3.4196
64.6876,3.4393
64.9325,3.4981
65.1653,3.5945
65.3801,3.7262
65.3801,3.7262
65.5716,3.8898
65.7352,4.0813
65.7352,4.0813
65.8669,4.2961
65.9633,4.5289
66.0221,4.7738
66.0418,5.0250
66.0221,5.2762
65.9633,5.5211
65.8669,5.7539
65.7352,5.9687
65.7352,5.9687
65.6983,6.0119
65.5716,6.1602
65.4528,6.2617
65.3801,6.3238
65.3801,6.3238
65.1653,6.4555
65.0344,6.5096
64.9325,6.5519
64.6875,6.6107
64.4364,6.6304
64.1853,6.6107
63.9403,6.5519
63.7075,6.4555
63.4927,6.3238
63.3012,6.1602
63.2232,6.0690
63.1647,6.0308
63.1289,6.0255
61.4822,6.0255
61.4151,6.0452
61.3945,6.0618
58.2935,9.1628
58.2935,9.1628
58.1542,9.3021
57.9903,9.4116
57.8837,9.4558
57.8082,9.4871
57.6149,9.5255
57.6149,9.5255
57.6149,9.5255
57.4179,9.5255
42.4822,9.5255
42.4151,9.5452
42.3945,9.5618
40.9493,11.0071
40.9190,11.0564
40.9104,11.0828
40.8114,11.2772
40.8066,11.2865
40.6722,11.4716
40.5105,11.6333
40.4255,11.6950
40.3829,11.7503
40.3769,11.8199
40.4095,11.8817
40.4255,11.8956
40.5101,11.9571
40.6718,12.1188
40.8062,12.3037
40.9100,12.5074
40.9806,12.7249
40.9949,12.8150
40.0071,12.8150
40.0289,12.8527
40.0664,12.9926
40.0664,13.1374
40.0289,13.2773
40.0071,13.3150
40.9949,13.3150
40.9806,13.4051
40.9100,13.6226
40.8062,13.8263
40.6734,14.0091
40.6499,14.0749
40.6657,14.1429
40.7158,14.1916
40.7304,14.1981
40.7587,14.2087
40.7587,14.2087
40.8739,14.2950
40.8739,14.2950
40.9602,14.4102
40.9602,14.4102
41.0026,14.5238
41.0445,14.5798
41.1099,14.6042
41.1188,14.6045
56.1949,14.6045
56.2659,14.6186
56.2659,14.6186
56.3882,14.6429
56.3882,14.6429
56.4416,14.6650
56.4416,14.6650
56.4871,14.6839
56.5703,14.7184
56.5703,14.7184
56.5703,14.7184
56.6377,14.7634
56.6377,14.7634
56.7342,14.8279
56.7342,14.8279
60.6945,18.7882
60.7558,18.8217
60.7822,18.8245
61.2506,18.8245
61.3177,18.8048
61.3383,18.7882
63.2322,16.8943
63.2322,16.8943
63.2322,16.8943
63.2393,16.8872
63.2393,16.8872
63.3786,16.7479
63.3786,16.7479
63.3786,16.7479
63.5425,16.6384
63.5425,16.6384
63.6257,16.6039
63.6712,16.5850
63.6979,16.5740
63.7246,16.5629
63.7246,16.5629
63.8603,16.5359
63.9179,16.5245
63.9179,16.5245
72.9344,16.5245
73.0014,16.5048
73.0472,16.4520
73.0584,16.4005
73.0584,15.9696
73.0584,15.9696
73.0632,15.9250
73.0648,15.9100
73.0733,15.8873
73.1151,15.7752
73.1151,15.7752
73.2014,15.6600
73.2014,15.6600
73.3166,15.5737
73.3166,15.5737
73.4514,15.5234
73.4514,15.5234
73.5110,15.5170
73.5110,15.5170
73.5110,15.5170
73.5110,15.5170
75.3931,15.5170
75.4602,15.4973
75.4808,15.4807
77.4445,13.5169
77.9365,13.0250
62.7212,13.0250
62.7212,13.0250
62.7021,13.2791
62.6454,13.5275
62.6454,13.5275
62.5523,13.7647
62.5523,13.7647
62.4249,13.9853
62.4249,13.9853
62.3829,14.0380
62.3829,14.0380
61.5810,13.2361
61.5755,13.2566
61.4965,13.3934
61.3848,13.5051
61.2480,13.5841
61.2275,13.5896
62.0296,14.3917
61.8688,14.5014
61.8688,14.5014
61.6392,14.6119
61.6392,14.6119
61.3957,14.6870
61.3957,14.6870
61.1438,14.7250
61.1438,14.7250
60.8890,14.7250
60.8890,14.7250
60.6371,14.6870
60.6371,14.6870
60.3936,14.6119
60.1640,14.5014
60.1640,14.5014
60.0032,14.3917
60.8053,13.5896
60.7848,13.5841
60.6480,13.5051
60.5363,13.3934
60.4573,13.2566
60.4518,13.2361
59.6499,14.0380
59.6499,14.0380
59.6079,13.9853
59.4805,13.7647
59.3874,13.5275
59.3874,13.5275
59.3307,13.2791
59.3116,13.0250
59.3116,13.0250
59.3307,12.7709
59.3874,12.5225
59.3874,12.5225
59.4805,12.2853
59.4805,12.2853
59.6079,12.0647
59.6499,12.0120
60.4518,12.8139
60.4573,12.7934
60.5363,12.6566
60.6480,12.5449
60.7848,12.4659
60.8053,12.4604
60.0032,11.6583
60.1640,11.5486
60.1640,11.5486
60.3936,11.4381
60.3936,11.4381
60.6371,11.3630
60.6371,11.3630
60.8890,11.3250
61.1438,11.3250
61.3957,11.3630
61.3957,11.3630
61.6392,11.4381
61.8688,11.5486
61.8688,11.5486
62.0296,11.6583
61.2275,12.4604
61.2480,12.4659
61.3848,12.5449
61.4965,12.6566
61.5755,12.7934
61.5810,12.8139
62.3829,12.0120
62.4249,12.0647
62.5523,12.2853
62.6454,12.5225
62.6454,12.5225
62.7021,12.7709
62.7212,13.0250
77.9365,13.0250
79.4313,11.5302
79.4648,11.4689
79.4598,11.3992
79.4313,11.3548
74.7383,6.6618
74.6770,6.6283
74.6506,6.6255
73.4485,6.6255
73.4485,6.6255
73.3889,6.6191
73.2541,6.5688
73.1389,6.4825
73.0526,6.3673
73.0023,6.2325
72.9959,6.1729
72.9959,3.8771
73.0023,3.8175
73.0051,3.8099
73.0526,3.6827
73.0526,3.6827
73.1389,3.5675
73.1389,3.5675
73.2541,3.4812
73.2541,3.4812
73.3889,3.4309
73.3889,3.4309
73.4485,3.4245
73.4485,3.4245
73.4485,3.4245
73.4485,3.4245
75.7443,3.4245
75.7443,3.4245
75.8039,3.4309
75.9387,3.4812
75.9387,3.4812
76.0539,3.5675
76.0539,3.5675
76.1402,3.6827
76.1402,3.6827
76.1905,3.8175
76.1969,3.8771
76.1969,3.8771
76.1969,3.8771
76.1969,5.2392
76.2166,5.3063
76.2332,5.3269
80.8945,9.9882
80.9558,10.0217
80.9822,10.0245
81.1407,10.0245
81.3860,10.0654
81.6212,10.1462
81.6212,10.1462
81.8399,10.2645
82.0361,10.4173
82.2046,10.6002
82.3406,10.8084
82.4405,11.0361
82.5015,11.2772
82.5015,11.2772
82.5220,11.5250
89.5113,11.5250
89.5318,11.2773
89.5318,11.2773
89.5928,11.0363
89.6927,10.8086
89.7930,10.6551
90.5334,11.3956
90.5505,11.3320
90.6163,11.2180
90.7094,11.1249
90.8234,11.0591
90.8870,11.0420
90.1463,10.3014
90.1463,10.3014
90.1932,10.2649
90.4118,10.1466
90.4118,10.1466
90.6469,10.0659
90.8921,10.0250
91.1407,10.0250
91.3859,10.0659
91.6210,10.1466
91.6210,10.1466
91.8396,10.2649
91.8865,10.3014
91.8865,10.3014
91.1458,11.0420
91.2094,11.0591
91.3234,11.1249
91.4165,11.2180
91.4823,11.3320
91.4994,11.3956
92.2398,10.6551
92.3401,10.8086
92.4400,11.0363
92.5010,11.2773
92.5010,11.2773
92.5215,11.5250
94.0159,11.5250
94.0159,5.0250
91.0835,5.0250
91.0835,5.0250
91.0633,5.3467
91.0633,5.3467
91.0494,5.4195
91.0095,5.6286
91.0029,5.6634
90.9032,5.9700
90.9032,5.9700
90.7660,6.2617
90.7660,6.2617
90.5932,6.5339
90.5932,6.5339
90.5932,6.5339
90.3877,6.7823
90.1787,6.9786
90.1527,7.0030
90.1527,7.0030
89.8919,7.1925
89.8919,7.1925
89.8919,7.1925
89.6094,7.3478
89.6094,7.3478
89.6094,7.3478
89.6094,7.3478
89.3097,7.4665
89.3097,7.4665
89.0837,7.5245
88.9974,7.5466
88.9303,7.5551
88.6776,7.5871
88.6776,7.5871
88.6776,7.5871
88.6776,7.5871
88.3552,7.5871
88.3552,7.5871
88.3552,7.5871
88.3552,7.5871
88.1643,7.5629
88.0354,7.5466
87.7231,7.4665
87.7231,7.4665
87.4234,7.3478
87.4234,7.3478
87.4234,7.3478
87.4234,7.3478
87.1409,7.1925
86.8801,7.0030
86.6451,6.7823
86.4396,6.5339
86.2668,6.2617
86.1296,5.9700
86.0299,5.6634
85.9695,5.3467
85.9683,5.3269
85.9493,5.0250
85.9493,5.0250
85.9695,4.7033
85.9695,4.7033
85.9695,4.7033
86.0299,4.3866
86.1296,4.0800
86.2668,3.7883
86.3647,3.6341
86.4396,3.5161
86.4396,3.5161
86.6451,3.2677
86.8801,3.0470
86.8801,3.0470
86.8801,3.0470
87.1409,2.8575
87.1409,2.8575
87.1409,2.8575
87.4234,2.7022
87.4234,2.7022
87.4234,2.7022
87.4234,2.7022
87.7231,2.5835
87.7231,2.5835
88.0354,2.5034
88.0354,2.5033
88.3552,2.4629
88.3552,2.4629
88.6776,2.4629
88.6776,2.4629
88.9974,2.5033
88.9974,2.5034
89.3097,2.5835
89.3097,2.5835
89.6094,2.7022
89.6094,2.7022
89.8919,2.8575
89.8919,2.8575
90.1527,3.0470
90.1527,3.0470
90.2541,3.1422
90.3877,3.2677
90.4186,3.3049
90.5932,3.5161
90.7660,3.7883
90.7660,3.7883
90.9032,4.0800
90.9032,4.0800
91.0029,4.3866
91.0029,4.3866
91.0029,4.3866
91.0043,4.3943
91.0633,4.7033
91.0633,4.7033
91.0835,5.0250
94.0159,5.0250
94.0159,0.6495
93.9962,0.5825
93.9434,0.5367
93.8919,0.5255
0.6409,0.5255
Z" /> 
</g>
<g style="fill:#FFFFFF; fill-opacity:1.0000; stroke:none;">
<circle cx="74.5964" cy="5.0250" r="0.5500" /> 
</g>
<g style="fill:#FFFFFF; fill-opacity:1.0000; stroke:none;">
<circle cx="64.4364" cy="5.0250" r="0.5500" /> 
</g>
<g style="fill:#FFFFFF; fill-opacity:1.0000; stroke:none;">
<circle cx="31.5164" cy="35.3350" r="0.4000" /> 
</g>
<g style="fill:#FFFFFF; fill-opacity:1.0000; stroke:none;">
<circle cx="31.5164" cy="27.7150" r="0.4000" /> 
</g>
<g style="fill:#FFFFFF; fill-opacity:1.0000; stroke:none;">
<circle cx="39.5164" cy="15.6050" r="0.5500" /> 
</g>
<g style="fill:#FFFFFF; fill-opacity:1.0000; stroke:none;">
<circle cx="39.5164" cy="13.0650" r="0.5500" /> 
</g>
<g style="fill:#FFFFFF; fill-opacity:1.0000; stroke:none;">
<circle cx="39.5164" cy="10.5250" r="0.5500" /> 
</g>
<g style="fill:#FFFFFF; fill-opacity:1.0000; stroke:none;">
<circle cx="31.5164" cy="40.0250" r="0.4500" /> 
</g>
<g style="fill:#FFFFFF; fill-opacity:1.0000; stroke:none;">
<circle cx="31.5164" cy="42.5650" r="0.4500" /> 
</g>
<g style="fill:#FFFFFF; fill-opacity:1.0000; stroke:none;">
<circle cx="74.9589" cy="17.4175" r="0.7000" /> 
</g>
<g style="fill:#FFFFFF; fill-opacity:1.0000; stroke:none;">
<circle cx="74.9589" cy="22.4975" r="0.7000" /> 
</g>
<g style="fill:#FFFFFF; fill-opacity:1.0000; stroke:none;">
<circle cx="74.9589" cy="27.5775" r="0.7000" /> 
</g>
<g style="fill:#FFFFFF; fill-opacity:1.0000; stroke:none;">
<circle cx="74.9589" cy="32.6575" r="0.7000" /> 
</g>
<g style="fill:#FFFFFF; fill-opacity:1.0000; stroke:none;">
<circle cx="63.0164" cy="46.0250" r="0.6000" /> 
</g>
<g style="fill:#FFFFFF; fill-opacity:1.0000; stroke:none;">
<circle cx="63.0164" cy="38.5250" r="0.6000" /> 
</g>
<g style="fill:#FFFFFF; fill-opacity:1.0000; stroke:none;">
<circle cx="44.5164" cy="21.5250" r="0.3810" /> 
</g>
<g style="fill:#FFFFFF; fill-opacity:1.0000; stroke:none;">
<circle cx="44.5164" cy="3.5250" r="0.3810" /> 
</g>
<g style="fill:#FFFFFF; fill-opacity:1.0000; stroke:none;">
<circle cx="31.7914" cy="14.5250" r="0.4500" /> 
</g>
<g style="fill:#FFFFFF; fill-opacity:1.0000; stroke:none;">
<circle cx="29.2514" cy="14.5250" r="0.4500" /> 
</g>
<g style="fill:#FFFFFF; fill-opacity:1.0000; stroke:none;">
<circle cx="39.0164" cy="41.0250" r="0.5500" /> 
</g>
<g style="fill:#FFFFFF; fill-opacity:1.0000; stroke:none;">
<circle cx="39.0164" cy="38.4850" r="0.5500" /> 
</g>
<g style="fill:#FFFFFF; fill-opacity:1.0000; stroke:none;">
<circle cx="39.0164" cy="35.9450" r="0.5500" /> 
</g>
<g style="fill:#FFFFFF; fill-opacity:1.0000; stroke:none;">
<circle cx="23.0164" cy="35.7750" r="0.6500" /> 
</g>
<g style="fill:#FFFFFF; fill-opacity:1.0000; stroke:none;">
<circle cx="23.0164" cy="29.9750" r="0.6500" /> 
</g>
<g style="fill:#FFFFFF; fill-opacity:1.0000; stroke:none;">
<circle cx="23.0164" cy="21.0750" r="0.6500" /> 
</g>
<g style="fill:#FFFFFF; fill-opacity:1.0000; stroke:none;">
<circle cx="23.0164" cy="15.2750" r="0.6500" /> 
</g>
<g style="fill:#FFFFFF; fill-opacity:1.0000; stroke:none;">
<circle cx="21.0164" cy="48.1777" r="0.4000" /> 
</g>
<g style="fill:#FFFFFF; fill-opacity:1.0000; stroke:none;">
<circle cx="21.0164" cy="44.6777" r="0.4000" /> 
</g>
<g style="fill:#FFFFFF; fill-opacity:1.0000; stroke:none;">
<circle cx="88.5164" cy="30.0250" r="0.6600" /> 
</g>
<g style="fill:#FFFFFF; fill-opacity:1.0000; stroke:none;">
<circle cx="88.5164" cy="25.0250" r="0.6600" /> 
</g>
<g style="fill:#FFFFFF; fill-opacity:1.0000; stroke:none;">
<circle cx="88.5164" cy="20.0250" r="0.6600" /> 
</g>
<g style="fill:#FFFFFF; fill-opacity:1.0000; stroke:none;">
<circle cx="81.0164" cy="11.5250" r="0.5000" /> 
</g>
<g style="fill:#FFFFFF; fill-opacity:1.0000; stroke:none;">
<circle cx="91.0164" cy="11.5250" r="0.5000" /> 
</g>
<g style="fill:#FFFFFF; fill-opacity:1.0000; stroke:none;">
<circle cx="91.0164" cy="38.0250" r="0.5000" /> 
</g>
<g style="fill:#FFFFFF; fill-opacity:1.0000; stroke:none;">
<circle cx="81.0164" cy="38.0250" r="0.5000" /> 
</g>
<g style="fill:#FFFFFF; fill-opacity:1.0000; stroke:none;">
<circle cx="61.0164" cy="20.5250" r="0.6000" /> 
</g>
<g style="fill:#FFFFFF; fill-opacity:1.0000; stroke:none;">
<circle cx="61.0164" cy="13.0250" r="0.6000" /> 
</g>
<g style="fill:#FFFFFF; fill-opacity:1.0000; stroke:none;">
<circle cx="56.9364" cy="30.5250" r="0.5500" /> 
</g>
<g style="fill:#FFFFFF; fill-opacity:1.0000; stroke:none;">
<circle cx="67.0964" cy="30.5250" r="0.5500" /> 
</g>
<g style="fill:#FFFFFF; fill-opacity:1.0000; stroke:none;">
<circle cx="8.0164" cy="30.5250" r="0.6600" /> 
</g>
<g style="fill:#FFFFFF; fill-opacity:1.0000; stroke:none;">
<circle cx="8.0164" cy="35.5250" r="0.6600" /> 
</g>
<g style="fill:#FFFFFF; fill-opacity:1.0000; stroke:none;">
<circle cx="8.0164" cy="40.5250" r="0.6600" /> 
</g>
<g style="fill:#FFFFFF; fill-opacity:1.0000; stroke:none;">
<circle cx="44.5164" cy="47.5250" r="0.3810" /> 
</g>
<g style="fill:#FFFFFF; fill-opacity:1.0000; stroke:none;">
<circle cx="44.5164" cy="29.5250" r="0.3810" /> 
</g>
<g style="fill:#FFFFFF; fill-opacity:1.0000; stroke:none;">
<circle cx="9.0164" cy="3.7750" r="0.6500" /> 
</g>
<g style="fill:#FFFFFF; fill-opacity:1.0000; stroke:none;">
<circle cx="9.0164" cy="8.9750" r="0.6500" /> 
</g>
<g style="fill:#FFFFFF; fill-opacity:1.0000; stroke:none;">
<circle cx="9.0164" cy="19.0750" r="0.6500" /> 
</g>
<g style="fill:#FFFFFF; fill-opacity:1.0000; stroke:none;">
<circle cx="9.0164" cy="24.2750" r="0.6500" /> 
</g>
<g style="fill:#FFFFFF; fill-opacity:1.0000; stroke:none;">
<circle cx="17.5164" cy="6.8723" r="0.4000" /> 
</g>
<g style="fill:#FFFFFF; fill-opacity:1.0000; stroke:none;">
<circle cx="17.5164" cy="10.3723" r="0.4000" /> 
</g>
<g style="fill:#FFFFFF; fill-opacity:1.0000; stroke:none;">
<circle cx="33.8264" cy="8.0250" r="0.4000" /> 
</g>
<g style="fill:#FFFFFF; fill-opacity:1.0000; stroke:none;">
<circle cx="26.2064" cy="8.0250" r="0.4000" /> 
</g> 
</svg>
