<?xml version="1.0" standalone="no"?>
 <!DOCTYPE svg PUBLIC "-//W3C//DTD SVG 1.1//EN" 
 "http://www.w3.org/Graphics/SVG/1.1/DTD/svg11.dtd"> 
<svg
  xmlns:svg="http://www.w3.org/2000/svg"
  xmlns="http://www.w3.org/2000/svg"
  xmlns:xlink="http://www.w3.org/1999/xlink"
  version="1.1"
  width="110.8710mm" height="51.8668mm" viewBox="0.0000 0.0000 110.8710 51.8668">
<title>SVG Image created as Блок питания усилителя-F_Cu.svg date 2024/07/18 16:05:15 </title>
  <desc>Image generated by PCBNEW </desc>
<g style="fill:#000000; fill-opacity:1.0000;stroke:#000000; stroke-opacity:1.0000;
stroke-linecap:round; stroke-linejoin:round;"
 transform="translate(0 0) scale(1 1)">
</g>
<g style="fill:#000000; fill-opacity:1.0000; stroke:none;">
<circle cx="53.3460" cy="31.3483" r="0.7620" /> 
</g>
<g style="fill:#000000; fill-opacity:1.0000; stroke:none;">
<circle cx="53.3460" cy="49.3483" r="0.7620" /> 
</g>
<g style="fill:#000000; fill-opacity:1.0000; stroke:none;">
<circle cx="59.3460" cy="10.8483" r="0.7620" /> 
</g>
<g style="fill:#000000; fill-opacity:1.0000; stroke:none;">
<circle cx="41.3460" cy="10.8483" r="0.7620" /> 
</g>
<g style="fill:none; 
stroke:#000000; stroke-width:1.9050; stroke-opacity:1; 
stroke-linecap:round; stroke-linejoin:round;">
<path d="M47.3460 14.3007
L47.3460 14.3957
" />
<path d="M49.8860 14.3007
L49.8860 14.3957
" />
<path style="fill:#000000; fill-opacity:1.0000; stroke:none;fill-rule:evenodd;"
d="M 53.3785,15.3483
53.3785,13.3483
51.4735,13.3483
51.4735,15.3483
Z" /> 
<path style="fill:#000000; fill-opacity:1.0000; stroke:none;fill-rule:evenodd;"
d="M 57.8460,36.8957
55.8460,36.8957
55.8460,38.8008
57.8460,38.8008
Z" /> 
</g>
<g style="fill:none; 
stroke:#000000; stroke-width:1.9050; stroke-opacity:1; 
stroke-linecap:round; stroke-linejoin:round;">
<path d="M56.7985 40.3882
L56.8935 40.3882
" />
<path d="M56.7985 42.9282
L56.8935 42.9282
" />
</g>
<g style="fill:#000000; fill-opacity:1.0000; stroke:none;">
<circle cx="27.1560" cy="36.3483" r="0.8000" /> 
<circle cx="19.5360" cy="36.3483" r="0.8000" /> 
</g>
<g style="fill:#000000; fill-opacity:1.0000; stroke:none;">
<circle cx="25.8460" cy="17.5382" r="0.8000" /> 
<circle cx="25.8460" cy="25.1582" r="0.8000" /> 
</g>
<g style="fill:none; 
stroke:#000000; stroke-width:1.9800; stroke-opacity:1; 
stroke-linecap:round; stroke-linejoin:round;">
<path d="M7.8560 28.3483
L9.8360 28.3483
" />
<path d="M7.8560 23.3483
L9.8360 23.3483
" />
<path style="fill:#000000; fill-opacity:1.0000; stroke:none;fill-rule:evenodd;"
d="M 10.8260,17.3582
6.8660,17.3582
6.8660,19.3382
10.8260,19.3382
Z" /> 
</g>
<g style="fill:none; 
stroke:#000000; stroke-width:1.9800; stroke-opacity:1; 
stroke-linecap:round; stroke-linejoin:round;">
<path d="M105.3260 22.8382
L103.3460 22.8382
" />
<path d="M105.3260 27.8382
L103.3460 27.8382
" />
<path style="fill:#000000; fill-opacity:1.0000; stroke:none;fill-rule:evenodd;"
d="M 102.3560,33.8282
106.3160,33.8282
106.3160,31.8483
102.3560,31.8483
Z" /> 
</g>
<g style="fill:#000000; fill-opacity:1.0000; stroke:none;">
<circle cx="19.3460" cy="16.5832" r="0.9000" /> 
<path style="fill:#000000; fill-opacity:1.0000; stroke:none;fill-rule:evenodd;"
d="M 18.4460,20.0232
20.2460,20.0232
20.2460,18.2233
18.4460,18.2233
Z" /> 
</g>
<g style="fill:#000000; fill-opacity:1.0000; stroke:none;">
<circle cx="19.3460" cy="28.0832" r="0.9000" /> 
<path style="fill:#000000; fill-opacity:1.0000; stroke:none;fill-rule:evenodd;"
d="M 18.4460,31.5232
20.2460,31.5232
20.2460,29.7233
18.4460,29.7233
Z" /> 
</g>
<g style="fill:#000000; fill-opacity:1.0000; stroke:none;">
<circle cx="65.3460" cy="39.7682" r="1.1000" /> 
<path style="fill:#000000; fill-opacity:1.0000; stroke:none;fill-rule:evenodd;"
d="M 64.2460,51.0282
66.4460,51.0282
66.4460,48.8282
64.2460,48.8282
Z" /> 
<circle cx="65.8460" cy="6.2683" r="1.1000" /> 
<path style="fill:#000000; fill-opacity:1.0000; stroke:none;fill-rule:evenodd;"
d="M 64.7460,17.5282
66.9460,17.5282
66.9460,15.3282
64.7460,15.3282
Z" /> 
<circle cx="92.3460" cy="35.1758" r="1.4000" /> 
</g>
<g style="fill:#000000; fill-opacity:1.0000; stroke:none;">
<circle cx="92.3460" cy="30.0957" r="1.4000" /> 
</g>
<g style="fill:#000000; fill-opacity:1.0000; stroke:none;">
<circle cx="92.3460" cy="25.0158" r="1.4000" /> 
<path style="fill:#000000; fill-opacity:1.0000; stroke:none;fill-rule:evenodd;"
d="M 93.7460,18.5358
90.9460,18.5358
90.9460,21.3357
93.7460,21.3357
Z" /> 
<path style="fill:#000000; fill-opacity:1.0000; stroke:none;fill-rule:evenodd;"
d="M 35.1460,32.3956
33.5460,32.3956
33.5460,33.9956
35.1460,33.9956
Z" /> 
</g>
<g style="fill:#000000; fill-opacity:1.0000; stroke:none;">
<circle cx="34.3460" cy="36.6956" r="0.8000" /> 
</g>
<g style="fill:#000000; fill-opacity:1.0000; stroke:none;">
<circle cx="53.1933" cy="23.8483" r="0.8000" /> 
<path style="fill:#000000; fill-opacity:1.0000; stroke:none;fill-rule:evenodd;"
d="M 48.8933,23.0482
48.8933,24.6482
50.4933,24.6482
50.4933,23.0482
Z" /> 
</g>
<g style="fill:#000000; fill-opacity:1.0000; stroke:none;">
<circle cx="77.8460" cy="44.3355" r="1.2000" /> 
<path style="fill:#000000; fill-opacity:1.0000; stroke:none;fill-rule:evenodd;"
d="M 79.0460,35.6355
76.6460,35.6355
76.6460,38.0355
79.0460,38.0355
Z" /> 
<path style="fill:#000000; fill-opacity:1.0000; stroke:none;fill-rule:evenodd;"
d="M 78.5460,9.6482
76.1460,9.6482
76.1460,12.0482
78.5460,12.0482
Z" /> 
</g>
<g style="fill:#000000; fill-opacity:1.0000; stroke:none;">
<circle cx="77.3460" cy="18.3483" r="1.2000" /> 
</g>
<g style="fill:#000000; fill-opacity:1.0000; stroke:none;">
<circle cx="99.3460" cy="41.8483" r="1.0000" /> 
</g>
<g style="fill:#000000; fill-opacity:1.0000; stroke:none;">
<circle cx="109.3460" cy="41.8483" r="1.0000" /> 
</g>
<g style="fill:#000000; fill-opacity:1.0000; stroke:none;">
<circle cx="109.3460" cy="13.8483" r="1.0000" /> 
</g>
<g style="fill:#000000; fill-opacity:1.0000; stroke:none;">
<circle cx="99.3460" cy="13.8483" r="1.0000" /> 
</g>
<g style="fill:#000000; fill-opacity:1.0000; stroke:none;">
<circle cx="22.0960" cy="45.8483" r="1.1500" /> 
</g>
<g style="fill:#000000; fill-opacity:1.0000; stroke:none;">
<circle cx="27.8960" cy="45.8483" r="1.1500" /> 
<path style="fill:#000000; fill-opacity:1.0000; stroke:none;fill-rule:evenodd;"
d="M 37.9460,45.2732
37.9264,45.1244
37.8690,44.9857
37.7776,44.8667
37.6585,44.7753
37.5198,44.7178
37.3710,44.6982
36.2210,44.6982
36.0722,44.7178
35.9335,44.7753
35.8144,44.8667
35.7230,44.9857
35.6656,45.1244
35.6460,45.2732
35.6460,46.4232
35.6656,46.5721
35.7230,46.7107
35.8144,46.8298
35.9335,46.9212
36.0722,46.9787
36.2210,46.9982
37.3710,46.9982
37.5198,46.9787
37.6585,46.9212
37.7776,46.8298
37.8690,46.7107
37.9264,46.5721
37.9460,46.4232
Z" /> 
<path style="fill:#000000; fill-opacity:1.0000; stroke:none;fill-rule:evenodd;"
d="M 43.7460,45.2732
43.7264,45.1244
43.6690,44.9857
43.5776,44.8667
43.4585,44.7753
43.3198,44.7178
43.1710,44.6982
42.0210,44.6982
41.8722,44.7178
41.7335,44.7753
41.6144,44.8667
41.5230,44.9857
41.4656,45.1244
41.4460,45.2732
41.4460,46.4232
41.4656,46.5721
41.5230,46.7107
41.6144,46.8298
41.7335,46.9212
41.8722,46.9787
42.0210,46.9982
43.1710,46.9982
43.3198,46.9787
43.4585,46.9212
43.5776,46.8298
43.6690,46.7107
43.7264,46.5721
43.7460,46.4232
Z" /> 
<path style="fill:#000000; fill-opacity:1.0000; stroke:none;fill-rule:evenodd;"
d="M 34.9210,27.7482
35.0698,27.7287
35.2085,27.6712
35.3276,27.5798
35.4190,27.4607
35.4764,27.3221
35.4960,27.1732
35.4960,26.0232
35.4764,25.8744
35.4190,25.7357
35.3276,25.6167
35.2085,25.5253
35.0698,25.4678
34.9210,25.4482
33.7710,25.4482
33.6222,25.4678
33.4835,25.5253
33.3644,25.6167
33.2730,25.7357
33.2156,25.8744
33.1960,26.0232
33.1960,27.1732
33.2156,27.3221
33.2730,27.4607
33.3644,27.5798
33.4835,27.6712
33.6222,27.7287
33.7710,27.7482
Z" /> 
<path style="fill:#000000; fill-opacity:1.0000; stroke:none;fill-rule:evenodd;"
d="M 34.9210,22.5482
35.0698,22.5287
35.2085,22.4712
35.3276,22.3798
35.4190,22.2607
35.4764,22.1221
35.4960,21.9733
35.4960,20.8232
35.4764,20.6744
35.4190,20.5358
35.3276,20.4167
35.2085,20.3253
35.0698,20.2678
34.9210,20.2482
33.7710,20.2482
33.6222,20.2678
33.4835,20.3253
33.3644,20.4167
33.2730,20.5358
33.2156,20.6744
33.1960,20.8232
33.1960,21.9733
33.2156,22.1221
33.2730,22.2607
33.3644,22.3798
33.4835,22.4712
33.6222,22.5287
33.7710,22.5482
Z" /> 
</g>
<g style="fill:#000000; fill-opacity:1.0000; stroke:none;">
<circle cx="34.3460" cy="11.2982" r="1.1500" /> 
</g>
<g style="fill:#000000; fill-opacity:1.0000; stroke:none;">
<circle cx="34.3460" cy="6.0982" r="1.1500" /> 
</g>
<g style="fill:none; 
stroke:#000000; stroke-width:1.0000; stroke-opacity:1; 
stroke-linecap:round; stroke-linejoin:round;">
<path d="M56.8460 44.3483
L62.4260 49.9282
" />
<path d="M56.8460 42.9282
L56.8460 44.3483
" />
<path d="M62.4260 49.9282
L65.3460 49.9282
" />
<path d="M72.8588 39.3483
L77.8460 44.3355
" />
<path d="M65.7660 39.3483
L72.8588 39.3483
" />
<path d="M65.3460 39.7682
L65.7660 39.3483
" />
<path d="M92.3460 35.8483
L83.8588 44.3355
" />
<path d="M83.8588 44.3355
L77.8460 44.3355
" />
<path d="M92.3460 35.1758
L92.3460 35.8483
" />
<path d="M32.0960 24.3483
L26.6560 24.3483
" />
<path d="M34.3460 26.5983
L32.0960 24.3483
" />
<path d="M26.6560 24.3483
L25.8460 25.1582
" />
<path d="M24.1560 15.8483
L20.0810 15.8483
" />
<path d="M20.0810 15.8483
L19.3460 16.5832
" />
<path d="M25.8460 17.5382
L24.1560 15.8483
" />
<path d="M8.8460 17.3483
L8.8460 18.3483
" />
<path d="M14.8960 11.2982
L8.8460 17.3483
" />
<path d="M34.3460 11.2982
L14.8960 11.2982
" />
<path d="M57.8588 36.8355
L56.8460 37.8483
" />
<path d="M77.8460 36.8355
L57.8588 36.8355
" />
<path d="M65.3460 40.3483
L57.4660 40.3483
" />
<path d="M99.3460 41.8483
L92.6735 35.1758
" />
<path d="M92.6735 35.1758
L92.3460 35.1758
" />
</g>
<g style="fill:none; 
stroke:#000000; stroke-width:1.5000; stroke-opacity:1; 
stroke-linecap:round; stroke-linejoin:round;">
<path d="M95.0885 32.8382
L92.3460 30.0957
" />
<path d="M104.3360 32.8382
L95.0885 32.8382
" />
</g>
<g style="fill:none; 
stroke:#000000; stroke-width:1.0000; stroke-opacity:1; 
stroke-linecap:round; stroke-linejoin:round;">
<path d="M86.8360 27.8382
L77.3460 18.3483
" />
<path d="M104.3360 27.8382
L86.8360 27.8382
" />
</g>
<g style="fill:none; 
stroke:#000000; stroke-width:1.5000; stroke-opacity:1; 
stroke-linecap:round; stroke-linejoin:round;">
<path d="M94.5235 22.8382
L92.3460 25.0158
" />
<path d="M104.3360 22.8382
L94.5235 22.8382
" />
</g>
<g style="fill:none; 
stroke:#000000; stroke-width:1.0000; stroke-opacity:1; 
stroke-linecap:round; stroke-linejoin:round;">
<path d="M109.3460 32.8483
L104.3360 27.8382
" />
<path d="M109.3460 41.8483
L109.3460 32.8483
" />
<path d="M109.3460 22.8283
L104.3360 27.8382
" />
<path d="M109.3460 13.8483
L109.3460 22.8283
" />
<path d="M77.8460 19.3483
L77.8460 36.8355
" />
<path d="M77.3460 18.8483
L77.8460 19.3483
" />
<path d="M77.3460 18.3483
L77.3460 18.8483
" />
<path d="M93.2585 19.9357
L92.3460 19.9357
" />
<path d="M99.3460 13.8483
L93.2585 19.9357
" />
<path d="M92.3460 19.9357
L92.3023 19.8920
" />
<path d="M83.2585 10.8483
L92.3460 19.9357
" />
<path d="M77.3460 10.8483
L83.2585 10.8483
" />
<path d="M65.8460 14.3483
L65.8460 16.4282
" />
<path d="M69.3460 10.8483
L65.8460 14.3483
" />
<path d="M77.3460 10.8483
L69.3460 10.8483
" />
<path d="M63.7660 14.3483
L65.8460 16.4282
" />
<path d="M52.4260 14.3483
L63.7660 14.3483
" />
<path d="M55.4260 6.2683
L65.8460 6.2683
" />
<path d="M47.3460 14.3483
L55.4260 6.2683
" />
<path d="M38.9987 37.8483
L34.3460 33.1956
" />
<path d="M56.8460 37.8483
L38.9987 37.8483
" />
<path d="M22.0960 45.8483
L27.8960 45.8483
" />
<path d="M21.3460 45.8483
L8.8460 33.3483
" />
<path d="M22.0960 45.8483
L21.3460 45.8483
" />
<path d="M8.8460 33.3483
L8.8460 28.3483
" />
<path d="M19.3460 36.1582
L19.5360 36.3483
" />
<path d="M19.3460 30.6232
L19.3460 36.1582
" />
<path d="M53.9260 45.8483
L56.8460 42.9282
" />
<path d="M42.5960 45.8483
L53.9260 45.8483
" />
<path d="M36.7960 45.8483
L42.5960 45.8483
" />
<path d="M36.7960 39.7982
L36.7960 45.8483
" />
<path d="M34.3460 37.3483
L36.7960 39.7982
" />
<path d="M34.3460 36.6956
L34.3460 37.3483
" />
<path d="M33.9987 36.3483
L34.3460 36.6956
" />
<path d="M27.1560 36.3483
L33.9987 36.3483
" />
<path d="M34.3460 26.5983
L34.3460 21.3982
" />
<path d="M41.3960 14.3483
L34.3460 21.3982
" />
<path d="M47.3460 14.3483
L41.3960 14.3483
" />
<path d="M47.3460 21.5009
L49.6933 23.8483
" />
<path d="M47.3460 14.3483
L47.3460 21.5009
" />
</g>
<g style="fill:none; 
stroke:#000000; stroke-width:1.5000; stroke-opacity:1; 
stroke-linecap:round; stroke-linejoin:round;">
<path d="M49.8860 20.5409
L53.1933 23.8483
" />
<path d="M49.8860 14.3483
L49.8860 20.5409
" />
</g>
<g style="fill:none; 
stroke:#000000; stroke-width:1.0000; stroke-opacity:1; 
stroke-linecap:round; stroke-linejoin:round;">
<path d="M43.8460 33.1956
L34.3460 33.1956
" />
<path d="M53.1933 23.8483
L43.8460 33.1956
" />
<path d="M29.2337 28.0832
L34.3460 33.1956
" />
<path d="M19.3460 28.0832
L29.2337 28.0832
" />
<path d="M19.3460 28.0832
L19.3460 19.1232
" />
<path d="M13.0710 19.1232
L8.8460 23.3483
" />
<path d="M19.3460 19.1232
L13.0710 19.1232
" />
<path d="M34.3460 6.0982
L34.3460 11.2982
" />
<path style="fill:#000000; fill-opacity:1.0000; stroke:none;fill-rule:evenodd;"
d="M 37.8855,14.3482
37.8184,14.3679
37.8138,14.3711
25.8983,22.8112
25.8550,22.8660
25.8460,22.9124
25.8460,23.7397
25.8657,23.8067
25.9185,23.8525
25.9592,23.8632
26.0726,23.8731
26.0726,23.8731
26.2923,23.9320
26.2923,23.9320
26.4985,24.0281
26.4985,24.0281
26.5715,24.0792
26.5715,24.0792
25.8924,24.7583
25.8987,24.7583
26.0004,24.7855
26.0916,24.8382
26.1661,24.9126
26.2187,25.0039
26.2460,25.1056
26.2460,25.1118
26.9250,24.4328
26.9250,24.4328
26.9761,24.5058
26.9761,24.5058
27.0723,24.7119
27.0723,24.7119
27.1311,24.9316
27.1311,24.9316
27.1510,25.1582
27.1510,25.1583
27.1311,25.3848
27.1311,25.3849
27.0723,25.6046
27.0723,25.6046
27.0409,25.6718
27.0304,25.7409
27.0589,25.8047
27.1174,25.8429
27.1533,25.8483
29.8460,25.8483
34.8097,30.8119
34.8710,30.8454
34.8974,30.8483
43.2911,30.8483
43.3581,30.8286
43.3829,30.8075
45.7061,28.2455
47.7956,25.9412
35.9960,25.9412
35.9960,26.3483
34.9460,26.3483
34.9710,26.4087
34.9960,26.5342
34.9960,26.6623
34.9710,26.7878
34.9460,26.8483
35.9960,26.8483
35.9960,27.2553
35.9933,27.3015
35.9496,27.5021
35.9496,27.5021
35.8688,27.6908
35.7537,27.8608
35.6086,28.0060
35.4385,28.1210
35.2498,28.2019
35.2498,28.2019
35.0492,28.2455
35.0031,28.2482
34.5960,28.2482
34.5960,27.1983
34.5356,27.2233
34.4100,27.2482
34.2820,27.2482
34.1564,27.2233
34.0960,27.1983
34.0960,28.2482
33.6889,28.2482
33.6428,28.2455
33.4422,28.2019
33.4422,28.2019
33.2535,28.1210
33.0834,28.0060
32.9383,27.8608
32.8232,27.6908
32.7424,27.5021
32.7424,27.5021
32.6987,27.3015
32.6960,27.2553
32.6960,26.8483
33.7460,26.8483
33.7210,26.7878
33.6960,26.6623
33.6960,26.5342
33.7210,26.4087
33.7460,26.3483
32.6960,26.3483
32.6960,25.9412
32.6987,25.8950
32.7424,25.6944
32.7424,25.6944
32.8232,25.5057
32.9383,25.3357
33.0834,25.1905
33.2535,25.0755
33.4422,24.9946
33.4422,24.9946
33.6428,24.9510
33.6889,24.9482
34.0960,24.9482
34.0960,25.9982
34.1564,25.9732
34.2820,25.9482
34.4100,25.9482
34.5356,25.9732
34.5960,25.9982
34.5960,24.9482
35.0031,24.9482
35.0492,24.9510
35.2498,24.9946
35.2498,24.9946
35.4385,25.0755
35.6086,25.1905
35.7537,25.3357
35.8688,25.5057
35.9496,25.6944
35.9496,25.6944
35.9933,25.8950
35.9960,25.9412
47.7956,25.9412
48.5163,25.1464
48.5467,25.0835
48.5383,25.0141
48.5237,24.9888
48.4500,24.8903
48.4500,24.8903
48.3998,24.7556
48.3998,24.7556
48.3933,24.6961
48.3933,24.6961
48.3933,24.0983
49.3777,24.0983
49.3733,24.0939
49.3206,24.0026
49.2933,23.9009
49.2933,23.7956
49.3206,23.6939
49.3733,23.6026
49.3777,23.5983
48.3933,23.5983
48.3933,23.0004
48.3933,23.0004
48.3998,22.9409
48.3998,22.9409
48.4500,22.8062
48.4500,22.8062
48.5051,22.7325
48.5296,22.6670
48.5147,22.5988
48.4963,22.5733
47.3460,21.3483
47.3461,20.7412
35.9960,20.7412
35.9960,21.1482
34.9460,21.1482
34.9710,21.2087
34.9960,21.3342
34.9960,21.4623
34.9710,21.5878
34.9460,21.6482
35.9960,21.6482
35.9960,22.0553
35.9933,22.1015
35.9496,22.3021
35.9496,22.3021
35.8688,22.4908
35.7537,22.6608
35.6086,22.8060
35.4385,22.9210
35.2498,23.0019
35.2498,23.0019
35.0492,23.0455
35.0031,23.0482
34.5960,23.0482
34.5960,21.9983
34.5356,22.0233
34.4100,22.0482
34.2820,22.0482
34.1564,22.0233
34.0960,21.9983
34.0960,23.0482
33.6889,23.0482
33.6428,23.0455
33.4422,23.0019
33.4422,23.0019
33.2535,22.9210
33.0834,22.8060
32.9383,22.6608
32.8232,22.4908
32.7424,22.3021
32.7424,22.3021
32.6987,22.1015
32.6960,22.0553
32.6960,21.6482
33.7460,21.6482
33.7210,21.5878
33.6960,21.4623
33.6960,21.3342
33.7210,21.2087
33.7460,21.1482
32.6960,21.1482
32.6960,20.7412
32.6987,20.6950
32.7424,20.4944
32.7424,20.4944
32.8232,20.3057
32.9383,20.1357
33.0834,19.9905
33.2535,19.8755
33.4422,19.7946
33.4422,19.7946
33.6428,19.7510
33.6889,19.7482
34.0960,19.7482
34.0960,20.7982
34.1564,20.7732
34.2820,20.7482
34.4100,20.7482
34.5356,20.7732
34.5960,20.7982
34.5960,19.7482
35.0031,19.7482
35.0492,19.7510
35.2498,19.7946
35.2498,19.7946
35.4385,19.8755
35.6086,19.9905
35.7537,20.1357
35.8688,20.3057
35.9496,20.4944
35.9496,20.4944
35.9933,20.6950
35.9960,20.7412
47.3461,20.7412
47.3468,15.9719
47.3271,15.9049
47.2743,15.8591
47.2364,15.8493
47.2365,15.8490
47.2331,15.8485
47.2325,15.8483
47.2317,15.8482
47.0059,15.8125
47.0059,15.8125
46.7884,15.7418
46.5847,15.6380
46.3998,15.5037
46.2381,15.3420
46.1037,15.1570
45.9999,14.9533
45.9293,14.7359
45.9293,14.7359
45.8935,14.5101
45.8935,14.4714
45.8738,14.4044
45.8210,14.3586
45.7695,14.3474
Z" /> 
<path style="fill:#000000; fill-opacity:1.0000; stroke:none;fill-rule:evenodd;"
d="M 79.0988,18.3679
79.0530,18.4207
79.0422,18.4630
79.0317,18.6023
78.9750,18.8507
78.9750,18.8507
78.8819,19.0879
78.8819,19.0879
78.7545,19.3086
78.7545,19.3086
78.7125,19.3612
78.7125,19.3612
77.9106,18.5593
77.9051,18.5798
77.8261,18.7167
77.7144,18.8284
77.5776,18.9074
77.5571,18.9129
78.3592,19.7150
78.1984,19.8246
78.1984,19.8246
77.9688,19.9352
77.9688,19.9352
77.7253,20.0103
77.7253,20.0103
77.4734,20.0482
77.4734,20.0482
77.2186,20.0482
77.2186,20.0482
76.9667,20.0103
76.9667,20.0103
76.7232,19.9352
76.4936,19.8246
76.4936,19.8246
76.3328,19.7150
77.1349,18.9129
77.1144,18.9074
76.9776,18.8284
76.8659,18.7167
76.7869,18.5798
76.7814,18.5593
75.9795,19.3612
75.9795,19.3612
75.9375,19.3086
75.8101,19.0879
75.7170,18.8507
75.7170,18.8507
75.6603,18.6023
75.6498,18.4630
75.6252,18.3976
75.5691,18.3559
75.5262,18.3483
58.3998,18.3483
58.3327,18.3679
58.3093,18.3875
54.1126,22.8682
53.4676,23.5569
53.5134,23.6026
53.5661,23.6939
53.5933,23.7956
53.5933,23.8018
54.2724,23.1228
54.2724,23.1228
54.3235,23.1958
54.3235,23.1958
54.4196,23.4019
54.4196,23.4019
54.4785,23.6216
54.4785,23.6216
54.4983,23.8482
54.4983,23.8483
54.4785,24.0748
54.4785,24.0749
54.4196,24.2946
54.4196,24.2946
54.3235,24.5007
54.2724,24.5737
53.5933,23.8947
53.5933,23.9009
53.5661,24.0026
53.5134,24.0939
53.4390,24.1683
53.3477,24.2210
53.2460,24.2482
53.2398,24.2482
53.9188,24.9273
53.8458,24.9784
53.8458,24.9784
53.6397,25.0745
53.6397,25.0745
53.4200,25.1334
53.4199,25.1334
53.1934,25.1532
53.1933,25.1532
52.9667,25.1334
52.9667,25.1334
52.7470,25.0745
52.7470,25.0745
52.5409,24.9784
52.3545,24.8479
52.3410,24.8344
52.2797,24.8009
52.2100,24.8059
52.1676,24.8326
51.6411,25.3370
44.8460,31.8483
44.8460,31.8483
35.6086,31.8483
35.5415,31.8679
35.4958,31.9207
35.4858,31.9899
35.5093,32.0466
35.5894,32.1535
35.5894,32.1535
35.6396,32.2882
35.6396,32.2882
35.6460,32.3478
35.6460,32.9456
34.6617,32.9456
34.6661,32.9500
34.7187,33.0412
34.7460,33.1429
34.7460,33.2483
34.7187,33.3500
34.6661,33.4412
34.6617,33.4456
35.6460,33.4456
35.6460,34.0434
35.6396,34.1030
35.6396,34.1030
35.5894,34.2377
35.5894,34.2377
35.5499,34.2903
35.5255,34.3558
35.5404,34.4241
35.5601,34.4509
38.8094,37.8105
38.8702,37.8450
38.8986,37.8483
55.2220,37.8483
55.2890,37.8286
55.3348,37.7758
55.3460,37.7242
55.3460,36.8479
55.3460,36.8479
55.3524,36.7884
55.3524,36.7884
55.4026,36.6537
55.4026,36.6537
55.4888,36.5386
55.4888,36.5386
55.6039,36.4524
55.6039,36.4524
55.7386,36.4022
55.7386,36.4022
55.7982,36.3957
56.5960,36.3957
56.5960,37.3575
56.6337,37.3357
56.7736,37.2982
56.9184,37.2982
57.0583,37.3357
57.0960,37.3575
57.0960,36.3957
57.8938,36.3957
57.9534,36.4022
57.9534,36.4022
58.0881,36.4524
58.0881,36.4524
58.2032,36.5386
58.2032,36.5386
58.2894,36.6537
58.2894,36.6537
58.3396,36.7884
58.3396,36.7884
58.3460,36.8479
58.3460,37.4518
58.3657,37.5188
58.4185,37.5645
58.4876,37.5745
58.4904,37.5741
62.8460,36.8483
62.8460,36.8483
76.0220,36.8483
76.0890,36.8286
76.1348,36.7758
76.1460,36.7242
76.1460,35.5877
76.1460,35.5877
76.1524,35.5281
76.1524,35.5281
76.2026,35.3934
76.2026,35.3934
76.2888,35.2783
76.2888,35.2783
76.4039,35.1921
76.4039,35.1921
76.5386,35.1419
76.5386,35.1419
76.5982,35.1355
77.5960,35.1355
77.5960,36.2870
77.6144,36.2764
77.7670,36.2355
77.9250,36.2355
78.0776,36.2764
78.0960,36.2870
78.0960,35.1355
79.0938,35.1355
79.1534,35.1419
79.1534,35.1419
79.2881,35.1921
79.2881,35.1921
79.4032,35.2783
79.4032,35.2783
79.4894,35.3934
79.4894,35.3934
79.5396,35.5281
79.5396,35.5281
79.5460,35.5877
79.5460,36.7242
79.5657,36.7913
79.6185,36.8370
79.6700,36.8483
84.7220,36.8483
84.7890,36.8286
84.8348,36.7758
84.8460,36.7242
84.8460,31.3482
54.6133,31.3482
54.6133,31.3483
54.5941,31.5683
54.5941,31.5683
54.5369,31.7817
54.5369,31.7817
54.5369,31.7817
54.5059,31.8483
54.4435,31.9819
54.4435,31.9819
54.3168,32.1629
54.3168,32.1629
54.1606,32.3191
54.1606,32.3191
53.9797,32.4458
53.9797,32.4458
53.9797,32.4458
53.7794,32.5391
53.5661,32.5963
53.4089,32.6101
53.3460,32.6156
53.3460,32.6156
53.3460,32.6156
53.2910,32.6108
53.1259,32.5963
52.9125,32.5391
52.7123,32.4458
52.5314,32.3191
52.3752,32.1629
52.2485,31.9819
52.1551,31.7817
52.0979,31.5683
52.0787,31.3483
52.0979,31.1282
52.1551,30.9148
52.2485,30.7146
52.3752,30.5336
52.5314,30.3774
52.5314,30.3774
52.5314,30.3774
52.7123,30.2507
52.7123,30.2507
52.7123,30.2507
52.9125,30.1574
52.9126,30.1574
52.9126,30.1574
53.1259,30.1002
53.1259,30.1002
53.3460,30.0809
53.3460,30.0809
53.5661,30.1002
53.5661,30.1002
53.7794,30.1574
53.7795,30.1574
53.9797,30.2507
53.9797,30.2507
54.1606,30.3774
54.3168,30.5336
54.4435,30.7146
54.4435,30.7146
54.5369,30.9148
54.5369,30.9148
54.5941,31.1282
54.5941,31.1282
54.6133,31.3482
84.8460,31.3482
84.8460,18.4722
84.8263,18.4052
84.7735,18.3595
84.7220,18.3483
79.1658,18.3483
Z" /> 
<path style="fill:#000000; fill-opacity:1.0000; stroke:none;fill-rule:evenodd;"
d="M 20.7553,18.8679
20.7487,18.8732
19.7213,18.8732
19.7653,18.9496
19.7960,19.0640
19.7960,19.1825
19.7653,19.2969
19.7213,19.3732
20.7460,19.3732
20.7460,20.0711
20.7396,20.1306
20.7396,20.1306
20.6894,20.2653
20.6894,20.2653
20.6032,20.3804
20.6032,20.3804
20.4881,20.4666
20.4881,20.4666
20.3534,20.5168
20.3534,20.5168
20.2938,20.5232
20.2938,20.5232
19.5960,20.5232
19.5960,19.4985
19.5197,19.5426
19.4052,19.5732
19.2868,19.5732
19.1723,19.5426
19.0960,19.4985
19.0960,20.5232
18.3982,20.5232
18.3982,20.5232
18.3386,20.5168
18.3386,20.5168
18.2039,20.4666
18.2039,20.4666
18.0888,20.3804
18.0888,20.3804
18.0026,20.2653
18.0026,20.2653
17.9524,20.1306
17.9524,20.1306
17.9460,20.0711
17.9460,20.0711
17.9460,19.3732
18.9707,19.3732
18.9267,19.2969
18.8960,19.1825
18.8960,19.0640
18.9267,18.9496
18.9707,18.8732
17.9366,18.8732
17.8960,18.8511
17.8696,18.8483
13.3974,18.8483
13.3631,18.8583
21.8460,23.8483
21.8460,25.3483
21.8460,33.2227
21.8657,33.2898
21.9185,33.3355
21.9715,33.3467
32.9235,33.2123
32.9903,33.1918
33.0354,33.1385
33.0460,33.0883
33.0460,32.3478
33.0460,32.3478
33.0524,32.2882
33.0524,32.2882
33.1026,32.1535
33.1026,32.1535
33.1827,32.0466
33.2071,31.9811
33.1923,31.9128
33.1429,31.8634
33.0834,31.8483
32.8460,31.8483
32.8460,31.8483
29.3831,27.8906
29.3241,27.8531
29.2897,27.8483
23.3460,27.8483
23.3460,18.9722
23.3263,18.9052
23.2735,18.8595
23.2220,18.8483
20.8224,18.8483
Z" /> 
<path style="fill:#000000; fill-opacity:1.0000; stroke:none;fill-rule:evenodd;"
d="M 86.9030,35.3679
86.8572,35.4207
86.8460,35.4722
86.8460,38.8483
59.8775,38.7683
59.8183,38.7832
57.0193,40.2942
56.9696,40.3434
56.9544,40.4116
56.9785,40.4771
57.0057,40.5039
62.3409,44.3446
62.3514,44.3514
75.3172,51.8317
75.3792,51.8483
102.2220,51.8483
102.2890,51.8286
102.3348,51.7758
102.3460,51.7242
102.3460,35.4722
102.3263,35.4052
102.2735,35.3595
102.2220,35.3483
86.9700,35.3483
Z" /> 
<path style="fill:#000000; fill-opacity:1.0000; stroke:none;fill-rule:evenodd;"
d="M 52.6383,14.8608
52.4984,14.8982
52.3536,14.8982
52.3460,14.8962
52.3460,15.8912
52.3460,16.2242
52.3657,16.2913
52.4026,16.3233
53.5374,15.8226
53.4859,15.8418
53.4859,15.8418
53.4263,15.8482
53.4263,15.8483
52.6760,15.8483
52.6760,14.8390
Z" /> 
<path style="fill:#000000; fill-opacity:1.0000; stroke:none;fill-rule:evenodd;"
d="M 55.3303,8.8679
55.3097,8.8846
52.3823,11.8119
52.3488,11.8733
52.3460,11.8996
52.3460,13.8003
52.3536,13.7982
52.4984,13.7982
52.6383,13.8357
52.6760,13.8575
52.6760,12.8483
53.4263,12.8483
53.4859,12.8547
53.4859,12.8547
53.6206,12.9049
53.6206,12.9049
53.7357,12.9911
53.7357,12.9911
53.8219,13.1062
53.8219,13.1062
53.8721,13.2409
53.8721,13.2409
53.8785,13.3004
53.8785,14.0983
52.9167,14.0983
52.9385,14.1360
52.9760,14.2758
52.9760,14.4207
52.9385,14.5605
52.9167,14.5983
53.8785,14.5983
53.8785,15.3961
53.8721,15.4556
53.8721,15.4556
53.8219,15.5903
53.8219,15.5903
53.7357,15.7054
53.7357,15.7054
53.6390,15.7778
64.8127,10.8482
60.6133,10.8482
60.6133,10.8483
60.5941,11.0683
60.5941,11.0683
60.5369,11.2817
60.5369,11.2817
60.5369,11.2817
60.4435,11.4819
60.4435,11.4819
60.3168,11.6629
60.3168,11.6629
60.1606,11.8191
60.1606,11.8191
59.9797,11.9458
59.9797,11.9458
59.9797,11.9458
59.7794,12.0391
59.5661,12.0963
59.4089,12.1101
59.3460,12.1156
59.3460,12.1156
59.3460,12.1156
59.2910,12.1108
59.1259,12.0963
58.9125,12.0391
58.7123,11.9458
58.5314,11.8191
58.3752,11.6629
58.2485,11.4819
58.1551,11.2817
58.0979,11.0683
58.0787,10.8483
58.0979,10.6282
58.1551,10.4148
58.2485,10.2146
58.3752,10.0336
58.5314,9.8774
58.5314,9.8774
58.5314,9.8774
58.7123,9.7507
58.7123,9.7507
58.7123,9.7507
58.9125,9.6574
58.9126,9.6574
58.9126,9.6574
59.1259,9.6002
59.1259,9.6002
59.3460,9.5809
59.3460,9.5809
59.5661,9.6002
59.5661,9.6002
59.7794,9.6574
59.7795,9.6574
59.9797,9.7507
59.9797,9.7507
60.1606,9.8774
60.3168,10.0336
60.4435,10.2146
60.4435,10.2146
60.5369,10.4148
60.5369,10.4148
60.5941,10.6282
60.5941,10.6282
60.6133,10.8482
64.8127,10.8482
69.3460,8.8483
55.3974,8.8483
Z" /> 
<path style="fill:#000000; fill-opacity:1.0000; stroke:none;fill-rule:evenodd;"
d="M 13.3303,18.8679
13.3097,18.8846
10.8460,21.3483
5.9700,21.3483
5.9030,21.3679
5.8572,21.4207
5.8460,21.4722
5.8460,25.2242
5.8657,25.2913
5.9185,25.3370
5.9700,25.3483
21.8460,25.3483
21.8460,23.8483
20.5710,23.0983
11.3050,23.0983
9.4568,23.0983
9.4806,23.1557
9.5060,23.2832
9.5060,23.4133
9.4806,23.5408
9.4568,23.5983
11.3050,23.5983
11.2893,23.6972
11.2893,23.6972
11.2168,23.9202
11.1104,24.1292
10.9725,24.3189
10.8067,24.4848
10.6169,24.6226
10.4080,24.7291
10.1849,24.8016
9.9533,24.8382
9.0960,24.8382
9.0960,23.9591
9.0385,23.9829
8.9110,24.0083
8.7810,24.0083
8.6535,23.9829
8.5960,23.9591
8.5960,24.8382
7.7387,24.8382
7.5071,24.8016
7.2840,24.7291
7.0751,24.6226
6.8853,24.4848
6.7195,24.3189
6.5816,24.1292
6.4752,23.9202
6.4027,23.6972
6.4027,23.6972
6.3870,23.5983
8.2352,23.5983
8.2114,23.5408
8.1860,23.4133
8.1860,23.2832
8.2114,23.1557
8.2352,23.0983
6.3870,23.0983
6.4027,22.9993
6.4027,22.9993
6.4752,22.7763
6.5816,22.5673
6.7195,22.3776
6.8853,22.2117
7.0751,22.0739
7.2840,21.9674
7.5071,21.8949
7.7387,21.8582
8.5960,21.8582
8.5960,22.7374
8.6535,22.7136
8.7810,22.6883
8.9110,22.6883
9.0385,22.7136
9.0960,22.7374
9.0960,21.8582
9.9533,21.8582
10.1849,21.8949
10.4080,21.9674
10.6169,22.0739
10.8067,22.2117
10.9725,22.3776
11.1104,22.5673
11.2168,22.7763
11.2893,22.9993
11.2893,22.9993
11.3050,23.0983
20.5710,23.0983
13.3631,18.8583
Z" /> 
<path style="fill:#000000; fill-opacity:1.0000; stroke:none;fill-rule:evenodd;"
d="M 32.4030,39.8679
32.3572,39.9207
32.3460,39.9722
32.3460,51.7242
32.3657,51.7913
32.4185,51.8370
32.4700,51.8483
72.3690,51.8483
72.4360,51.8286
72.4818,51.7758
72.4917,51.7066
72.4627,51.6430
72.4294,51.6159
70.6007,50.5963
67.1299,48.6611
67.0618,48.6457
66.9961,48.6695
66.9537,48.7251
66.9470,48.7770
66.9458,48.7771
66.9460,48.7804
66.9460,49.6782
65.8367,49.6782
65.8585,49.7160
65.8960,49.8558
65.8960,50.0007
65.8585,50.1405
65.8367,50.1782
66.9460,50.1782
66.9460,51.0761
66.9396,51.1356
66.9396,51.1356
66.8894,51.2703
66.8894,51.2703
66.8032,51.3854
66.8032,51.3854
66.6881,51.4716
66.6881,51.4716
66.5534,51.5218
66.5534,51.5218
66.4938,51.5282
66.4938,51.5282
65.5960,51.5282
65.5960,50.4190
65.5583,50.4408
65.4184,50.4782
65.2736,50.4782
65.1337,50.4408
65.0960,50.4190
65.0960,51.5282
64.1982,51.5282
64.1982,51.5282
64.1386,51.5218
64.1386,51.5218
64.0039,51.4716
64.0039,51.4716
63.8888,51.3854
63.8888,51.3854
63.8026,51.2703
63.8026,51.2703
63.7524,51.1356
63.7524,51.1356
63.7460,51.0761
63.7460,51.0761
63.7460,50.1782
64.8553,50.1782
64.8335,50.1405
64.7960,50.0007
64.7960,49.8558
64.8335,49.7160
64.8553,49.6782
63.7460,49.6782
63.7460,49.3482
54.6133,49.3482
54.6133,49.3483
54.5941,49.5683
54.5941,49.5683
54.5369,49.7817
54.5369,49.7817
54.5369,49.7817
54.4435,49.9819
54.4435,49.9819
54.3168,50.1629
54.3168,50.1629
54.1606,50.3191
54.1606,50.3191
53.9797,50.4458
53.9797,50.4458
53.9797,50.4458
53.7794,50.5391
53.5661,50.5963
53.4089,50.6101
53.3460,50.6156
53.3460,50.6156
53.3460,50.6156
53.2910,50.6108
53.1259,50.5963
52.9125,50.5391
52.7123,50.4458
52.5314,50.3191
52.3752,50.1629
52.2485,49.9819
52.1551,49.7817
52.0979,49.5683
52.0787,49.3483
52.0979,49.1282
52.1551,48.9148
52.2485,48.7146
52.3752,48.5336
52.5314,48.3774
52.5314,48.3774
52.5314,48.3774
52.7123,48.2507
52.7123,48.2507
52.7123,48.2507
52.9125,48.1574
52.9126,48.1574
52.9126,48.1574
53.1259,48.1002
53.1259,48.1002
53.3460,48.0809
53.3460,48.0809
53.5661,48.1002
53.5661,48.1002
53.7794,48.1574
53.7795,48.1574
53.9797,48.2507
53.9797,48.2507
54.1606,48.3774
54.3168,48.5336
54.4435,48.7146
54.4435,48.7146
54.5369,48.9148
54.5369,48.9148
54.5941,49.1282
54.5941,49.1282
54.6133,49.3482
63.7460,49.3482
63.7460,48.7804
63.7460,48.7804
63.7524,48.7209
63.7524,48.7209
63.8026,48.5862
63.8026,48.5862
63.8888,48.4711
63.8888,48.4711
64.0039,48.3849
64.0039,48.3849
64.1386,48.3347
64.1386,48.3347
64.1982,48.3282
65.0960,48.3282
65.0960,49.4375
65.1337,49.4157
65.2736,49.3783
65.4184,49.3783
65.5583,49.4157
65.5960,49.4375
65.5960,48.3282
66.0559,48.3282
66.1229,48.3086
66.1687,48.2558
66.1786,48.1866
66.1496,48.1230
66.1162,48.0959
60.9065,45.1912
44.2460,45.1912
44.2460,45.5983
43.1960,45.5983
43.2210,45.6587
43.2460,45.7842
43.2460,45.9123
43.2210,46.0378
43.1960,46.0983
44.2460,46.0983
44.2460,46.5053
44.2433,46.5515
44.1996,46.7521
44.1996,46.7521
44.1188,46.9408
44.0037,47.1108
43.8586,47.2560
43.6885,47.3710
43.4998,47.4519
43.4998,47.4519
43.2992,47.4955
43.2531,47.4982
42.8460,47.4982
42.8460,46.4483
42.7856,46.4733
42.6600,46.4982
42.5320,46.4982
42.4064,46.4733
42.3460,46.4483
42.3460,47.4982
41.9389,47.4982
41.8928,47.4955
41.6922,47.4519
41.6922,47.4519
41.5035,47.3710
41.3334,47.2560
41.1883,47.1108
41.0732,46.9408
40.9924,46.7521
40.9924,46.7521
40.9487,46.5515
40.9460,46.5053
40.9460,46.0983
41.9960,46.0983
41.9710,46.0378
41.9460,45.9123
41.9460,45.7842
41.9710,45.6587
41.9960,45.5983
40.9460,45.5983
40.9460,45.1912
38.4460,45.1912
38.4460,45.5983
37.3960,45.5983
37.4210,45.6587
37.4460,45.7842
37.4460,45.9123
37.4210,46.0378
37.3960,46.0983
38.4460,46.0983
38.4460,46.5053
38.4433,46.5515
38.3996,46.7521
38.3996,46.7521
38.3188,46.9408
38.2037,47.1108
38.0586,47.2560
37.8885,47.3710
37.6998,47.4519
37.6998,47.4519
37.4992,47.4955
37.4531,47.4982
37.0460,47.4982
37.0460,46.4483
36.9856,46.4733
36.8600,46.4982
36.7320,46.4982
36.6064,46.4733
36.5460,46.4483
36.5460,47.4982
36.1389,47.4982
36.0928,47.4955
35.8922,47.4519
35.8922,47.4519
35.7035,47.3710
35.5334,47.2560
35.3883,47.1108
35.2732,46.9408
35.1924,46.7521
35.1924,46.7521
35.1487,46.5515
35.1460,46.5053
35.1460,46.0983
36.1960,46.0983
36.1710,46.0378
36.1460,45.9123
36.1460,45.7842
36.1710,45.6587
36.1960,45.5983
35.1460,45.5983
35.1460,45.1912
35.1487,45.1450
35.1924,44.9444
35.1924,44.9444
35.2732,44.7557
35.3883,44.5857
35.5334,44.4405
35.7035,44.3255
35.8922,44.2446
35.8922,44.2446
36.0928,44.2010
36.1389,44.1982
36.5460,44.1982
36.5460,45.2482
36.6064,45.2232
36.7320,45.1982
36.8600,45.1982
36.9856,45.2232
37.0460,45.2482
37.0460,44.1982
37.4531,44.1982
37.4992,44.2010
37.6998,44.2446
37.6998,44.2446
37.8885,44.3255
38.0586,44.4405
38.2037,44.5857
38.3188,44.7557
38.3996,44.9444
38.3996,44.9444
38.4433,45.1450
38.4460,45.1912
40.9460,45.1912
40.9487,45.1450
40.9924,44.9444
40.9924,44.9444
41.0732,44.7557
41.1883,44.5857
41.3334,44.4405
41.5035,44.3255
41.6922,44.2446
41.6922,44.2446
41.8928,44.2010
41.9389,44.1982
42.3460,44.1982
42.3460,45.2482
42.4064,45.2232
42.5320,45.1982
42.6600,45.1982
42.7856,45.2232
42.8460,45.2482
42.8460,44.1982
43.2531,44.1982
43.2992,44.2010
43.4998,44.2446
43.4998,44.2446
43.6885,44.3255
43.8586,44.4405
44.0037,44.5857
44.1188,44.7557
44.1996,44.9444
44.1996,44.9444
44.2433,45.1450
44.2460,45.1912
60.9065,45.1912
58.2542,43.7123
58.1861,43.6969
58.1204,43.7207
58.0935,43.7477
58.0014,43.8745
58.0014,43.8745
57.8397,44.0362
57.6548,44.1705
57.4511,44.2743
57.2336,44.3450
57.0960,44.3668
57.0960,43.4190
57.0583,43.4408
56.9184,43.4782
56.7736,43.4782
56.6337,43.4408
56.5960,43.4190
56.5960,44.3668
56.4584,44.3450
56.2409,44.2743
56.0372,44.1705
55.8523,44.0362
55.6906,43.8745
55.5562,43.6895
55.4524,43.4858
55.3818,43.2684
55.3675,43.1782
56.3553,43.1782
56.3335,43.1405
56.2960,43.0007
56.2960,42.8558
56.3335,42.7160
56.3553,42.6782
55.3675,42.6782
55.3818,42.5881
55.4524,42.3707
55.5562,42.1670
55.6906,41.9820
55.7229,41.9497
55.7564,41.8884
55.7514,41.8187
55.7240,41.7755
53.8825,39.8857
53.8216,39.8514
53.7937,39.8483
32.4700,39.8483
Z" /> 
<path style="fill:#000000; fill-opacity:1.0000; stroke:none;fill-rule:evenodd;"
d="M 107.4030,10.8679
107.3572,10.9207
107.3460,10.9722
107.3460,25.3483
95.9700,25.3483
95.9030,25.3679
95.8572,25.4207
95.8460,25.4722
95.8460,30.2242
95.8657,30.2913
95.9185,30.3370
95.9700,30.3483
107.3460,30.3483
107.3460,45.7242
107.3657,45.7913
107.4185,45.8370
107.4700,45.8483
110.7220,45.8483
110.7890,45.8286
110.8348,45.7758
110.8460,45.7242
110.8460,42.7113
110.8263,42.6443
110.7735,42.5985
110.7044,42.5886
110.6408,42.6176
110.6182,42.6435
110.5694,42.7181
109.8290,41.9777
109.8119,42.0412
109.7461,42.1553
109.6530,42.2483
109.5390,42.3142
109.4754,42.3312
110.2161,43.0719
110.1692,43.1083
110.1692,43.1083
109.9506,43.2266
109.9506,43.2266
109.7155,43.3073
109.4703,43.3483
109.2217,43.3483
108.9765,43.3073
108.7414,43.2266
108.7414,43.2266
108.5228,43.1083
108.5228,43.1083
108.4759,43.0719
109.2166,42.3312
109.1530,42.3142
109.0390,42.2483
108.9459,42.1553
108.8801,42.0412
108.8630,41.9777
108.1226,42.7181
108.0223,42.5646
107.9224,42.3370
107.8614,42.0960
107.8614,42.0960
107.8409,41.8483
107.8409,41.8482
107.8614,41.6005
107.8614,41.6005
107.9224,41.3595
108.0223,41.1319
108.1226,40.9784
108.8630,41.7188
108.8801,41.6553
108.9459,41.5412
109.0390,41.4482
109.1530,41.3823
109.2166,41.3653
108.4759,40.6246
108.4759,40.6246
108.5228,40.5882
108.7414,40.4699
108.7414,40.4699
108.9765,40.3892
109.2217,40.3483
109.4703,40.3483
109.7155,40.3892
109.9506,40.4699
109.9506,40.4699
110.1692,40.5882
110.2161,40.6246
110.2161,40.6246
109.4754,41.3653
109.5390,41.3823
109.6530,41.4482
109.7461,41.5412
109.8119,41.6553
109.8290,41.7188
110.5694,40.9784
110.6182,41.0530
110.6713,41.0983
110.7406,41.1078
110.8039,41.0783
110.8412,41.0192
110.8460,40.9852
110.8460,27.5882
106.7950,27.5882
104.9468,27.5882
104.9706,27.6457
104.9960,27.7732
104.9960,27.9033
104.9706,28.0308
104.9468,28.0882
106.7950,28.0882
106.7793,28.1872
106.7793,28.1872
106.7068,28.4102
106.6004,28.6192
106.4625,28.8089
106.2967,28.9748
106.1069,29.1126
105.8980,29.2191
105.6749,29.2916
105.4433,29.3282
104.5860,29.3282
104.5860,28.4491
104.5285,28.4729
104.4010,28.4982
104.2710,28.4982
104.1435,28.4729
104.0860,28.4491
104.0860,29.3282
103.2287,29.3282
102.9971,29.2916
102.7740,29.2191
102.5651,29.1126
102.3753,28.9748
102.2095,28.8089
102.0716,28.6192
101.9652,28.4102
101.8927,28.1872
101.8927,28.1872
101.8770,28.0882
103.7252,28.0882
103.7014,28.0308
103.6760,27.9033
103.6760,27.7732
103.7014,27.6457
103.7252,27.5882
101.8770,27.5882
101.8927,27.4893
101.8927,27.4893
101.9652,27.2663
102.0716,27.0573
102.2095,26.8676
102.3753,26.7017
102.5651,26.5639
102.7740,26.4574
102.9971,26.3849
103.2287,26.3483
104.0860,26.3483
104.0860,27.2274
104.1435,27.2036
104.2710,27.1782
104.4010,27.1782
104.5285,27.2036
104.5860,27.2274
104.5860,26.3483
105.4433,26.3483
105.6749,26.3849
105.8980,26.4574
106.1069,26.5639
106.2967,26.7017
106.4625,26.8676
106.6004,27.0573
106.7068,27.2663
106.7793,27.4893
106.7793,27.4893
106.7950,27.5882
110.8460,27.5882
110.8460,14.7113
110.8263,14.6443
110.7735,14.5985
110.7044,14.5886
110.6408,14.6176
110.6182,14.6435
110.5694,14.7181
109.8290,13.9777
109.8119,14.0412
109.7461,14.1553
109.6530,14.2483
109.5390,14.3142
109.4754,14.3312
110.2161,15.0719
110.1692,15.1083
110.1692,15.1083
109.9506,15.2266
109.9506,15.2266
109.7155,15.3073
109.4703,15.3483
109.2217,15.3483
108.9765,15.3073
108.7414,15.2266
108.7414,15.2266
108.5228,15.1083
108.5228,15.1083
108.4759,15.0719
109.2166,14.3312
109.1530,14.3142
109.0390,14.2483
108.9459,14.1553
108.8801,14.0412
108.8630,13.9777
108.1226,14.7181
108.0223,14.5646
107.9224,14.3370
107.8614,14.0960
107.8614,14.0960
107.8409,13.8483
107.8409,13.8482
107.8614,13.6005
107.8614,13.6005
107.9224,13.3595
108.0223,13.1319
108.1226,12.9784
108.8630,13.7188
108.8801,13.6553
108.9459,13.5412
109.0390,13.4482
109.1530,13.3823
109.2166,13.3653
108.4759,12.6246
108.4759,12.6246
108.5228,12.5882
108.7414,12.4699
108.7414,12.4699
108.9765,12.3892
109.2217,12.3483
109.4703,12.3483
109.7155,12.3892
109.9506,12.4699
109.9506,12.4699
110.1692,12.5882
110.2161,12.6246
110.2161,12.6246
109.4754,13.3653
109.5390,13.3823
109.6530,13.4482
109.7461,13.5412
109.8119,13.6553
109.8290,13.7188
110.5694,12.9784
110.6182,13.0530
110.6713,13.0983
110.7406,13.1078
110.8039,13.0783
110.8412,13.0192
110.8460,12.9852
110.8460,10.9722
110.8263,10.9052
110.7735,10.8595
110.7220,10.8483
107.4700,10.8483
Z" /> 
<path style="fill:#000000; fill-opacity:1.0000; stroke:none;fill-rule:evenodd;"
d="M 5.9030,26.3679
5.8572,26.4207
5.8460,26.4722
5.8460,44.3048
5.8657,44.3718
5.8732,44.3822
11.8088,51.8017
11.8660,51.8418
11.9056,51.8483
31.2220,51.8483
31.2890,51.8286
31.3348,51.7758
31.3460,51.7242
31.3460,45.8483
29.5511,45.8483
29.5307,46.1072
29.4701,46.3597
29.4701,46.3597
29.3707,46.5996
29.3707,46.5996
29.2350,46.8211
29.2350,46.8211
29.2292,46.8279
28.4970,46.0957
28.4720,46.1561
28.4009,46.2626
28.3104,46.3531
28.2039,46.4243
28.1435,46.4493
28.8756,47.1814
28.8688,47.1873
28.6474,47.3230
28.6474,47.3230
28.4075,47.4223
28.4074,47.4223
28.1549,47.4830
28.1549,47.4830
27.8960,47.5034
27.6371,47.4830
27.3846,47.4223
27.3845,47.4223
27.1446,47.3230
27.1446,47.3230
26.9232,47.1873
26.9164,47.1814
27.6485,46.4493
27.5881,46.4243
27.4816,46.3531
27.3911,46.2626
27.3200,46.1561
27.2950,46.0957
26.5628,46.8279
26.5570,46.8211
26.4213,46.5996
26.4213,46.5996
26.3219,46.3597
26.3219,46.3597
26.2613,46.1072
26.2409,45.8483
23.7511,45.8483
23.7307,46.1072
23.6701,46.3597
23.6701,46.3597
23.5707,46.5996
23.5707,46.5996
23.4350,46.8211
23.4350,46.8211
23.4292,46.8279
22.6970,46.0957
22.6720,46.1561
22.6009,46.2626
22.5104,46.3531
22.4039,46.4243
22.3435,46.4493
23.0756,47.1814
23.0688,47.1873
22.8474,47.3230
22.8474,47.3230
22.6075,47.4223
22.6074,47.4223
22.3549,47.4830
22.3549,47.4830
22.0960,47.5034
21.8371,47.4830
21.5846,47.4223
21.5845,47.4223
21.3446,47.3230
21.3446,47.3230
21.1232,47.1873
21.1164,47.1814
21.8485,46.4493
21.7881,46.4243
21.6816,46.3531
21.5911,46.2626
21.5200,46.1561
21.4950,46.0957
20.7628,46.8279
20.7570,46.8211
20.6213,46.5996
20.6213,46.5996
20.5219,46.3597
20.5219,46.3597
20.4613,46.1072
20.4409,45.8483
20.4613,45.5893
20.5219,45.3368
20.5219,45.3368
20.6213,45.0969
20.6213,45.0968
20.7570,44.8754
20.7628,44.8686
21.4950,45.6008
21.5200,45.5404
21.5911,45.4339
21.6816,45.3434
21.7881,45.2722
21.8485,45.2472
21.1164,44.5151
21.1232,44.5092
21.1232,44.5092
21.3446,44.3735
21.3446,44.3735
21.5845,44.2742
21.5846,44.2742
21.8371,44.2135
21.8371,44.2135
22.0960,44.1931
22.3549,44.2135
22.6074,44.2742
22.6075,44.2742
22.8474,44.3735
22.8474,44.3735
23.0688,44.5092
23.0756,44.5150
22.3435,45.2472
22.4039,45.2722
22.5104,45.3434
22.6009,45.4339
22.6720,45.5404
22.6970,45.6008
23.4292,44.8686
23.4350,44.8754
23.5707,45.0968
23.5707,45.0969
23.6701,45.3368
23.6701,45.3368
23.7307,45.5893
23.7511,45.8483
26.2409,45.8483
26.2613,45.5893
26.3219,45.3368
26.3219,45.3368
26.4213,45.0969
26.4213,45.0968
26.5570,44.8754
26.5628,44.8686
27.2950,45.6008
27.3200,45.5404
27.3911,45.4339
27.4816,45.3434
27.5881,45.2722
27.6485,45.2472
26.9164,44.5151
26.9232,44.5092
26.9232,44.5092
27.1446,44.3735
27.1446,44.3735
27.3845,44.2742
27.3846,44.2742
27.6371,44.2135
27.6371,44.2135
27.8960,44.1931
28.1549,44.2135
28.4074,44.2742
28.4075,44.2742
28.6474,44.3735
28.6474,44.3735
28.8688,44.5092
28.8756,44.5150
28.1435,45.2472
28.2039,45.2722
28.3104,45.3434
28.4009,45.4339
28.4720,45.5404
28.4970,45.6008
29.2292,44.8686
29.2350,44.8754
29.3707,45.0968
29.3707,45.0969
29.4701,45.3368
29.4701,45.3368
29.5307,45.5893
29.5511,45.8483
31.3460,45.8483
31.3460,39.9722
31.3263,39.9052
31.2735,39.8595
31.2220,39.8483
19.3460,39.8483
16.8460,37.3483
16.8460,28.0983
11.3050,28.0983
9.4568,28.0983
9.4806,28.1557
9.5060,28.2832
9.5060,28.4133
9.4806,28.5408
9.4568,28.5983
11.3050,28.5983
11.2893,28.6972
11.2893,28.6972
11.2168,28.9202
11.1104,29.1292
10.9725,29.3189
10.8067,29.4848
10.6169,29.6226
10.4080,29.7291
10.1849,29.8016
9.9533,29.8382
9.0960,29.8382
9.0960,28.9591
9.0385,28.9829
8.9110,29.0083
8.7810,29.0083
8.6535,28.9829
8.5960,28.9591
8.5960,29.8382
7.7387,29.8382
7.5071,29.8016
7.2840,29.7291
7.0751,29.6226
6.8853,29.4848
6.7195,29.3189
6.5816,29.1292
6.4752,28.9202
6.4027,28.6972
6.4027,28.6972
6.3870,28.5983
8.2352,28.5983
8.2114,28.5408
8.1860,28.4133
8.1860,28.2832
8.2114,28.1557
8.2352,28.0983
6.3870,28.0983
6.4027,27.9993
6.4027,27.9993
6.4752,27.7763
6.5816,27.5673
6.7195,27.3776
6.8853,27.2117
7.0751,27.0739
7.2840,26.9674
7.5071,26.8949
7.7387,26.8582
8.5960,26.8582
8.5960,27.7374
8.6535,27.7136
8.7810,27.6883
8.9110,27.6883
9.0385,27.7136
9.0960,27.7374
9.0960,26.8582
9.9533,26.8582
10.1849,26.8949
10.4080,26.9674
10.6169,27.0739
10.8067,27.2117
10.9725,27.3776
11.1104,27.5673
11.2168,27.7763
11.2893,27.9993
11.2893,27.9993
11.3050,28.0983
16.8460,28.0983
16.8460,26.4722
16.8263,26.4052
16.7735,26.3595
16.7220,26.3483
5.9700,26.3483
Z" /> 
<path style="fill:#000000; fill-opacity:1.0000; stroke:none;fill-rule:evenodd;"
d="M 90.9855,35.4252
90.7028,36.7844
91.4099,37.4915
92.6548,36.5268
92.3492,35.1860
92.3440,35.1787
92.3357,35.1771
Z" /> 
<path style="fill:#000000; fill-opacity:1.0000; stroke:none;fill-rule:evenodd;"
d="M 25.5513,24.4150
25.5447,24.4210
25.5443,24.4300
25.5445,24.4304
25.8441,25.1561
25.8456,25.1584
25.8460,25.1592
26.4117,25.7239
27.1105,24.8483
27.1105,23.8483
Z" /> 
<path style="fill:#000000; fill-opacity:1.0000; stroke:none;fill-rule:evenodd;"
d="M 20.8274,15.3514
19.0152,15.7488
19.0079,15.7539
19.0063,15.7627
19.0069,15.7647
19.3441,16.5811
19.3467,16.5849
19.9741,17.2113
19.9823,17.2147
19.9906,17.2113
19.9907,17.2113
20.8382,16.3517
20.8416,16.3435
20.8416,15.3628
20.8381,15.3545
20.8299,15.3511
Z" /> 
<path style="fill:#000000; fill-opacity:1.0000; stroke:none;fill-rule:evenodd;"
d="M 25.0613,16.0602
24.3679,16.7536
24.3645,16.7618
24.3666,16.7684
25.2724,18.0923
25.2799,18.0972
25.2886,18.0954
25.2903,18.0940
25.8467,17.5390
25.8467,17.5389
26.4017,16.9825
26.4052,16.9743
26.4017,16.9660
26.4001,16.9646
25.0762,16.0588
25.0674,16.0570
Z" /> 
<path style="fill:#000000; fill-opacity:1.0000; stroke:none;fill-rule:evenodd;"
d="M 8.1817,17.3577
8.1828,17.3602
8.1838,17.3621
8.8388,18.3392
8.8462,18.3442
8.8550,18.3424
9.4351,17.9529
10.3098,17.3657
10.3143,17.3599
10.3162,17.3544
9.8925,17.0088
9.1854,16.3017
Z" /> 
<path style="fill:#000000; fill-opacity:1.0000; stroke:none;fill-rule:evenodd;"
d="M 56.6049,36.8957
56.8450,37.8483
57.4842,38.1949
57.8376,38.3865
57.8465,38.3875
57.8521,38.3837
58.7260,37.3355
58.7260,36.3355
Z" /> 
<path style="fill:#000000; fill-opacity:1.0000; stroke:none;fill-rule:evenodd;"
d="M 92.3564,35.1737
92.3486,35.1781
92.3462,35.1862
92.3588,35.3483
92.3588,35.3483
92.4533,36.5588
93.8382,37.0475
94.5453,36.3404
93.7238,35.0173
93.7166,35.0121
93.7125,35.0118
Z" /> 
<path style="fill:#000000; fill-opacity:1.0000; stroke:none;fill-rule:evenodd;"
d="M 64.8531,15.3282
65.7725,16.3483
65.8367,16.4194
65.8448,16.4232
65.8532,16.4202
65.8540,16.4195
65.9192,16.3483
66.8531,15.3282
66.2137,14.6877
65.5066,13.9806
Z" /> 
<path style="fill:#000000; fill-opacity:1.0000; stroke:none;fill-rule:evenodd;"
d="M 63.6853,14.9747
64.5095,16.3483
64.7414,16.7348
64.7486,16.7401
64.7546,16.7400
65.8404,16.4307
65.8475,16.4252
65.8485,16.4227
65.8697,16.3483
66.1602,15.3282
64.3924,14.2676
Z" /> 
<path style="fill:#000000; fill-opacity:1.0000; stroke:none;fill-rule:evenodd;"
d="M 63.7543,5.7657
63.7474,5.7714
63.7460,5.7769
63.7460,6.7596
63.7494,6.7678
63.7543,6.7708
65.3908,7.2653
65.3997,7.2644
65.4049,7.2588
65.8449,6.2730
65.8451,6.2641
65.8449,6.2635
65.4049,5.2777
65.3984,5.2715
65.3908,5.2712
Z" /> 
<path style="fill:#000000; fill-opacity:1.0000; stroke:none;fill-rule:evenodd;"
d="M 54.8935,37.3483
54.8935,37.8483
54.8935,38.3409
54.8969,38.3491
54.9002,38.3514
55.8387,38.7973
55.8477,38.7978
55.8518,38.7952
56.8442,37.8509
56.8460,37.8481
56.8467,37.8480
55.8460,36.8957
Z" /> 
<path style="fill:#000000; fill-opacity:1.0000; stroke:none;fill-rule:evenodd;"
d="M 18.8486,34.7895
18.8452,34.7969
18.7369,36.3357
18.7397,36.3442
18.7477,36.3482
18.7485,36.3483
19.5337,36.3492
19.5382,36.3484
19.8232,36.2299
20.2650,36.0463
20.2713,36.0400
20.2716,36.0317
19.8487,34.7940
19.8428,34.7872
19.8376,34.7860
18.8569,34.7860
Z" /> 
<path style="fill:#000000; fill-opacity:1.0000; stroke:none;fill-rule:evenodd;"
d="M 19.3377,30.6305
18.4517,31.5176
18.4483,31.5258
18.4493,31.5306
18.8429,32.4163
18.8494,32.4225
18.8536,32.4232
19.8384,32.4232
19.8467,32.4198
19.8491,32.4163
20.2427,31.5306
20.2430,31.5216
20.2403,31.5176
19.3543,30.6305
19.3460,30.6271
Z" /> 
<path style="fill:#000000; fill-opacity:1.0000; stroke:none;fill-rule:evenodd;"
d="M 35.0724,36.3947
34.8705,36.4780
34.3475,36.6940
34.3436,36.6965
33.7877,37.2539
33.7843,37.2622
33.7868,37.2694
34.6729,38.3802
34.6807,38.3845
34.6893,38.3820
34.6903,38.3811
35.3835,37.6879
35.3870,37.6796
35.3867,37.6769
35.0882,36.4028
35.0830,36.3956
35.0742,36.3941
Z" /> 
<path style="fill:#000000; fill-opacity:1.0000; stroke:none;fill-rule:evenodd;"
d="M 32.8381,35.8518
32.8344,35.8600
32.8344,35.8603
32.8344,36.8409
32.8379,36.8492
32.8410,36.8515
34.0287,37.4293
34.0376,37.4298
34.0443,37.4239
34.0446,37.4232
34.3461,36.6978
34.3470,36.6933
34.3460,35.9069
34.3426,35.8987
34.3347,35.8952
32.8465,35.8486
Z" /> 
<path style="fill:#000000; fill-opacity:1.0000; stroke:none;fill-rule:evenodd;"
d="M 27.1611,35.5527
27.1562,35.5602
27.1560,35.5623
27.1550,36.3483
27.1550,36.3483
27.1560,37.1342
27.1594,37.1424
27.1677,37.1459
27.1698,37.1457
28.7465,36.8500
28.7540,36.8451
28.7560,36.8385
28.7560,35.8580
28.7526,35.8497
28.7465,35.8465
27.1698,35.5508
Z" /> 
<path style="fill:#000000; fill-opacity:1.0000; stroke:none;fill-rule:evenodd;"
d="M 19.6912,27.2555
19.6866,27.2609
19.3469,28.0788
19.3469,28.0877
19.3469,28.0877
19.6866,28.9056
19.6930,28.9120
19.7000,28.9126
21.1369,28.5853
21.1442,28.5801
21.1460,28.5739
21.1460,27.5926
21.1426,27.5843
21.1369,27.5812
19.7000,27.2539
Z" /> 
<path style="fill:#000000; fill-opacity:1.0000; stroke:none;fill-rule:evenodd;"
d="M 18.8471,26.2867
18.8439,26.2924
18.5167,27.7292
18.5182,27.7380
18.5236,27.7426
19.3415,28.0824
19.3505,28.0824
19.3505,28.0824
20.1684,27.7426
20.1747,27.7363
20.1753,27.7292
19.8481,26.2924
19.8429,26.2850
19.8367,26.2832
18.8553,26.2832
Z" /> 
<path style="fill:#000000; fill-opacity:1.0000; stroke:none;fill-rule:evenodd;"
d="M 101.3850,23.5882
101.3850,22.0882
103.1529,21.8673
104.3370,22.8382
103.1529,23.8092
Z" /> 
<path style="fill:#000000; fill-opacity:1.0000; stroke:none;fill-rule:evenodd;"
d="M 101.3660,33.5882
101.3660,32.0882
102.3560,31.8483
104.3370,32.8382
102.3560,33.8282
Z" /> 
<path style="fill:#000000; fill-opacity:1.0000; stroke:none;fill-rule:evenodd;"
d="M 93.5005,22.8006
94.5612,23.8612
93.7433,25.0326
92.3453,25.0165
92.3291,23.6184
Z" /> 
<path style="fill:#000000; fill-opacity:1.0000; stroke:none;fill-rule:evenodd;"
d="M 94.5612,31.2503
93.5005,32.3109
92.3291,31.4931
92.3453,30.0950
93.7433,30.0789
Z" /> 
<path style="fill:#000000; fill-opacity:1.0000; stroke:none;fill-rule:evenodd;"
d="M 50.6360,16.2824
49.1360,16.2824
48.9518,14.5816
49.8860,14.3472
50.8202,14.5816
Z" /> 
<path style="fill:#000000; fill-opacity:1.0000; stroke:none;fill-rule:evenodd;"
d="M 52.4155,25.3332
51.7084,24.6261
52.6277,23.2826
53.1941,23.8475
53.7590,24.4139
Z" /> 
</g>
<g style="fill:#FFFFFF; fill-opacity:1.0000; stroke:none;">
<circle cx="53.3460" cy="31.3483" r="0.3810" /> 
</g>
<g style="fill:#FFFFFF; fill-opacity:1.0000; stroke:none;">
<circle cx="53.3460" cy="49.3483" r="0.3810" /> 
</g>
<g style="fill:#FFFFFF; fill-opacity:1.0000; stroke:none;">
<circle cx="59.3460" cy="10.8483" r="0.3810" /> 
</g>
<g style="fill:#FFFFFF; fill-opacity:1.0000; stroke:none;">
<circle cx="41.3460" cy="10.8483" r="0.3810" /> 
</g>
<g style="fill:#FFFFFF; fill-opacity:1.0000; stroke:none;">
<circle cx="47.3460" cy="14.3483" r="0.5500" /> 
</g>
<g style="fill:#FFFFFF; fill-opacity:1.0000; stroke:none;">
<circle cx="49.8860" cy="14.3483" r="0.5500" /> 
</g>
<g style="fill:#FFFFFF; fill-opacity:1.0000; stroke:none;">
<circle cx="52.4260" cy="14.3483" r="0.5500" /> 
</g>
<g style="fill:#FFFFFF; fill-opacity:1.0000; stroke:none;">
<circle cx="56.8460" cy="37.8483" r="0.5500" /> 
</g>
<g style="fill:#FFFFFF; fill-opacity:1.0000; stroke:none;">
<circle cx="56.8460" cy="40.3882" r="0.5500" /> 
</g>
<g style="fill:#FFFFFF; fill-opacity:1.0000; stroke:none;">
<circle cx="56.8460" cy="42.9282" r="0.5500" /> 
</g>
<g style="fill:#FFFFFF; fill-opacity:1.0000; stroke:none;">
<circle cx="27.1560" cy="36.3483" r="0.4000" /> 
</g>
<g style="fill:#FFFFFF; fill-opacity:1.0000; stroke:none;">
<circle cx="19.5360" cy="36.3483" r="0.4000" /> 
</g>
<g style="fill:#FFFFFF; fill-opacity:1.0000; stroke:none;">
<circle cx="25.8460" cy="17.5382" r="0.4000" /> 
</g>
<g style="fill:#FFFFFF; fill-opacity:1.0000; stroke:none;">
<circle cx="25.8460" cy="25.1582" r="0.4000" /> 
</g>
<g style="fill:#FFFFFF; fill-opacity:1.0000; stroke:none;">
<circle cx="8.8460" cy="28.3483" r="0.6600" /> 
</g>
<g style="fill:#FFFFFF; fill-opacity:1.0000; stroke:none;">
<circle cx="8.8460" cy="23.3483" r="0.6600" /> 
</g>
<g style="fill:#FFFFFF; fill-opacity:1.0000; stroke:none;">
<circle cx="8.8460" cy="18.3483" r="0.6600" /> 
</g>
<g style="fill:#FFFFFF; fill-opacity:1.0000; stroke:none;">
<circle cx="104.3360" cy="22.8382" r="0.6600" /> 
</g>
<g style="fill:#FFFFFF; fill-opacity:1.0000; stroke:none;">
<circle cx="104.3360" cy="27.8382" r="0.6600" /> 
</g>
<g style="fill:#FFFFFF; fill-opacity:1.0000; stroke:none;">
<circle cx="104.3360" cy="32.8382" r="0.6600" /> 
</g>
<g style="fill:#FFFFFF; fill-opacity:1.0000; stroke:none;">
<circle cx="19.3460" cy="16.5832" r="0.4500" /> 
</g>
<g style="fill:#FFFFFF; fill-opacity:1.0000; stroke:none;">
<circle cx="19.3460" cy="19.1232" r="0.4500" /> 
</g>
<g style="fill:#FFFFFF; fill-opacity:1.0000; stroke:none;">
<circle cx="19.3460" cy="28.0832" r="0.4500" /> 
</g>
<g style="fill:#FFFFFF; fill-opacity:1.0000; stroke:none;">
<circle cx="19.3460" cy="30.6232" r="0.4500" /> 
</g>
<g style="fill:#FFFFFF; fill-opacity:1.0000; stroke:none;">
<circle cx="65.3460" cy="39.7682" r="0.5500" /> 
</g>
<g style="fill:#FFFFFF; fill-opacity:1.0000; stroke:none;">
<circle cx="65.3460" cy="49.9282" r="0.5500" /> 
</g>
<g style="fill:#FFFFFF; fill-opacity:1.0000; stroke:none;">
<circle cx="65.8460" cy="6.2683" r="0.5500" /> 
</g>
<g style="fill:#FFFFFF; fill-opacity:1.0000; stroke:none;">
<circle cx="65.8460" cy="16.4282" r="0.5500" /> 
</g>
<g style="fill:#FFFFFF; fill-opacity:1.0000; stroke:none;">
<circle cx="92.3460" cy="35.1758" r="0.7000" /> 
</g>
<g style="fill:#FFFFFF; fill-opacity:1.0000; stroke:none;">
<circle cx="92.3460" cy="30.0957" r="0.7000" /> 
</g>
<g style="fill:#FFFFFF; fill-opacity:1.0000; stroke:none;">
<circle cx="92.3460" cy="25.0158" r="0.7000" /> 
</g>
<g style="fill:#FFFFFF; fill-opacity:1.0000; stroke:none;">
<circle cx="92.3460" cy="19.9357" r="0.7000" /> 
</g>
<g style="fill:#FFFFFF; fill-opacity:1.0000; stroke:none;">
<circle cx="34.3460" cy="33.1956" r="0.4000" /> 
</g>
<g style="fill:#FFFFFF; fill-opacity:1.0000; stroke:none;">
<circle cx="34.3460" cy="36.6956" r="0.4000" /> 
</g>
<g style="fill:#FFFFFF; fill-opacity:1.0000; stroke:none;">
<circle cx="53.1933" cy="23.8483" r="0.4000" /> 
</g>
<g style="fill:#FFFFFF; fill-opacity:1.0000; stroke:none;">
<circle cx="49.6933" cy="23.8483" r="0.4000" /> 
</g>
<g style="fill:#FFFFFF; fill-opacity:1.0000; stroke:none;">
<circle cx="77.8460" cy="44.3355" r="0.6000" /> 
</g>
<g style="fill:#FFFFFF; fill-opacity:1.0000; stroke:none;">
<circle cx="77.8460" cy="36.8355" r="0.6000" /> 
</g>
<g style="fill:#FFFFFF; fill-opacity:1.0000; stroke:none;">
<circle cx="77.3460" cy="10.8483" r="0.6000" /> 
</g>
<g style="fill:#FFFFFF; fill-opacity:1.0000; stroke:none;">
<circle cx="77.3460" cy="18.3483" r="0.6000" /> 
</g>
<g style="fill:#FFFFFF; fill-opacity:1.0000; stroke:none;">
<circle cx="99.3460" cy="41.8483" r="0.5000" /> 
</g>
<g style="fill:#FFFFFF; fill-opacity:1.0000; stroke:none;">
<circle cx="109.3460" cy="41.8483" r="0.5000" /> 
</g>
<g style="fill:#FFFFFF; fill-opacity:1.0000; stroke:none;">
<circle cx="109.3460" cy="13.8483" r="0.5000" /> 
</g>
<g style="fill:#FFFFFF; fill-opacity:1.0000; stroke:none;">
<circle cx="99.3460" cy="13.8483" r="0.5000" /> 
</g>
<g style="fill:#FFFFFF; fill-opacity:1.0000; stroke:none;">
<circle cx="22.0960" cy="45.8483" r="0.6500" /> 
</g>
<g style="fill:#FFFFFF; fill-opacity:1.0000; stroke:none;">
<circle cx="27.8960" cy="45.8483" r="0.6500" /> 
</g>
<g style="fill:#FFFFFF; fill-opacity:1.0000; stroke:none;">
<circle cx="36.7960" cy="45.8483" r="0.6500" /> 
</g>
<g style="fill:#FFFFFF; fill-opacity:1.0000; stroke:none;">
<circle cx="42.5960" cy="45.8483" r="0.6500" /> 
</g>
<g style="fill:#FFFFFF; fill-opacity:1.0000; stroke:none;">
<circle cx="34.3460" cy="26.5983" r="0.6500" /> 
</g>
<g style="fill:#FFFFFF; fill-opacity:1.0000; stroke:none;">
<circle cx="34.3460" cy="21.3982" r="0.6500" /> 
</g>
<g style="fill:#FFFFFF; fill-opacity:1.0000; stroke:none;">
<circle cx="34.3460" cy="11.2982" r="0.6500" /> 
</g>
<g style="fill:#FFFFFF; fill-opacity:1.0000; stroke:none;">
<circle cx="34.3460" cy="6.0982" r="0.6500" /> 
</g>
<g style="fill:none; 
stroke:#000000; stroke-width:0.0500; stroke-opacity:1; 
stroke-linecap:round; stroke-linejoin:round;">
<circle cx="107.8460" cy="49.3483" r="2.0000" /> 
<circle cx="107.8460" cy="6.8482" r="2.0000" /> 
<circle cx="5.3460" cy="48.3483" r="2.0000" /> 
<circle cx="4.8460" cy="6.8482" r="2.0000" /> 
<path style="fill:none; 
stroke:#000000; stroke-width:0.0500; stroke-opacity:1; 
stroke-linecap:round; stroke-linejoin:round;fill:none"
d="M 110.8460,4.3483
2.3460,4.3483
2.3460,51.8483
110.8460,51.8483
Z" /> 
</g> 
</svg>
